<svg height="399pt" viewBox="0 0 907.6 398.6" width="908pt" xmlns="http://www.w3.org/2000/svg"><g transform="translate(28.8 369.8)"><path d="m-28.8 28.8v-398.6h907.6v398.6z" fill="#fff"/><text font-family="Arial BoldMT" font-size="13" text-anchor="middle" x="425" y="-326.6">Class Diagram Books</text><path d="m370-184.5h120c6 0 12-6 12-12v-96c0-6-6-12-12-12h-120c-6 0-12 6-12 12v96c0 6 6 12 12 12" fill="none" stroke="#000"/><text font-family="Arial BoldMT" font-size="11" x="415.464" y="-291.2">Book</text><path d="m358-285.5h144" fill="none" stroke="#000"/><g font-size="10"><text font-family="ArialMT" x="365" y="-272">deleted_at</text><text fill="#999" font-family="Arial ItalicMT" x="414.487" y="-272">datetime</text><text font-family="ArialMT" x="365" y="-259">dislikes_count</text><text fill="#999" font-family="Arial ItalicMT" x="430.591" y="-259">integer</text><text font-family="ArialMT" x="365" y="-246">likes_count</text><text fill="#999" font-family="Arial ItalicMT" x="417.808" y="-246">integer</text><text font-family="ArialMT" x="365" y="-233">link</text><text fill="#999" font-family="Arial ItalicMT" x="382.783" y="-233">string (2048)</text><text font-family="ArialMT" x="365" y="-220">summary</text><text fill="#999" font-family="Arial ItalicMT" x="408.892" y="-220">string (2048)</text><text font-family="ArialMT" x="365" y="-207">title</text><text fill="#999" font-family="Arial ItalicMT" x="383.34" y="-207">string (255) ∗</text><text font-family="ArialMT" x="365" y="-194">type</text><text fill="#999" font-family="Arial ItalicMT" x="386.68" y="-194">string</text></g><path d="m81-92.5h120c6 0 12-6 12-12v-31c0-6-6-12-12-12h-120c-6 0-12 6-12 12v31c0 6 6 12 12 12" fill="none" stroke="#000"/><text font-family="Arial BoldMT" font-size="11" x="126.16" y="-134.2">Copy</text><path d="m69-128.5h144" fill="none" stroke="#000"/><text font-family="ArialMT" font-size="10" x="76" y="-115.5">deleted_at</text><text fill="#999" font-family="Arial ItalicMT" font-size="10" x="125.487" y="-115.5">datetime</text><text font-family="ArialMT" font-size="10" x="76" y="-102.5">number</text><text fill="#999" font-family="Arial ItalicMT" font-size="10" x="112.685" y="-102.5">integer</text><path d="m353.448-188.884c-3.15 1.718-6.306 3.354-9.448 4.884 0 0-64.262 19.943-120.473 37.388" fill="none" stroke="#000"/><ellipse cx="355.642" cy="-190.107" fill="none" rx="2.40002" ry="2.40002" stroke="#000"/><ellipse cx="215.434" cy="-144.1" rx="2.40001" ry="2.40001" stroke="#000"/><path d="m224.079-144.584-6.353-.228 5.108-3.784z" stroke="#000"/><path d="m602-10h120c6 0 12-6 12-12v-12c0-6-6-12-12-12h-120c-6 0-12 6-12 12v12c0 6 6 12 12 12" fill="none" stroke="#999"/><text fill="#999" font-family="Arial BoldMT" font-size="11" x="643.803" y="-24.2">Dislike</text><path d="m507.033-224.972c43.033 14.191 94.225 38.123 125.967 76.972 21.001 25.704 27.174 64.3045 28.793 90.5184" fill="none" stroke="#000"/><ellipse cx="504.646" cy="-225.745" fill="none" rx="2.40001" ry="2.40001" stroke="#000"/><ellipse cx="662.153" cy="-48.7978" rx="2.4" ry="2.4" stroke="#000"/><path d="m663.903-57.2777-1.849 6.082-2.347-5.9076z" stroke="#000"/><path d="m718-102h120c6 0 12-6 12-12v-12c0-6-6-12-12-12h-120c-6 0-12 6-12 12v12c0 6 6 12 12 12" fill="none" stroke="#999"/><text fill="#999" font-family="Arial BoldMT" font-size="11" x="760.405" y="-116.2">Ebook</text><path d="m513.553-214.088c67.479 23.753 160.095 56.355 215.916 76.005" fill="none" stroke="#999"/><path d="m512.03-210.172-9.924-7.946 12.714.023z" fill="none" stroke="#999"/><path d="m370-10h120c6 0 12-6 12-12v-12c0-6-6-12-12-12h-120c-6 0-12 6-12 12v12c0 6 6 12 12 12" fill="none" stroke="#999"/><text fill="#999" font-family="Arial BoldMT" font-size="11" x="417.91" y="-24.2">Like</text><path d="m430-179.347v122.3605" fill="none" stroke="#000"/><ellipse cx="430" cy="-181.919" fill="none" rx="2.4" ry="2.4" stroke="#000"/><ellipse cx="430" cy="-48.5852" rx="2.4" ry="2.4" stroke="#000"/><path d="m432.1-56.9852-2.1 6-2.1-6z" stroke="#000"/><path d="m486-102h120c6 0 12-6 12-12v-12c0-6-6-12-12-12h-120c-6 0-12 6-12 12v12c0 6 6 12 12 12" fill="none" stroke="#999"/><text fill="#999" font-family="Arial BoldMT" font-size="11" x="514.037" y="-116.2">PrintedBook</text><path d="m494.573-175.309c13.049 13.781 25.649 27.086 35.111 37.078" fill="none" stroke="#999"/><path d="m491.163-172.802-5.202-11.601 11.301 5.826z" fill="none" stroke="#999"/><path d="m254-92.5h120c6 0 12-6 12-12v-31c0-6-6-12-12-12h-120c-6 0-12 6-12 12v31c0 6 6 12 12 12" fill="none" stroke="#000"/><text font-family="Arial BoldMT" font-size="11" x="300.987" y="-134.2">Vote</text><path d="m242-128.5h144" fill="none" stroke="#000"/><text font-family="ArialMT" font-size="10" x="249" y="-115.5">deleted_at</text><text fill="#999" font-family="Arial ItalicMT" font-size="10" x="298.487" y="-115.5">datetime</text><text font-family="ArialMT" font-size="10" x="249" y="-102.5">type</text><text fill="#999" font-family="Arial ItalicMT" font-size="10" x="270.68" y="-102.5">string</text><path d="m370.615-180.788c-8.099 8.554-16.163 17.069-23.558 24.879" fill="none" stroke="#000"/><ellipse cx="372.388" cy="-182.66" fill="none" rx="2.40002" ry="2.40002" stroke="#000"/><ellipse cx="340.975" cy="-149.486" fill="none" rx="2.40001" ry="2.40001" stroke="#000"/><path d="m348.275-154.142-5.65 2.913 2.601-5.801z" stroke="#000"/><path d="m81-.5h120c6 0 12-6 12-12v-31c0-6-6-12-12-12h-120c-6 0-12 6-12 12v31c0 6 6 12 12 12" fill="none" stroke="#000"/><text font-family="Arial BoldMT" font-size="11" x="114.239" y="-42.2">Borrowing</text><path d="m69-36.5h144" fill="none" stroke="#000"/><text font-family="ArialMT" font-size="10" x="76" y="-23.5">borrowed_at</text><text fill="#999" font-family="Arial ItalicMT" font-size="10" x="134.369" y="-23.5">datetime</text><text font-family="ArialMT" font-size="10" x="76" y="-10.5">deleted_at</text><text fill="#999" font-family="Arial ItalicMT" font-size="10" x="125.487" y="-10.5">datetime</text><path d="m141-87.4769v20.8681" fill="none" stroke="#000"/><ellipse cx="141" cy="-90.0838" fill="none" rx="2.4" ry="2.4" stroke="#000"/><ellipse cx="141" cy="-58.0377" rx="2.4" ry="2.4" stroke="#000"/><path d="m143.1-66.4377-2.1 6-2.1-6z" stroke="#000"/><path d="m197-223.5h120c6 0 12-6 12-12v-18c0-6-6-12-12-12h-120c-6 0-12 6-12 12v18c0 6 6 12 12 12" fill="none" stroke="#000"/><text font-family="Arial BoldMT" font-size="11" x="234.206" y="-252.2">Location</text><path d="m185-246.5h144" fill="none" stroke="#000"/><text font-family="ArialMT" font-size="10" x="192" y="-233">city</text><text fill="#999" font-family="Arial ItalicMT" font-size="10" x="209.778" y="-233">string (255) ∗</text><path d="m234.541-219.782c-17.272 18.239-41.387 43.705-60.806 64.212" fill="none" stroke="#000"/><ellipse cx="236.195" cy="-221.529" fill="none" rx="2.40002" ry="2.40002" stroke="#000"/><ellipse cx="167.928" cy="-149.437" rx="2.40001" ry="2.40001" stroke="#000"/><path d="m175.228-154.092-5.65 2.913 2.601-5.801z" stroke="#000"/><path d="m468.796-101.844c-70.062 15.5698-173.09 38.4649-244.877 54.4175" fill="none" stroke="#000" stroke-dasharray="1 5"/><ellipse cx="471.251" cy="-102.389" fill="none" rx="2.40001" ry="2.40001" stroke="#000"/><ellipse cx="215.462" cy="-45.5472" fill="none" rx="2.4" ry="2.4" stroke="#000"/><path d="m224.118-45.3195-6.313-.7484 5.402-3.3516z" stroke="#000"/><path d="m12-204h132c6 0 12-6 12-12v-57c0-6-6-12-12-12h-132c-6 0-12 6-12 12v57c0 6 6 12 12 12" fill="none" stroke="#000"/><text font-family="Arial BoldMT" font-size="11" x="64.3877" y="-271.7">User</text><path d="m0-266h156" fill="none" stroke="#000"/><text font-family="ArialMT" font-size="10" x="7" y="-253">email</text><text fill="#999" font-family="Arial ItalicMT" font-size="10" x="33.6748" y="-253">string (255) ∗ U</text><text font-family="ArialMT" font-size="10" x="7" y="-240">login_token</text><text fill="#999" font-family="Arial ItalicMT" font-size="10" x="60.9307" y="-240">string</text><text font-family="ArialMT" font-size="10" x="6.84033" y="-227">login_token_valid_until</text><text fill="#999" font-family="Arial ItalicMT" font-size="10" x="110.805" y="-227">datetime</text><text font-family="ArialMT" font-size="10" x="7" y="-214">name</text><text fill="#999" font-family="Arial ItalicMT" font-size="10" x="34.793" y="-214">string (100)</text><path d="m57.8771-199.227c-11.1917 31.46-19.7912 73.869-2.8771 107.227 5.8199 11.4777 14.8225 21.3681 24.8497 29.6867" fill="none" stroke="#000"/><ellipse cx="58.7202" cy="-201.532" fill="none" rx="2.40001" ry="2.40001" stroke="#000"/><ellipse cx="86.5628" cy="-57.1569" rx="2.40001" ry="2.40001" stroke="#000"/><path d="m81.1803-63.9392 3.4792 5.3203-6.0376-1.9895z" stroke="#000"/><path d="m141.163-201.263c9.841 6.046 20.007 11.994 29.837 17.263 21.253 11.393 44.987 22.469 66.917 32.075" fill="none" stroke="#000"/><ellipse cx="139.008" cy="-202.596" fill="none" rx="2.40002" ry="2.40002" stroke="#000"/><ellipse cx="245.649" cy="-148.573" rx="2.40001" ry="2.40001" stroke="#000"/><path d="m238.777-153.841 4.67 4.313-6.341-.459z" stroke="#000"/><path d="m397.993-97.2776c60.856 15.7386 141.982 36.7193 198.169 51.2505" fill="none" stroke="#999"/><path d="m396.672-93.2811-10.566-7.0709 12.669-1.061z" fill="none" stroke="#999"/><path d="m357.944-84.9057c17.007 13.1952 35.73 27.7217 49.827 38.6593" fill="none" stroke="#999"/><path d="m355.083-81.8094-6.907-10.6744 12.056 4.0376z" fill="none" stroke="#999"/></g></svg>