<?xml version="1.0" encoding="UTF-8" standalone="no"?>
<!DOCTYPE svg PUBLIC "-//W3C//DTD SVG 1.1//EN"
 "http://www.w3.org/Graphics/SVG/1.1/DTD/svg11.dtd">
<!-- Generated by graphviz version 2.43.0 (0)
 -->
<!-- Title: Books Pages: 1 -->
<svg width="941pt" height="451pt"
 viewBox="0.00 0.00 940.88 450.60" xmlns="http://www.w3.org/2000/svg" xmlns:xlink="http://www.w3.org/1999/xlink">
<g id="graph0" class="graph" transform="scale(1 1) rotate(0) translate(28.8 421.8)">
<title>Books</title>
<polygon fill="white" stroke="transparent" points="-28.8,28.8 -28.8,-421.8 912.08,-421.8 912.08,28.8 -28.8,28.8"/>
<text text-anchor="middle" x="441.64" y="-378.6" font-family="Arial BoldMT" font-size="13.00">Class Diagram Books</text>
<!-- m_Book -->
<g id="node1" class="node">
<title>m_Book</title>
<path fill="none" stroke="black" d="M519.28,-197.5C519.28,-197.5 639.28,-197.5 639.28,-197.5 645.28,-197.5 651.28,-203.5 651.28,-209.5 651.28,-209.5 651.28,-344.5 651.28,-344.5 651.28,-350.5 645.28,-356.5 639.28,-356.5 639.28,-356.5 519.28,-356.5 519.28,-356.5 513.28,-356.5 507.28,-350.5 507.28,-344.5 507.28,-344.5 507.28,-209.5 507.28,-209.5 507.28,-203.5 513.28,-197.5 519.28,-197.5"/>
<text text-anchor="start" x="564.75" y="-343.2" font-family="Arial BoldMT" font-size="11.00">Book</text>
<polyline fill="none" stroke="black" points="507.28,-337.5 651.28,-337.5 "/>
<text text-anchor="start" x="514.28" y="-324.5" font-family="ArialMT" font-size="10.00">comments_count </text>
<text text-anchor="start" x="593.21" y="-324.5" font-family="Arial ItalicMT" font-size="10.00" fill="#999999">integer</text>
<text text-anchor="start" x="514.28" y="-311.5" font-family="ArialMT" font-size="10.00">cover </text>
<text text-anchor="start" x="541.51" y="-311.5" font-family="Arial ItalicMT" font-size="10.00" fill="#999999">string</text>
<text text-anchor="start" x="514.28" y="-298.5" font-family="ArialMT" font-size="10.00">deleted_at </text>
<text text-anchor="start" x="563.77" y="-298.5" font-family="Arial ItalicMT" font-size="10.00" fill="#999999">datetime</text>
<text text-anchor="start" x="514.28" y="-285.5" font-family="ArialMT" font-size="10.00">dislikes_count </text>
<text text-anchor="start" x="579.87" y="-285.5" font-family="Arial ItalicMT" font-size="10.00" fill="#999999">integer</text>
<text text-anchor="start" x="514.28" y="-272.5" font-family="ArialMT" font-size="10.00">likes_count </text>
<text text-anchor="start" x="567.09" y="-272.5" font-family="Arial ItalicMT" font-size="10.00" fill="#999999">integer</text>
<text text-anchor="start" x="514.28" y="-259.5" font-family="ArialMT" font-size="10.00">link </text>
<text text-anchor="start" x="532.06" y="-259.5" font-family="Arial ItalicMT" font-size="10.00" fill="#999999">string (2048)</text>
<text text-anchor="start" x="514.28" y="-246.5" font-family="ArialMT" font-size="10.00">num_of_pages </text>
<text text-anchor="start" x="583.22" y="-246.5" font-family="Arial ItalicMT" font-size="10.00" fill="#999999">integer (2)</text>
<text text-anchor="start" x="514.28" y="-233.5" font-family="ArialMT" font-size="10.00">published_on </text>
<text text-anchor="start" x="576.56" y="-233.5" font-family="Arial ItalicMT" font-size="10.00" fill="#999999">date</text>
<text text-anchor="start" x="514.28" y="-220.5" font-family="ArialMT" font-size="10.00">summary </text>
<text text-anchor="start" x="558.17" y="-220.5" font-family="Arial ItalicMT" font-size="10.00" fill="#999999">string (2048)</text>
<text text-anchor="start" x="514.28" y="-207.5" font-family="ArialMT" font-size="10.00">title </text>
<text text-anchor="start" x="532.62" y="-207.5" font-family="Arial ItalicMT" font-size="10.00" fill="#999999">string (255) ∗</text>
</g>
<!-- m_Book&#45;&gt;m_Book -->
<g id="edge10" class="edge">
<title>m_Book&#45;&gt;m_Book</title>
<path fill="none" stroke="black" d="M656.38,-303.57C670.43,-300.2 680.28,-291.35 680.28,-277 680.28,-264.65 672.98,-256.37 661.98,-252.15"/>
<ellipse fill="none" stroke="black" cx="653.81" cy="-304.06" rx="2.4" ry="2.4"/>
<ellipse fill="none" stroke="black" cx="653.78" cy="-250.08" rx="2.4" ry="2.4"/>
<polygon fill="black" stroke="black" points="662.44,-250.1 656.11,-250.67 661.41,-254.18 662.44,-250.1"/>
</g>
<!-- m_Borrowing -->
<g id="node2" class="node">
<title>m_Borrowing</title>
<path fill="none" stroke="black" d="M57.28,-0.5C57.28,-0.5 177.28,-0.5 177.28,-0.5 183.28,-0.5 189.28,-6.5 189.28,-12.5 189.28,-12.5 189.28,-43.5 189.28,-43.5 189.28,-49.5 183.28,-55.5 177.28,-55.5 177.28,-55.5 57.28,-55.5 57.28,-55.5 51.28,-55.5 45.28,-49.5 45.28,-43.5 45.28,-43.5 45.28,-12.5 45.28,-12.5 45.28,-6.5 51.28,-0.5 57.28,-0.5"/>
<text text-anchor="start" x="90.52" y="-42.2" font-family="Arial BoldMT" font-size="11.00">Borrowing</text>
<polyline fill="none" stroke="black" points="45.28,-36.5 189.28,-36.5 "/>
<text text-anchor="start" x="52.28" y="-23.5" font-family="ArialMT" font-size="10.00">borrowed_at </text>
<text text-anchor="start" x="110.65" y="-23.5" font-family="Arial ItalicMT" font-size="10.00" fill="#999999">datetime</text>
<text text-anchor="start" x="52.28" y="-10.5" font-family="ArialMT" font-size="10.00">deleted_at </text>
<text text-anchor="start" x="101.77" y="-10.5" font-family="Arial ItalicMT" font-size="10.00" fill="#999999">datetime</text>
</g>
<!-- m_Book&#45;&gt;m_Borrowing -->
<g id="edge8" class="edge">
<title>m_Book&#45;&gt;m_Borrowing</title>
<path fill="none" stroke="black" stroke-dasharray="1,5" d="M502.19,-239.07C466.74,-223.63 423.67,-206.99 383.28,-197 299.52,-176.29 17.15,-212.31 1.28,-127.5"/>
<ellipse fill="none" stroke="black" cx="504.72" cy="-240.18" rx="2.4" ry="2.4"/>
<path fill="none" stroke="black" stroke-dasharray="1,5" d="M1.28,-125.5C-3.84,-98.1 15.33,-76.81 39.49,-61.28"/>
<ellipse fill="none" stroke="black" cx="46.9" cy="-56.84" rx="2.4" ry="2.4"/>
<polygon fill="black" stroke="black" points="40.77,-62.96 44.84,-58.07 38.61,-59.36 40.77,-62.96"/>
</g>
<!-- m_Comment -->
<g id="node3" class="node">
<title>m_Comment</title>
<path fill="none" stroke="black" d="M403.28,-99C403.28,-99 523.28,-99 523.28,-99 529.28,-99 535.28,-105 535.28,-111 535.28,-111 535.28,-142 535.28,-142 535.28,-148 529.28,-154 523.28,-154 523.28,-154 403.28,-154 403.28,-154 397.28,-154 391.28,-148 391.28,-142 391.28,-142 391.28,-111 391.28,-111 391.28,-105 397.28,-99 403.28,-99"/>
<text text-anchor="start" x="437.44" y="-140.7" font-family="Arial BoldMT" font-size="11.00">Comment</text>
<polyline fill="none" stroke="black" points="391.28,-135 535.28,-135 "/>
<text text-anchor="start" x="398.28" y="-122" font-family="ArialMT" font-size="10.00">body </text>
<text text-anchor="start" x="422.74" y="-122" font-family="Arial ItalicMT" font-size="10.00" fill="#999999">string (1024) ∗</text>
<text text-anchor="start" x="398.28" y="-109" font-family="ArialMT" font-size="10.00">deleted_at </text>
<text text-anchor="start" x="447.77" y="-109" font-family="Arial ItalicMT" font-size="10.00" fill="#999999">datetime</text>
</g>
<!-- m_Book&#45;&gt;m_Comment -->
<g id="edge6" class="edge">
<title>m_Book&#45;&gt;m_Comment</title>
<path fill="none" stroke="black" d="M514.75,-193.39C506.35,-182.64 498.14,-172.13 490.83,-162.77"/>
<ellipse fill="none" stroke="black" cx="516.41" cy="-195.51" rx="2.4" ry="2.4"/>
<ellipse fill="black" stroke="black" cx="485.6" cy="-156.07" rx="2.4" ry="2.4"/>
<polygon fill="black" stroke="black" points="492.42,-161.4 487.08,-157.96 489.11,-163.98 492.42,-161.4"/>
</g>
<!-- m_Copy -->
<g id="node4" class="node">
<title>m_Copy</title>
<path fill="none" stroke="black" d="M57.28,-92.5C57.28,-92.5 177.28,-92.5 177.28,-92.5 183.28,-92.5 189.28,-98.5 189.28,-104.5 189.28,-104.5 189.28,-148.5 189.28,-148.5 189.28,-154.5 183.28,-160.5 177.28,-160.5 177.28,-160.5 57.28,-160.5 57.28,-160.5 51.28,-160.5 45.28,-154.5 45.28,-148.5 45.28,-148.5 45.28,-104.5 45.28,-104.5 45.28,-98.5 51.28,-92.5 57.28,-92.5"/>
<text text-anchor="start" x="102.44" y="-147.2" font-family="Arial BoldMT" font-size="11.00">Copy</text>
<polyline fill="none" stroke="black" points="45.28,-141.5 189.28,-141.5 "/>
<text text-anchor="start" x="52.28" y="-128" font-family="ArialMT" font-size="10.00">borrowings_count </text>
<text text-anchor="start" x="134" y="-128" font-family="Arial ItalicMT" font-size="10.00" fill="#999999">integer</text>
<text text-anchor="start" x="52.28" y="-115" font-family="ArialMT" font-size="10.00">deleted_at </text>
<text text-anchor="start" x="101.77" y="-115" font-family="Arial ItalicMT" font-size="10.00" fill="#999999">datetime</text>
<text text-anchor="start" x="52.28" y="-102" font-family="ArialMT" font-size="10.00">number </text>
<text text-anchor="start" x="88.97" y="-102" font-family="Arial ItalicMT" font-size="10.00" fill="#999999">integer</text>
</g>
<!-- m_Book&#45;&gt;m_Copy -->
<g id="edge7" class="edge">
<title>m_Book&#45;&gt;m_Copy</title>
<path fill="none" stroke="black" d="M502.15,-241.05C466.52,-225.91 423.32,-208.96 383.28,-197 305.11,-173.65 281.59,-183.89 203.28,-161 202.31,-160.71 201.33,-160.42 200.34,-160.13"/>
<ellipse fill="none" stroke="black" cx="504.7" cy="-242.13" rx="2.4" ry="2.4"/>
<ellipse fill="black" stroke="black" cx="191.99" cy="-157.46" rx="2.4" ry="2.4"/>
<polygon fill="black" stroke="black" points="200.63,-158.01 194.27,-158.19 199.35,-162.01 200.63,-158.01"/>
</g>
<!-- m_Dislike -->
<g id="node5" class="node">
<title>m_Dislike</title>
<path fill="none" stroke="#999999" d="M751.28,-10C751.28,-10 871.28,-10 871.28,-10 877.28,-10 883.28,-16 883.28,-22 883.28,-22 883.28,-34 883.28,-34 883.28,-40 877.28,-46 871.28,-46 871.28,-46 751.28,-46 751.28,-46 745.28,-46 739.28,-40 739.28,-34 739.28,-34 739.28,-22 739.28,-22 739.28,-16 745.28,-10 751.28,-10"/>
<text text-anchor="start" x="793.08" y="-24.2" font-family="Arial BoldMT" font-size="11.00" fill="#999999">Dislike</text>
</g>
<!-- m_Book&#45;&gt;m_Dislike -->
<g id="edge5" class="edge">
<title>m_Book&#45;&gt;m_Dislike</title>
<path fill="none" stroke="black" d="M656.13,-250.45C699.51,-232.16 751.12,-203.22 782.28,-161 804.81,-130.47 810.45,-85.84 811.55,-57.1"/>
<ellipse fill="none" stroke="black" cx="653.91" cy="-251.37" rx="2.4" ry="2.4"/>
<ellipse fill="black" stroke="black" cx="811.72" cy="-48.61" rx="2.4" ry="2.4"/>
<polygon fill="black" stroke="black" points="813.65,-57.05 811.67,-51.01 809.45,-56.96 813.65,-57.05"/>
</g>
<!-- m_Like -->
<g id="node6" class="node">
<title>m_Like</title>
<path fill="none" stroke="#999999" d="M519.28,-10C519.28,-10 639.28,-10 639.28,-10 645.28,-10 651.28,-16 651.28,-22 651.28,-22 651.28,-34 651.28,-34 651.28,-40 645.28,-46 639.28,-46 639.28,-46 519.28,-46 519.28,-46 513.28,-46 507.28,-40 507.28,-34 507.28,-34 507.28,-22 507.28,-22 507.28,-16 513.28,-10 519.28,-10"/>
<text text-anchor="start" x="567.19" y="-24.2" font-family="Arial BoldMT" font-size="11.00" fill="#999999">Like</text>
</g>
<!-- m_Book&#45;&gt;m_Like -->
<g id="edge4" class="edge">
<title>m_Book&#45;&gt;m_Like</title>
<path fill="none" stroke="black" d="M579.28,-192.1C579.28,-145.15 579.28,-89.67 579.28,-57.01"/>
<ellipse fill="none" stroke="black" cx="579.28" cy="-194.77" rx="2.4" ry="2.4"/>
<ellipse fill="black" stroke="black" cx="579.28" cy="-48.47" rx="2.4" ry="2.4"/>
<polygon fill="black" stroke="black" points="581.38,-56.87 579.28,-50.87 577.18,-56.87 581.38,-56.87"/>
</g>
<!-- m_Vote -->
<g id="node9" class="node">
<title>m_Vote</title>
<path fill="none" stroke="black" d="M230.28,-99C230.28,-99 350.28,-99 350.28,-99 356.28,-99 362.28,-105 362.28,-111 362.28,-111 362.28,-142 362.28,-142 362.28,-148 356.28,-154 350.28,-154 350.28,-154 230.28,-154 230.28,-154 224.28,-154 218.28,-148 218.28,-142 218.28,-142 218.28,-111 218.28,-111 218.28,-105 224.28,-99 230.28,-99"/>
<text text-anchor="start" x="277.27" y="-140.7" font-family="Arial BoldMT" font-size="11.00">Vote</text>
<polyline fill="none" stroke="black" points="218.28,-135 362.28,-135 "/>
<text text-anchor="start" x="225.28" y="-122" font-family="ArialMT" font-size="10.00">deleted_at </text>
<text text-anchor="start" x="274.77" y="-122" font-family="Arial ItalicMT" font-size="10.00" fill="#999999">datetime</text>
<text text-anchor="start" x="225.28" y="-109" font-family="ArialMT" font-size="10.00">type </text>
<text text-anchor="start" x="246.96" y="-109" font-family="Arial ItalicMT" font-size="10.00" fill="#999999">string</text>
</g>
<!-- m_Book&#45;&gt;m_Vote -->
<g id="edge3" class="edge">
<title>m_Book&#45;&gt;m_Vote</title>
<path fill="none" stroke="black" d="M502.55,-236.57C455.39,-212.34 395.78,-181.71 351.75,-159.09"/>
<ellipse fill="none" stroke="black" cx="504.97" cy="-237.81" rx="2.4" ry="2.4"/>
<ellipse fill="none" stroke="black" cx="344.17" cy="-155.19" rx="2.4" ry="2.4"/>
<polygon fill="black" stroke="black" points="352.6,-157.16 346.31,-156.29 350.68,-160.9 352.6,-157.16"/>
</g>
<!-- m_Writer -->
<g id="node10" class="node">
<title>m_Writer</title>
<path fill="none" stroke="black" d="M635.28,-105.5C635.28,-105.5 755.28,-105.5 755.28,-105.5 761.28,-105.5 767.28,-111.5 767.28,-117.5 767.28,-117.5 767.28,-135.5 767.28,-135.5 767.28,-141.5 761.28,-147.5 755.28,-147.5 755.28,-147.5 635.28,-147.5 635.28,-147.5 629.28,-147.5 623.28,-141.5 623.28,-135.5 623.28,-135.5 623.28,-117.5 623.28,-117.5 623.28,-111.5 629.28,-105.5 635.28,-105.5"/>
<text text-anchor="start" x="678.71" y="-134.2" font-family="Arial BoldMT" font-size="11.00">Writer</text>
<polyline fill="none" stroke="black" points="623.28,-128.5 767.28,-128.5 "/>
<text text-anchor="start" x="630.28" y="-115" font-family="ArialMT" font-size="10.00">name </text>
<text text-anchor="start" x="658.07" y="-115" font-family="Arial ItalicMT" font-size="10.00" fill="#999999">string ∗ U</text>
</g>
<!-- m_Book&#45;&gt;m_Writer -->
<g id="edge9" class="edge">
<title>m_Book&#45;&gt;m_Writer</title>
<path fill="none" stroke="black" d="M647.42,-188.77C656.55,-177.08 665.33,-165.84 672.83,-156.24"/>
<ellipse fill="none" stroke="black" cx="642.16" cy="-195.51" rx="2.4" ry="2.4"/>
<polygon fill="black" stroke="black" points="645.67,-187.6 643.63,-193.62 648.98,-190.18 645.67,-187.6"/>
<ellipse fill="none" stroke="black" cx="678.11" cy="-149.48" rx="2.4" ry="2.4"/>
<polygon fill="black" stroke="black" points="674.6,-157.39 676.64,-151.37 671.29,-154.81 674.6,-157.39"/>
</g>
<!-- m_Copy&#45;&gt;m_Borrowing -->
<g id="edge14" class="edge">
<title>m_Copy&#45;&gt;m_Borrowing</title>
<path fill="none" stroke="black" d="M117.28,-87.45C117.28,-80.61 117.28,-73.49 117.28,-66.67"/>
<ellipse fill="none" stroke="black" cx="117.28" cy="-89.89" rx="2.4" ry="2.4"/>
<ellipse fill="black" stroke="black" cx="117.28" cy="-57.97" rx="2.4" ry="2.4"/>
<polygon fill="black" stroke="black" points="119.38,-66.37 117.28,-60.37 115.18,-66.37 119.38,-66.37"/>
</g>
<!-- m_Location -->
<g id="node7" class="node">
<title>m_Location</title>
<path fill="none" stroke="black" d="M51.28,-256C51.28,-256 171.28,-256 171.28,-256 177.28,-256 183.28,-262 183.28,-268 183.28,-268 183.28,-286 183.28,-286 183.28,-292 177.28,-298 171.28,-298 171.28,-298 51.28,-298 51.28,-298 45.28,-298 39.28,-292 39.28,-286 39.28,-286 39.28,-268 39.28,-268 39.28,-262 45.28,-256 51.28,-256"/>
<text text-anchor="start" x="88.49" y="-284.7" font-family="Arial BoldMT" font-size="11.00">Location</text>
<polyline fill="none" stroke="black" points="39.28,-279 183.28,-279 "/>
<text text-anchor="start" x="46.28" y="-265.5" font-family="ArialMT" font-size="10.00">city </text>
<text text-anchor="start" x="64.06" y="-265.5" font-family="Arial ItalicMT" font-size="10.00" fill="#999999">string (255) ∗</text>
</g>
<!-- m_Location&#45;&gt;m_Copy -->
<g id="edge13" class="edge">
<title>m_Location&#45;&gt;m_Copy</title>
<path fill="none" stroke="black" d="M112.3,-250.88C113.17,-229.23 114.45,-197.46 115.5,-171.59"/>
<ellipse fill="none" stroke="black" cx="112.19" cy="-253.57" rx="2.4" ry="2.4"/>
<ellipse fill="black" stroke="black" cx="115.85" cy="-162.93" rx="2.4" ry="2.4"/>
<polygon fill="black" stroke="black" points="117.61,-171.41 115.75,-165.33 113.41,-171.24 117.61,-171.41"/>
</g>
<!-- m_User -->
<g id="node8" class="node">
<title>m_User</title>
<path fill="none" stroke="black" d="M224.28,-236.5C224.28,-236.5 356.28,-236.5 356.28,-236.5 362.28,-236.5 368.28,-242.5 368.28,-248.5 368.28,-248.5 368.28,-305.5 368.28,-305.5 368.28,-311.5 362.28,-317.5 356.28,-317.5 356.28,-317.5 224.28,-317.5 224.28,-317.5 218.28,-317.5 212.28,-311.5 212.28,-305.5 212.28,-305.5 212.28,-248.5 212.28,-248.5 212.28,-242.5 218.28,-236.5 224.28,-236.5"/>
<text text-anchor="start" x="276.67" y="-304.2" font-family="Arial BoldMT" font-size="11.00">User</text>
<polyline fill="none" stroke="black" points="212.28,-298.5 368.28,-298.5 "/>
<text text-anchor="start" x="219.28" y="-285.5" font-family="ArialMT" font-size="10.00">email </text>
<text text-anchor="start" x="245.96" y="-285.5" font-family="Arial ItalicMT" font-size="10.00" fill="#999999">string (255) ∗ U</text>
<text text-anchor="start" x="219.28" y="-272.5" font-family="ArialMT" font-size="10.00">login_token </text>
<text text-anchor="start" x="273.21" y="-272.5" font-family="Arial ItalicMT" font-size="10.00" fill="#999999">string</text>
<text text-anchor="start" x="219.12" y="-259.5" font-family="ArialMT" font-size="10.00">login_token_valid_until </text>
<text text-anchor="start" x="323.09" y="-259.5" font-family="Arial ItalicMT" font-size="10.00" fill="#999999">datetime</text>
<text text-anchor="start" x="219.28" y="-246.5" font-family="ArialMT" font-size="10.00">name </text>
<text text-anchor="start" x="247.07" y="-246.5" font-family="Arial ItalicMT" font-size="10.00" fill="#999999">string (100)</text>
</g>
<!-- m_User&#45;&gt;m_Borrowing -->
<g id="edge15" class="edge">
<title>m_User&#45;&gt;m_Borrowing</title>
<path fill="none" stroke="black" d="M248.45,-232.87C233.45,-219.58 215.67,-206.07 197.28,-197 114.39,-156.11 18.28,-218.35 1.28,-127.5"/>
<ellipse fill="none" stroke="black" cx="250.42" cy="-234.63" rx="2.4" ry="2.4"/>
</g>
<!-- m_User&#45;&gt;m_Comment -->
<g id="edge11" class="edge">
<title>m_User&#45;&gt;m_Comment</title>
<path fill="none" stroke="black" d="M340.6,-232.81C367.15,-210.02 399.25,-182.46 423.95,-161.26"/>
<ellipse fill="none" stroke="black" cx="338.46" cy="-234.64" rx="2.4" ry="2.4"/>
<ellipse fill="black" stroke="black" cx="430.54" cy="-155.6" rx="2.4" ry="2.4"/>
<polygon fill="black" stroke="black" points="425.54,-162.67 428.72,-157.17 422.8,-159.48 425.54,-162.67"/>
</g>
<!-- m_User&#45;&gt;m_Vote -->
<g id="edge12" class="edge">
<title>m_User&#45;&gt;m_Vote</title>
<path fill="none" stroke="black" d="M290.28,-231.26C290.28,-210.18 290.28,-185.3 290.28,-165.19"/>
<ellipse fill="none" stroke="black" cx="290.28" cy="-233.8" rx="2.4" ry="2.4"/>
<ellipse fill="black" stroke="black" cx="290.28" cy="-156.67" rx="2.4" ry="2.4"/>
<polygon fill="black" stroke="black" points="292.38,-165.07 290.28,-159.07 288.18,-165.07 292.38,-165.07"/>
</g>
<!-- m_Vote&#45;&gt;m_Dislike -->
<g id="edge1" class="edge">
<title>m_Vote&#45;&gt;m_Dislike</title>
<path fill="none" stroke="#999999" d="M365.61,-95.23C369.53,-94.05 373.44,-92.96 377.28,-92 502.83,-60.51 538.38,-75.86 666.28,-56 690.07,-52.31 715.93,-47.69 739.15,-43.32"/>
<polygon fill="none" stroke="#999999" points="364,-91.33 353.85,-99 366.56,-99.33 364,-91.33"/>
</g>
<!-- m_Vote&#45;&gt;m_Like -->
<g id="edge2" class="edge">
<title>m_Vote&#45;&gt;m_Like</title>
<path fill="none" stroke="#999999" d="M369.55,-94.73C372.15,-93.8 374.74,-92.89 377.28,-92 425.33,-75.28 480.52,-58.21 521.05,-46.06"/>
<polygon fill="none" stroke="#999999" points="367.88,-90.87 358.04,-98.92 370.75,-98.76 367.88,-90.87"/>
</g>
</g>
</svg>
