<?xml version="1.0" encoding="UTF-8" standalone="no"?>
<!DOCTYPE svg PUBLIC "-//W3C//DTD SVG 1.1//EN"
 "http://www.w3.org/Graphics/SVG/1.1/DTD/svg11.dtd">
<!-- Generated by graphviz version 2.38.0 (20140413.2041)
 -->
<!-- Title: Books Pages: 1 -->
<svg width="1153pt" height="438pt"
 viewBox="0.00 0.00 1153.39 437.60" xmlns="http://www.w3.org/2000/svg" xmlns:xlink="http://www.w3.org/1999/xlink">
<g id="graph0" class="graph" transform="scale(1 1) rotate(0) translate(28.8 408.8)">
<title>Books</title>
<polygon fill="white" stroke="none" points="-28.8,28.8 -28.8,-408.8 1124.59,-408.8 1124.59,28.8 -28.8,28.8"/>
<text text-anchor="middle" x="547.896" y="-365.6" font-family="Arial BoldMT" font-size="13.00">Class Diagram Books</text>
<!-- m_Book -->
<g id="node1" class="node"><title>m_Book</title>
<path fill="none" stroke="black" d="M391.792,-197.5C391.792,-197.5 511.792,-197.5 511.792,-197.5 517.792,-197.5 523.792,-203.5 523.792,-209.5 523.792,-209.5 523.792,-331.5 523.792,-331.5 523.792,-337.5 517.792,-343.5 511.792,-343.5 511.792,-343.5 391.792,-343.5 391.792,-343.5 385.792,-343.5 379.792,-337.5 379.792,-331.5 379.792,-331.5 379.792,-209.5 379.792,-209.5 379.792,-203.5 385.792,-197.5 391.792,-197.5"/>
<text text-anchor="start" x="437.256" y="-330.2" font-family="Arial BoldMT" font-size="11.00">Book</text>
<polyline fill="none" stroke="black" points="379.792,-324.5 523.792,-324.5 "/>
<text text-anchor="start" x="386.792" y="-311" font-family="ArialMT" font-size="10.00">comments_count </text>
<text text-anchor="start" x="465.718" y="-311" font-family="Arial ItalicMT" font-size="10.00" fill="#999999">integer</text>
<text text-anchor="start" x="386.792" y="-298" font-family="ArialMT" font-size="10.00">cover </text>
<text text-anchor="start" x="414.024" y="-298" font-family="Arial ItalicMT" font-size="10.00" fill="#999999">string</text>
<text text-anchor="start" x="386.792" y="-285" font-family="ArialMT" font-size="10.00">deleted_at </text>
<text text-anchor="start" x="436.28" y="-285" font-family="Arial ItalicMT" font-size="10.00" fill="#999999">datetime</text>
<text text-anchor="start" x="386.792" y="-272" font-family="ArialMT" font-size="10.00">dislikes_count </text>
<text text-anchor="start" x="452.383" y="-272" font-family="Arial ItalicMT" font-size="10.00" fill="#999999">integer</text>
<text text-anchor="start" x="386.792" y="-259" font-family="ArialMT" font-size="10.00">likes_count </text>
<text text-anchor="start" x="439.6" y="-259" font-family="Arial ItalicMT" font-size="10.00" fill="#999999">integer</text>
<text text-anchor="start" x="386.792" y="-246" font-family="ArialMT" font-size="10.00">link </text>
<text text-anchor="start" x="404.575" y="-246" font-family="Arial ItalicMT" font-size="10.00" fill="#999999">string (2048)</text>
<text text-anchor="start" x="386.792" y="-233" font-family="ArialMT" font-size="10.00">summary </text>
<text text-anchor="start" x="430.684" y="-233" font-family="Arial ItalicMT" font-size="10.00" fill="#999999">string (2048)</text>
<text text-anchor="start" x="386.792" y="-220" font-family="ArialMT" font-size="10.00">title </text>
<text text-anchor="start" x="405.132" y="-220" font-family="Arial ItalicMT" font-size="10.00" fill="#999999">string (255) ∗</text>
<text text-anchor="start" x="386.792" y="-207" font-family="ArialMT" font-size="10.00">type </text>
<text text-anchor="start" x="408.472" y="-207" font-family="Arial ItalicMT" font-size="10.00" fill="#999999">string</text>
</g>
<!-- m_Comment -->
<g id="node3" class="node"><title>m_Comment</title>
<path fill="none" stroke="black" d="M385.792,-99C385.792,-99 505.792,-99 505.792,-99 511.792,-99 517.792,-105 517.792,-111 517.792,-111 517.792,-142 517.792,-142 517.792,-148 511.792,-154 505.792,-154 505.792,-154 385.792,-154 385.792,-154 379.792,-154 373.792,-148 373.792,-142 373.792,-142 373.792,-111 373.792,-111 373.792,-105 379.792,-99 385.792,-99"/>
<text text-anchor="start" x="419.953" y="-140.7" font-family="Arial BoldMT" font-size="11.00">Comment</text>
<polyline fill="none" stroke="black" points="373.792,-135 517.792,-135 "/>
<text text-anchor="start" x="380.792" y="-122" font-family="ArialMT" font-size="10.00">body </text>
<text text-anchor="start" x="405.255" y="-122" font-family="Arial ItalicMT" font-size="10.00" fill="#999999">string (1024) ∗</text>
<text text-anchor="start" x="380.792" y="-109" font-family="ArialMT" font-size="10.00">deleted_at </text>
<text text-anchor="start" x="430.28" y="-109" font-family="Arial ItalicMT" font-size="10.00" fill="#999999">datetime</text>
</g>
<!-- m_Book&#45;&gt;m_Comment -->
<g id="edge8" class="edge"><title>m_Book&#45;&gt;m_Comment</title>
<path fill="none" stroke="black" d="M448.527,-192.223C448.131,-182.857 447.742,-173.638 447.386,-165.225"/>
<ellipse fill="none" stroke="black" cx="448.638" cy="-194.854" rx="2.4" ry="2.4"/>
<ellipse fill="black" stroke="black" cx="447.027" cy="-156.711" rx="2.4" ry="2.4"/>
<polygon fill="black" stroke="black" points="449.479,-165.015 447.128,-159.109 445.283,-165.192 449.479,-165.015"/>
</g>
<!-- m_Copy -->
<g id="node4" class="node"><title>m_Copy</title>
<path fill="none" stroke="black" d="M39.7922,-92.5C39.7922,-92.5 159.792,-92.5 159.792,-92.5 165.792,-92.5 171.792,-98.5 171.792,-104.5 171.792,-104.5 171.792,-148.5 171.792,-148.5 171.792,-154.5 165.792,-160.5 159.792,-160.5 159.792,-160.5 39.7922,-160.5 39.7922,-160.5 33.7922,-160.5 27.7922,-154.5 27.7922,-148.5 27.7922,-148.5 27.7922,-104.5 27.7922,-104.5 27.7922,-98.5 33.7922,-92.5 39.7922,-92.5"/>
<text text-anchor="start" x="84.9526" y="-147.2" font-family="Arial BoldMT" font-size="11.00">Copy</text>
<polyline fill="none" stroke="black" points="27.7922,-141.5 171.792,-141.5 "/>
<text text-anchor="start" x="34.7922" y="-128" font-family="ArialMT" font-size="10.00">borrowings_count </text>
<text text-anchor="start" x="116.506" y="-128" font-family="Arial ItalicMT" font-size="10.00" fill="#999999">integer</text>
<text text-anchor="start" x="34.7922" y="-115" font-family="ArialMT" font-size="10.00">deleted_at </text>
<text text-anchor="start" x="84.2795" y="-115" font-family="Arial ItalicMT" font-size="10.00" fill="#999999">datetime</text>
<text text-anchor="start" x="34.7922" y="-102" font-family="ArialMT" font-size="10.00">number </text>
<text text-anchor="start" x="71.4768" y="-102" font-family="Arial ItalicMT" font-size="10.00" fill="#999999">integer</text>
</g>
<!-- m_Book&#45;&gt;m_Copy -->
<g id="edge9" class="edge"><title>m_Book&#45;&gt;m_Copy</title>
<path fill="none" stroke="black" d="M375.331,-202.05C372.181,-200.239 368.997,-198.546 365.792,-197 292.703,-161.743 264.713,-183.661 186.792,-161 185.437,-160.606 184.074,-160.2 182.704,-159.783"/>
<ellipse fill="none" stroke="black" cx="377.541" cy="-203.364" rx="2.40002" ry="2.40002"/>
<ellipse fill="black" stroke="black" cx="174.395" cy="-157.129" rx="2.40001" ry="2.40001"/>
<polygon fill="black" stroke="black" points="183.036,-157.685 176.681,-157.859 181.758,-161.685 183.036,-157.685"/>
</g>
<!-- m_Dislike -->
<g id="node5" class="node"><title>m_Dislike</title>
<path fill="none" stroke="#999999" d="M501.792,-10C501.792,-10 621.792,-10 621.792,-10 627.792,-10 633.792,-16 633.792,-22 633.792,-22 633.792,-34 633.792,-34 633.792,-40 627.792,-46 621.792,-46 621.792,-46 501.792,-46 501.792,-46 495.792,-46 489.792,-40 489.792,-34 489.792,-34 489.792,-22 489.792,-22 489.792,-16 495.792,-10 501.792,-10"/>
<text text-anchor="start" x="543.596" y="-24.2" font-family="Arial BoldMT" font-size="11.00" fill="#999999">Dislike</text>
</g>
<!-- m_Book&#45;&gt;m_Dislike -->
<g id="edge7" class="edge"><title>m_Book&#45;&gt;m_Dislike</title>
<path fill="none" stroke="black" d="M561.792,-125.5C561.006,-102.483 561.064,-76.359 561.287,-57.1024"/>
<ellipse fill="black" stroke="black" cx="561.407" cy="-48.4888" rx="2.4" ry="2.4"/>
<polygon fill="black" stroke="black" points="563.389,-56.9173 561.373,-50.8885 559.19,-56.8586 563.389,-56.9173"/>
</g>
<!-- m_Ebook -->
<g id="node6" class="node"><title>m_Ebook</title>
<path fill="none" stroke="#999999" d="M617.792,-108.5C617.792,-108.5 737.792,-108.5 737.792,-108.5 743.792,-108.5 749.792,-114.5 749.792,-120.5 749.792,-120.5 749.792,-132.5 749.792,-132.5 749.792,-138.5 743.792,-144.5 737.792,-144.5 737.792,-144.5 617.792,-144.5 617.792,-144.5 611.792,-144.5 605.792,-138.5 605.792,-132.5 605.792,-132.5 605.792,-120.5 605.792,-120.5 605.792,-114.5 611.792,-108.5 617.792,-108.5"/>
<text text-anchor="start" x="660.197" y="-122.7" font-family="Arial BoldMT" font-size="11.00" fill="#999999">Ebook</text>
</g>
<!-- m_Book&#45;&gt;m_Ebook -->
<g id="edge1" class="edge"><title>m_Book&#45;&gt;m_Ebook</title>
<path fill="none" stroke="#999999" d="M534.188,-217.729C575.116,-192.014 621.837,-162.658 650.575,-144.601"/>
<polygon fill="none" stroke="#999999" points="531.848,-214.239 523.921,-224.18 536.317,-221.352 531.848,-214.239"/>
</g>
<!-- m_Like -->
<g id="node7" class="node"><title>m_Like</title>
<path fill="none" stroke="#999999" d="M328.792,-10C328.792,-10 448.792,-10 448.792,-10 454.792,-10 460.792,-16 460.792,-22 460.792,-22 460.792,-34 460.792,-34 460.792,-40 454.792,-46 448.792,-46 448.792,-46 328.792,-46 328.792,-46 322.792,-46 316.792,-40 316.792,-34 316.792,-34 316.792,-22 316.792,-22 316.792,-16 322.792,-10 328.792,-10"/>
<text text-anchor="start" x="376.703" y="-24.2" font-family="Arial BoldMT" font-size="11.00" fill="#999999">Like</text>
</g>
<!-- m_Book&#45;&gt;m_Like -->
<g id="edge6" class="edge"><title>m_Book&#45;&gt;m_Like</title>
<path fill="none" stroke="black" d="M527.107,-208.738C547.035,-185.879 562.833,-157.971 561.792,-127.5"/>
<ellipse fill="none" stroke="black" cx="525.473" cy="-210.571" rx="2.40002" ry="2.40002"/>
<path fill="none" stroke="black" d="M561.792,-125.5C560.888,-99.0267 498.432,-69.4723 448.827,-50.1303"/>
<ellipse fill="black" stroke="black" cx="440.705" cy="-47.0208" rx="2.40001" ry="2.40001"/>
<polygon fill="black" stroke="black" points="449.301,-48.063 442.947,-47.8789 447.799,-51.9854 449.301,-48.063"/>
</g>
<!-- m_PrintedBook -->
<g id="node9" class="node"><title>m_PrintedBook</title>
<path fill="none" stroke="#999999" d="M963.792,-108.5C963.792,-108.5 1083.79,-108.5 1083.79,-108.5 1089.79,-108.5 1095.79,-114.5 1095.79,-120.5 1095.79,-120.5 1095.79,-132.5 1095.79,-132.5 1095.79,-138.5 1089.79,-144.5 1083.79,-144.5 1083.79,-144.5 963.792,-144.5 963.792,-144.5 957.792,-144.5 951.792,-138.5 951.792,-132.5 951.792,-132.5 951.792,-120.5 951.792,-120.5 951.792,-114.5 957.792,-108.5 963.792,-108.5"/>
<text text-anchor="start" x="991.83" y="-122.7" font-family="Arial BoldMT" font-size="11.00" fill="#999999">PrintedBook</text>
</g>
<!-- m_Book&#45;&gt;m_PrintedBook -->
<g id="edge2" class="edge"><title>m_Book&#45;&gt;m_PrintedBook</title>
<path fill="none" stroke="#999999" d="M535.771,-254.769C633.454,-236.712 799.054,-203.241 937.792,-161 952.968,-156.38 969.267,-150.323 983.552,-144.632"/>
<polygon fill="none" stroke="#999999" points="534.953,-250.648 523.909,-256.947 536.47,-258.91 534.953,-250.648"/>
</g>
<!-- m_Vote -->
<g id="node11" class="node"><title>m_Vote</title>
<path fill="none" stroke="black" d="M212.792,-99C212.792,-99 332.792,-99 332.792,-99 338.792,-99 344.792,-105 344.792,-111 344.792,-111 344.792,-142 344.792,-142 344.792,-148 338.792,-154 332.792,-154 332.792,-154 212.792,-154 212.792,-154 206.792,-154 200.792,-148 200.792,-142 200.792,-142 200.792,-111 200.792,-111 200.792,-105 206.792,-99 212.792,-99"/>
<text text-anchor="start" x="259.779" y="-140.7" font-family="Arial BoldMT" font-size="11.00">Vote</text>
<polyline fill="none" stroke="black" points="200.792,-135 344.792,-135 "/>
<text text-anchor="start" x="207.792" y="-122" font-family="ArialMT" font-size="10.00">deleted_at </text>
<text text-anchor="start" x="257.28" y="-122" font-family="Arial ItalicMT" font-size="10.00" fill="#999999">datetime</text>
<text text-anchor="start" x="207.792" y="-109" font-family="ArialMT" font-size="10.00">type </text>
<text text-anchor="start" x="229.472" y="-109" font-family="Arial ItalicMT" font-size="10.00" fill="#999999">string</text>
</g>
<!-- m_Book&#45;&gt;m_Vote -->
<g id="edge5" class="edge"><title>m_Book&#45;&gt;m_Vote</title>
<path fill="none" stroke="black" d="M375.816,-205.044C372.442,-202.31 369.09,-199.618 365.792,-197 350.486,-184.846 333.431,-171.927 318.15,-160.568"/>
<ellipse fill="none" stroke="black" cx="377.923" cy="-206.757" rx="2.40002" ry="2.40002"/>
<ellipse fill="none" stroke="black" cx="311.312" cy="-155.505" rx="2.40001" ry="2.40001"/>
<polygon fill="black" stroke="black" points="319.313,-158.816 313.241,-156.933 316.814,-162.192 319.313,-158.816"/>
</g>
<!-- m_Writer -->
<g id="node12" class="node"><title>m_Writer</title>
<path fill="none" stroke="black" d="M790.792,-105.5C790.792,-105.5 910.792,-105.5 910.792,-105.5 916.792,-105.5 922.792,-111.5 922.792,-117.5 922.792,-117.5 922.792,-135.5 922.792,-135.5 922.792,-141.5 916.792,-147.5 910.792,-147.5 910.792,-147.5 790.792,-147.5 790.792,-147.5 784.792,-147.5 778.792,-141.5 778.792,-135.5 778.792,-135.5 778.792,-117.5 778.792,-117.5 778.792,-111.5 784.792,-105.5 790.792,-105.5"/>
<text text-anchor="start" x="834.226" y="-134.2" font-family="Arial BoldMT" font-size="11.00">Writer</text>
<polyline fill="none" stroke="black" points="778.792,-128.5 922.792,-128.5 "/>
<text text-anchor="start" x="785.792" y="-115" font-family="ArialMT" font-size="10.00">name </text>
<text text-anchor="start" x="813.585" y="-115" font-family="Arial ItalicMT" font-size="10.00" fill="#999999">string</text>
</g>
<!-- m_Book&#45;&gt;m_Writer -->
<g id="edge10" class="edge"><title>m_Book&#45;&gt;m_Writer</title>
<path fill="none" stroke="black" d="M534.179,-241.889C597.474,-220.448 686.949,-189.642 764.792,-161 772.917,-158.01 781.444,-154.791 789.84,-151.571"/>
<ellipse fill="none" stroke="black" cx="526.132" cy="-244.612" rx="2.40001" ry="2.40001"/>
<polygon fill="black" stroke="black" points="533.416,-239.93 528.405,-243.843 534.762,-243.909 533.416,-239.93"/>
<ellipse fill="none" stroke="black" cx="797.742" cy="-148.523" rx="2.40001" ry="2.40001"/>
<polygon fill="black" stroke="black" points="790.661,-153.505 795.503,-149.386 789.149,-149.586 790.661,-153.505"/>
</g>
<!-- m_Borrowing -->
<g id="node2" class="node"><title>m_Borrowing</title>
<path fill="none" stroke="black" d="M39.7922,-0.5C39.7922,-0.5 159.792,-0.5 159.792,-0.5 165.792,-0.5 171.792,-6.5 171.792,-12.5 171.792,-12.5 171.792,-43.5 171.792,-43.5 171.792,-49.5 165.792,-55.5 159.792,-55.5 159.792,-55.5 39.7922,-55.5 39.7922,-55.5 33.7922,-55.5 27.7922,-49.5 27.7922,-43.5 27.7922,-43.5 27.7922,-12.5 27.7922,-12.5 27.7922,-6.5 33.7922,-0.5 39.7922,-0.5"/>
<text text-anchor="start" x="73.0315" y="-42.2" font-family="Arial BoldMT" font-size="11.00">Borrowing</text>
<polyline fill="none" stroke="black" points="27.7922,-36.5 171.792,-36.5 "/>
<text text-anchor="start" x="34.7922" y="-23.5" font-family="ArialMT" font-size="10.00">borrowed_at </text>
<text text-anchor="start" x="93.1614" y="-23.5" font-family="Arial ItalicMT" font-size="10.00" fill="#999999">datetime</text>
<text text-anchor="start" x="34.7922" y="-10.5" font-family="ArialMT" font-size="10.00">deleted_at </text>
<text text-anchor="start" x="84.2795" y="-10.5" font-family="Arial ItalicMT" font-size="10.00" fill="#999999">datetime</text>
</g>
<!-- m_Copy&#45;&gt;m_Borrowing -->
<g id="edge15" class="edge"><title>m_Copy&#45;&gt;m_Borrowing</title>
<path fill="none" stroke="black" d="M99.7922,-87.4463C99.7922,-80.6129 99.7922,-73.4937 99.7922,-66.6712"/>
<ellipse fill="none" stroke="black" cx="99.7923" cy="-89.8902" rx="2.4" ry="2.4"/>
<ellipse fill="black" stroke="black" cx="99.7922" cy="-57.9726" rx="2.4" ry="2.4"/>
<polygon fill="black" stroke="black" points="101.892,-66.3725 99.7923,-60.3726 97.6923,-66.3726 101.892,-66.3725"/>
</g>
<!-- m_Location -->
<g id="node8" class="node"><title>m_Location</title>
<path fill="none" stroke="black" d="M33.7922,-249.5C33.7922,-249.5 153.792,-249.5 153.792,-249.5 159.792,-249.5 165.792,-255.5 165.792,-261.5 165.792,-261.5 165.792,-279.5 165.792,-279.5 165.792,-285.5 159.792,-291.5 153.792,-291.5 153.792,-291.5 33.7922,-291.5 33.7922,-291.5 27.7922,-291.5 21.7922,-285.5 21.7922,-279.5 21.7922,-279.5 21.7922,-261.5 21.7922,-261.5 21.7922,-255.5 27.7922,-249.5 33.7922,-249.5"/>
<text text-anchor="start" x="70.998" y="-278.2" font-family="Arial BoldMT" font-size="11.00">Location</text>
<polyline fill="none" stroke="black" points="21.7922,-272.5 165.792,-272.5 "/>
<text text-anchor="start" x="28.7922" y="-259" font-family="ArialMT" font-size="10.00">city </text>
<text text-anchor="start" x="46.5705" y="-259" font-family="Arial ItalicMT" font-size="10.00" fill="#999999">string (255) ∗</text>
</g>
<!-- m_Location&#45;&gt;m_Copy -->
<g id="edge14" class="edge"><title>m_Location&#45;&gt;m_Copy</title>
<path fill="none" stroke="black" d="M94.8541,-244.37C95.7051,-224.228 96.9201,-195.475 97.9318,-171.529"/>
<ellipse fill="none" stroke="black" cx="94.7405" cy="-247.058" rx="2.4" ry="2.4"/>
<ellipse fill="black" stroke="black" cx="98.2937" cy="-162.965" rx="2.4" ry="2.4"/>
<polygon fill="black" stroke="black" points="100.037,-171.446 98.1923,-165.363 95.8409,-171.269 100.037,-171.446"/>
</g>
<!-- m_PrintedBook&#45;&gt;m_Borrowing -->
<g id="edge11" class="edge"><title>m_PrintedBook&#45;&gt;m_Borrowing</title>
<path fill="none" stroke="black" stroke-dasharray="1,5" d="M982.676,-106.452C968.719,-100.81 952.844,-95.2719 937.792,-92 661.567,-31.9564 584.208,-82.6535 302.792,-56 263.338,-52.2632 219.755,-46.6615 183.118,-41.5275"/>
<ellipse fill="none" stroke="black" cx="985.112" cy="-107.453" rx="2.40001" ry="2.40001"/>
<ellipse fill="none" stroke="black" cx="174.36" cy="-40.2881" rx="2.4" ry="2.4"/>
<polygon fill="black" stroke="black" points="182.972,-39.3859 176.736,-40.6244 182.383,-43.5444 182.972,-39.3859"/>
</g>
<!-- m_User -->
<g id="node10" class="node"><title>m_User</title>
<path fill="none" stroke="black" d="M206.792,-230C206.792,-230 338.792,-230 338.792,-230 344.792,-230 350.792,-236 350.792,-242 350.792,-242 350.792,-299 350.792,-299 350.792,-305 344.792,-311 338.792,-311 338.792,-311 206.792,-311 206.792,-311 200.792,-311 194.792,-305 194.792,-299 194.792,-299 194.792,-242 194.792,-242 194.792,-236 200.792,-230 206.792,-230"/>
<text text-anchor="start" x="259.18" y="-297.7" font-family="Arial BoldMT" font-size="11.00">User</text>
<polyline fill="none" stroke="black" points="194.792,-292 350.792,-292 "/>
<text text-anchor="start" x="201.792" y="-279" font-family="ArialMT" font-size="10.00">email </text>
<text text-anchor="start" x="228.467" y="-279" font-family="Arial ItalicMT" font-size="10.00" fill="#999999">string (255) ∗ U</text>
<text text-anchor="start" x="201.792" y="-266" font-family="ArialMT" font-size="10.00">login_token </text>
<text text-anchor="start" x="255.723" y="-266" font-family="Arial ItalicMT" font-size="10.00" fill="#999999">string</text>
<text text-anchor="start" x="201.633" y="-253" font-family="ArialMT" font-size="10.00">login_token_valid_until </text>
<text text-anchor="start" x="305.597" y="-253" font-family="Arial ItalicMT" font-size="10.00" fill="#999999">datetime</text>
<text text-anchor="start" x="201.792" y="-240" font-family="ArialMT" font-size="10.00">name </text>
<text text-anchor="start" x="229.585" y="-240" font-family="Arial ItalicMT" font-size="10.00" fill="#999999">string (100)</text>
</g>
<!-- m_User&#45;&gt;m_Borrowing -->
<g id="edge16" class="edge"><title>m_User&#45;&gt;m_Borrowing</title>
<path fill="none" stroke="black" d="M226.739,-226.549C212.831,-215.493 196.943,-204.589 180.792,-197 111.679,-164.526 60.7991,-220.384 12.7922,-161 -6.48722,-137.152 -1.15167,-119.313 12.7922,-92 18.688,-80.4514 27.7991,-70.5286 37.944,-62.2005"/>
<ellipse fill="none" stroke="black" cx="228.739" cy="-228.162" rx="2.40002" ry="2.40002"/>
<ellipse fill="black" stroke="black" cx="44.7498" cy="-57.0309" rx="2.40001" ry="2.40001"/>
<polygon fill="black" stroke="black" points="39.3309,-63.7841 42.8386,-58.4826 36.7904,-60.4396 39.3309,-63.7841"/>
</g>
<!-- m_User&#45;&gt;m_Comment -->
<g id="edge12" class="edge"><title>m_User&#45;&gt;m_Comment</title>
<path fill="none" stroke="black" d="M324.824,-226.792C350.48,-205.733 380.972,-180.705 404.924,-161.045"/>
<ellipse fill="none" stroke="black" cx="322.837" cy="-228.422" rx="2.40002" ry="2.40002"/>
<ellipse fill="black" stroke="black" cx="411.576" cy="-155.585" rx="2.40001" ry="2.40001"/>
<polygon fill="black" stroke="black" points="406.416,-162.537 409.721,-157.107 403.751,-159.291 406.416,-162.537"/>
</g>
<!-- m_User&#45;&gt;m_Vote -->
<g id="edge13" class="edge"><title>m_User&#45;&gt;m_Vote</title>
<path fill="none" stroke="black" d="M272.792,-225.063C272.792,-205.837 272.792,-183.575 272.792,-165.175"/>
<ellipse fill="none" stroke="black" cx="272.792" cy="-227.545" rx="2.4" ry="2.4"/>
<ellipse fill="black" stroke="black" cx="272.792" cy="-156.679" rx="2.4" ry="2.4"/>
<polygon fill="black" stroke="black" points="274.892,-165.079 272.792,-159.079 270.692,-165.08 274.892,-165.079"/>
</g>
<!-- m_Vote&#45;&gt;m_Dislike -->
<g id="edge3" class="edge"><title>m_Vote&#45;&gt;m_Dislike</title>
<path fill="none" stroke="#999999" d="M352.057,-94.7261C354.662,-93.7955 357.246,-92.8844 359.792,-92 410.786,-74.2914 424.263,-72.0847 475.792,-56 486.1,-52.7826 497.098,-49.3381 507.667,-46.0226"/>
<polygon fill="none" stroke="#999999" points="350.391,-90.8627 340.548,-98.909 353.261,-98.7574 350.391,-90.8627"/>
</g>
<!-- m_Vote&#45;&gt;m_Like -->
<g id="edge4" class="edge"><title>m_Vote&#45;&gt;m_Like</title>
<path fill="none" stroke="#999999" d="M314.124,-91.116C332.468,-75.8557 353.243,-58.5733 368.213,-46.1194"/>
<polygon fill="none" stroke="#999999" points="311.336,-87.9723 304.797,-98.8755 316.708,-94.4299 311.336,-87.9723"/>
</g>
</g>
</svg>
