<?xml version="1.0" encoding="UTF-8" standalone="no"?>
<!DOCTYPE svg PUBLIC "-//W3C//DTD SVG 1.1//EN"
 "http://www.w3.org/Graphics/SVG/1.1/DTD/svg11.dtd">
<!-- Generated by graphviz version 2.38.0 (20140413.2041)
 -->
<!-- Title: Books Pages: 1 -->
<svg width="1408pt" height="425pt"
 viewBox="0.00 0.00 1407.60 424.60" xmlns="http://www.w3.org/2000/svg" xmlns:xlink="http://www.w3.org/1999/xlink">
<g id="graph0" class="graph" transform="scale(1 1) rotate(0) translate(28.8 395.8)">
<title>Books</title>
<polygon fill="white" stroke="none" points="-28.8,28.8 -28.8,-395.8 1378.8,-395.8 1378.8,28.8 -28.8,28.8"/>
<text text-anchor="middle" x="675" y="-352.6" font-family="Arial BoldMT" font-size="13.00">Class Diagram Books</text>
<!-- m_ActiveRecord::InternalMetadata -->
<g id="node1" class="node"><title>m_ActiveRecord::InternalMetadata</title>
<path fill="none" stroke="black" d="M12,-243C12,-243 152,-243 152,-243 158,-243 164,-249 164,-255 164,-255 164,-273 164,-273 164,-279 158,-285 152,-285 152,-285 12,-285 12,-285 6,-285 0,-279 0,-273 0,-273 0,-255 0,-255 0,-249 6,-243 12,-243"/>
<text text-anchor="start" x="4.95972" y="-271.7" font-family="Arial BoldMT" font-size="11.00">ActiveRecord::InternalMetadata</text>
<polyline fill="none" stroke="black" points="0,-266 164,-266 "/>
<text text-anchor="start" x="17" y="-252.5" font-family="ArialMT" font-size="10.00">value </text>
<text text-anchor="start" x="43.6846" y="-252.5" font-family="Arial ItalicMT" font-size="10.00" fill="#999999">string</text>
</g>
<!-- m_ActiveRecord::SchemaMigration -->
<g id="node2" class="node"><title>m_ActiveRecord::SchemaMigration</title>
<path fill="none" stroke="black" d="M205.5,-246C205.5,-246 348.5,-246 348.5,-246 354.5,-246 360.5,-252 360.5,-258 360.5,-258 360.5,-270 360.5,-270 360.5,-276 354.5,-282 348.5,-282 348.5,-282 205.5,-282 205.5,-282 199.5,-282 193.5,-276 193.5,-270 193.5,-270 193.5,-258 193.5,-258 193.5,-252 199.5,-246 205.5,-246"/>
<text text-anchor="start" x="198.94" y="-260.2" font-family="Arial BoldMT" font-size="11.00">ActiveRecord::SchemaMigration</text>
</g>
<!-- m_Book -->
<g id="node3" class="node"><title>m_Book</title>
<path fill="none" stroke="black" d="M760,-197.5C760,-197.5 880,-197.5 880,-197.5 886,-197.5 892,-203.5 892,-209.5 892,-209.5 892,-318.5 892,-318.5 892,-324.5 886,-330.5 880,-330.5 880,-330.5 760,-330.5 760,-330.5 754,-330.5 748,-324.5 748,-318.5 748,-318.5 748,-209.5 748,-209.5 748,-203.5 754,-197.5 760,-197.5"/>
<text text-anchor="start" x="805.464" y="-317.2" font-family="Arial BoldMT" font-size="11.00">Book</text>
<polyline fill="none" stroke="black" points="748,-311.5 892,-311.5 "/>
<text text-anchor="start" x="755" y="-298.5" font-family="ArialMT" font-size="10.00">comments_count </text>
<text text-anchor="start" x="833.926" y="-298.5" font-family="Arial ItalicMT" font-size="10.00" fill="#999999">integer</text>
<text text-anchor="start" x="755" y="-285.5" font-family="ArialMT" font-size="10.00">deleted_at </text>
<text text-anchor="start" x="804.487" y="-285.5" font-family="Arial ItalicMT" font-size="10.00" fill="#999999">datetime</text>
<text text-anchor="start" x="755" y="-272.5" font-family="ArialMT" font-size="10.00">dislikes_count </text>
<text text-anchor="start" x="820.591" y="-272.5" font-family="Arial ItalicMT" font-size="10.00" fill="#999999">integer</text>
<text text-anchor="start" x="755" y="-259.5" font-family="ArialMT" font-size="10.00">likes_count </text>
<text text-anchor="start" x="807.808" y="-259.5" font-family="Arial ItalicMT" font-size="10.00" fill="#999999">integer</text>
<text text-anchor="start" x="755" y="-246.5" font-family="ArialMT" font-size="10.00">link </text>
<text text-anchor="start" x="772.783" y="-246.5" font-family="Arial ItalicMT" font-size="10.00" fill="#999999">string (2048)</text>
<text text-anchor="start" x="755" y="-233.5" font-family="ArialMT" font-size="10.00">summary </text>
<text text-anchor="start" x="798.892" y="-233.5" font-family="Arial ItalicMT" font-size="10.00" fill="#999999">string (2048)</text>
<text text-anchor="start" x="755" y="-220.5" font-family="ArialMT" font-size="10.00">title </text>
<text text-anchor="start" x="773.34" y="-220.5" font-family="Arial ItalicMT" font-size="10.00" fill="#999999">string (255) ∗</text>
<text text-anchor="start" x="755" y="-207.5" font-family="ArialMT" font-size="10.00">type </text>
<text text-anchor="start" x="776.68" y="-207.5" font-family="Arial ItalicMT" font-size="10.00" fill="#999999">string</text>
</g>
<!-- m_Comment -->
<g id="node5" class="node"><title>m_Comment</title>
<path fill="none" stroke="black" d="M754,-99C754,-99 874,-99 874,-99 880,-99 886,-105 886,-111 886,-111 886,-142 886,-142 886,-148 880,-154 874,-154 874,-154 754,-154 754,-154 748,-154 742,-148 742,-142 742,-142 742,-111 742,-111 742,-105 748,-99 754,-99"/>
<text text-anchor="start" x="788.16" y="-140.7" font-family="Arial BoldMT" font-size="11.00">Comment</text>
<polyline fill="none" stroke="black" points="742,-135 886,-135 "/>
<text text-anchor="start" x="749" y="-122" font-family="ArialMT" font-size="10.00">body </text>
<text text-anchor="start" x="773.463" y="-122" font-family="Arial ItalicMT" font-size="10.00" fill="#999999">string (1024) ∗</text>
<text text-anchor="start" x="749" y="-109" font-family="ArialMT" font-size="10.00">deleted_at </text>
<text text-anchor="start" x="798.487" y="-109" font-family="Arial ItalicMT" font-size="10.00" fill="#999999">datetime</text>
</g>
<!-- m_Book&#45;&gt;m_Comment -->
<g id="edge8" class="edge"><title>m_Book&#45;&gt;m_Comment</title>
<path fill="none" stroke="black" d="M816.866,-192.234C816.453,-182.907 816.044,-173.658 815.669,-165.193"/>
<ellipse fill="none" stroke="black" cx="816.982" cy="-194.837" rx="2.4" ry="2.4"/>
<ellipse fill="black" stroke="black" cx="815.289" cy="-156.601" rx="2.4" ry="2.4"/>
<polygon fill="black" stroke="black" points="817.758,-164.9 815.395,-158.999 813.562,-165.086 817.758,-164.9"/>
</g>
<!-- m_Copy -->
<g id="node6" class="node"><title>m_Copy</title>
<path fill="none" stroke="black" d="M408,-92.5C408,-92.5 528,-92.5 528,-92.5 534,-92.5 540,-98.5 540,-104.5 540,-104.5 540,-148.5 540,-148.5 540,-154.5 534,-160.5 528,-160.5 528,-160.5 408,-160.5 408,-160.5 402,-160.5 396,-154.5 396,-148.5 396,-148.5 396,-104.5 396,-104.5 396,-98.5 402,-92.5 408,-92.5"/>
<text text-anchor="start" x="453.16" y="-147.2" font-family="Arial BoldMT" font-size="11.00">Copy</text>
<polyline fill="none" stroke="black" points="396,-141.5 540,-141.5 "/>
<text text-anchor="start" x="403" y="-128" font-family="ArialMT" font-size="10.00">borrowings_count </text>
<text text-anchor="start" x="484.714" y="-128" font-family="Arial ItalicMT" font-size="10.00" fill="#999999">integer</text>
<text text-anchor="start" x="403" y="-115" font-family="ArialMT" font-size="10.00">deleted_at </text>
<text text-anchor="start" x="452.487" y="-115" font-family="Arial ItalicMT" font-size="10.00" fill="#999999">datetime</text>
<text text-anchor="start" x="403" y="-102" font-family="ArialMT" font-size="10.00">number </text>
<text text-anchor="start" x="439.685" y="-102" font-family="Arial ItalicMT" font-size="10.00" fill="#999999">integer</text>
</g>
<!-- m_Book&#45;&gt;m_Copy -->
<g id="edge9" class="edge"><title>m_Book&#45;&gt;m_Copy</title>
<path fill="none" stroke="black" d="M743.29,-202.103C739.882,-200.267 736.446,-198.554 733,-197 659.028,-163.634 631.876,-183.812 554,-161 553.025,-160.714 552.045,-160.422 551.061,-160.124"/>
<ellipse fill="none" stroke="black" cx="745.822" cy="-203.513" rx="2.40002" ry="2.40002"/>
<ellipse fill="black" stroke="black" cx="542.707" cy="-157.456" rx="2.40001" ry="2.40001"/>
<polygon fill="black" stroke="black" points="551.347,-158.011 544.993,-158.186 550.07,-162.012 551.347,-158.011"/>
</g>
<!-- m_Dislike -->
<g id="node7" class="node"><title>m_Dislike</title>
<path fill="none" stroke="#999999" d="M870,-10C870,-10 990,-10 990,-10 996,-10 1002,-16 1002,-22 1002,-22 1002,-34 1002,-34 1002,-40 996,-46 990,-46 990,-46 870,-46 870,-46 864,-46 858,-40 858,-34 858,-34 858,-22 858,-22 858,-16 864,-10 870,-10"/>
<text text-anchor="start" x="911.803" y="-24.2" font-family="Arial BoldMT" font-size="11.00" fill="#999999">Dislike</text>
</g>
<!-- m_Book&#45;&gt;m_Dislike -->
<g id="edge7" class="edge"><title>m_Book&#45;&gt;m_Dislike</title>
<path fill="none" stroke="black" d="M880.95,-193.365C888.126,-182.973 894.748,-172.033 900,-161 916.086,-127.208 923.768,-84.3777 927.277,-56.8306"/>
<ellipse fill="none" stroke="black" cx="879.445" cy="-195.509" rx="2.40002" ry="2.40002"/>
<ellipse fill="black" stroke="black" cx="928.259" cy="-48.4152" rx="2.4" ry="2.4"/>
<polygon fill="black" stroke="black" points="929.371,-57.002 927.981,-50.799 925.199,-56.515 929.371,-57.002"/>
</g>
<!-- m_Ebook -->
<g id="node8" class="node"><title>m_Ebook</title>
<path fill="none" stroke="#999999" d="M1218,-108.5C1218,-108.5 1338,-108.5 1338,-108.5 1344,-108.5 1350,-114.5 1350,-120.5 1350,-120.5 1350,-132.5 1350,-132.5 1350,-138.5 1344,-144.5 1338,-144.5 1338,-144.5 1218,-144.5 1218,-144.5 1212,-144.5 1206,-138.5 1206,-132.5 1206,-132.5 1206,-120.5 1206,-120.5 1206,-114.5 1212,-108.5 1218,-108.5"/>
<text text-anchor="start" x="1260.41" y="-122.7" font-family="Arial BoldMT" font-size="11.00" fill="#999999">Ebook</text>
</g>
<!-- m_Book&#45;&gt;m_Ebook -->
<g id="edge1" class="edge"><title>m_Book&#45;&gt;m_Ebook</title>
<path fill="none" stroke="#999999" d="M902.923,-198.319C903.947,-197.864 904.973,-197.424 906,-197 1021.15,-149.44 1062.85,-190.078 1184,-161 1201.35,-156.835 1219.96,-150.599 1236,-144.632"/>
<polygon fill="none" stroke="#999999" points="900.944,-194.612 892.057,-203.704 904.674,-202.138 900.944,-194.612"/>
</g>
<!-- m_Like -->
<g id="node9" class="node"><title>m_Like</title>
<path fill="none" stroke="#999999" d="M1102,-10C1102,-10 1222,-10 1222,-10 1228,-10 1234,-16 1234,-22 1234,-22 1234,-34 1234,-34 1234,-40 1228,-46 1222,-46 1222,-46 1102,-46 1102,-46 1096,-46 1090,-40 1090,-34 1090,-34 1090,-22 1090,-22 1090,-16 1096,-10 1102,-10"/>
<text text-anchor="start" x="1149.91" y="-24.2" font-family="Arial BoldMT" font-size="11.00" fill="#999999">Like</text>
</g>
<!-- m_Book&#45;&gt;m_Like -->
<g id="edge6" class="edge"><title>m_Book&#45;&gt;m_Like</title>
<path fill="none" stroke="black" d="M896.426,-201.551C899.594,-199.906 902.79,-198.38 906,-197 999.849,-156.664 1058.67,-231.07 1133,-161 1161.19,-134.43 1165.08,-87.2357 1164.29,-57.066"/>
<ellipse fill="none" stroke="black" cx="894.238" cy="-202.728" rx="2.40002" ry="2.40002"/>
<ellipse fill="black" stroke="black" cx="1163.89" cy="-48.437" rx="2.4" ry="2.4"/>
<polygon fill="black" stroke="black" points="1166.38,-56.7296 1164,-50.8344 1162.18,-56.926 1166.38,-56.7296"/>
</g>
<!-- m_PrintedBook -->
<g id="node11" class="node"><title>m_PrintedBook</title>
<path fill="none" stroke="#999999" d="M986,-108.5C986,-108.5 1106,-108.5 1106,-108.5 1112,-108.5 1118,-114.5 1118,-120.5 1118,-120.5 1118,-132.5 1118,-132.5 1118,-138.5 1112,-144.5 1106,-144.5 1106,-144.5 986,-144.5 986,-144.5 980,-144.5 974,-138.5 974,-132.5 974,-132.5 974,-120.5 974,-120.5 974,-114.5 980,-108.5 986,-108.5"/>
<text text-anchor="start" x="1014.04" y="-122.7" font-family="Arial BoldMT" font-size="11.00" fill="#999999">PrintedBook</text>
</g>
<!-- m_Book&#45;&gt;m_PrintedBook -->
<g id="edge2" class="edge"><title>m_Book&#45;&gt;m_PrintedBook</title>
<path fill="none" stroke="#999999" d="M902.081,-199.481C903.391,-198.64 904.698,-197.812 906,-197 938.579,-176.68 977.915,-157.589 1006.59,-144.578"/>
<polygon fill="none" stroke="#999999" points="899.691,-196.027 892.016,-206.162 904.336,-203.025 899.691,-196.027"/>
</g>
<!-- m_Vote -->
<g id="node13" class="node"><title>m_Vote</title>
<path fill="none" stroke="black" d="M581,-99C581,-99 701,-99 701,-99 707,-99 713,-105 713,-111 713,-111 713,-142 713,-142 713,-148 707,-154 701,-154 701,-154 581,-154 581,-154 575,-154 569,-148 569,-142 569,-142 569,-111 569,-111 569,-105 575,-99 581,-99"/>
<text text-anchor="start" x="627.987" y="-140.7" font-family="Arial BoldMT" font-size="11.00">Vote</text>
<polyline fill="none" stroke="black" points="569,-135 713,-135 "/>
<text text-anchor="start" x="576" y="-122" font-family="ArialMT" font-size="10.00">deleted_at </text>
<text text-anchor="start" x="625.487" y="-122" font-family="Arial ItalicMT" font-size="10.00" fill="#999999">datetime</text>
<text text-anchor="start" x="576" y="-109" font-family="ArialMT" font-size="10.00">type </text>
<text text-anchor="start" x="597.68" y="-109" font-family="Arial ItalicMT" font-size="10.00" fill="#999999">string</text>
</g>
<!-- m_Book&#45;&gt;m_Vote -->
<g id="edge5" class="edge"><title>m_Book&#45;&gt;m_Vote</title>
<path fill="none" stroke="black" d="M743.621,-205.043C740.031,-202.324 736.477,-199.632 733,-197 717.39,-185.183 700.28,-172.251 685.093,-160.781"/>
<ellipse fill="none" stroke="black" cx="745.935" cy="-206.797" rx="2.40002" ry="2.40002"/>
<ellipse fill="none" stroke="black" cx="678.315" cy="-155.662" rx="2.40001" ry="2.40001"/>
<polygon fill="black" stroke="black" points="686.284,-159.049 680.23,-157.109 683.753,-162.4 686.284,-159.049"/>
</g>
<!-- m_Borrowing -->
<g id="node4" class="node"><title>m_Borrowing</title>
<path fill="none" stroke="black" d="M408,-0.5C408,-0.5 528,-0.5 528,-0.5 534,-0.5 540,-6.5 540,-12.5 540,-12.5 540,-43.5 540,-43.5 540,-49.5 534,-55.5 528,-55.5 528,-55.5 408,-55.5 408,-55.5 402,-55.5 396,-49.5 396,-43.5 396,-43.5 396,-12.5 396,-12.5 396,-6.5 402,-0.5 408,-0.5"/>
<text text-anchor="start" x="441.239" y="-42.2" font-family="Arial BoldMT" font-size="11.00">Borrowing</text>
<polyline fill="none" stroke="black" points="396,-36.5 540,-36.5 "/>
<text text-anchor="start" x="403" y="-23.5" font-family="ArialMT" font-size="10.00">borrowed_at </text>
<text text-anchor="start" x="461.369" y="-23.5" font-family="Arial ItalicMT" font-size="10.00" fill="#999999">datetime</text>
<text text-anchor="start" x="403" y="-10.5" font-family="ArialMT" font-size="10.00">deleted_at </text>
<text text-anchor="start" x="452.487" y="-10.5" font-family="Arial ItalicMT" font-size="10.00" fill="#999999">datetime</text>
</g>
<!-- m_Copy&#45;&gt;m_Borrowing -->
<g id="edge14" class="edge"><title>m_Copy&#45;&gt;m_Borrowing</title>
<path fill="none" stroke="black" d="M468,-87.4463C468,-80.6129 468,-73.4937 468,-66.6712"/>
<ellipse fill="none" stroke="black" cx="468" cy="-89.8902" rx="2.4" ry="2.4"/>
<ellipse fill="black" stroke="black" cx="468" cy="-57.9726" rx="2.4" ry="2.4"/>
<polygon fill="black" stroke="black" points="470.1,-66.3725 468,-60.3726 465.9,-66.3726 470.1,-66.3725"/>
</g>
<!-- m_Location -->
<g id="node10" class="node"><title>m_Location</title>
<path fill="none" stroke="black" d="M402,-243C402,-243 522,-243 522,-243 528,-243 534,-249 534,-255 534,-255 534,-273 534,-273 534,-279 528,-285 522,-285 522,-285 402,-285 402,-285 396,-285 390,-279 390,-273 390,-273 390,-255 390,-255 390,-249 396,-243 402,-243"/>
<text text-anchor="start" x="439.206" y="-271.7" font-family="Arial BoldMT" font-size="11.00">Location</text>
<polyline fill="none" stroke="black" points="390,-266 534,-266 "/>
<text text-anchor="start" x="397" y="-252.5" font-family="ArialMT" font-size="10.00">city </text>
<text text-anchor="start" x="414.778" y="-252.5" font-family="Arial ItalicMT" font-size="10.00" fill="#999999">string (255) ∗</text>
</g>
<!-- m_Location&#45;&gt;m_Copy -->
<g id="edge13" class="edge"><title>m_Location&#45;&gt;m_Copy</title>
<path fill="none" stroke="black" d="M463.121,-237.675C463.943,-219.131 465.078,-193.491 466.047,-171.611"/>
<ellipse fill="none" stroke="black" cx="463.004" cy="-240.317" rx="2.4" ry="2.4"/>
<ellipse fill="black" stroke="black" cx="466.429" cy="-162.967" rx="2.4" ry="2.4"/>
<polygon fill="black" stroke="black" points="468.156,-171.452 466.323,-165.365 463.96,-171.266 468.156,-171.452"/>
</g>
<!-- m_PrintedBook&#45;&gt;m_Borrowing -->
<g id="edge10" class="edge"><title>m_PrintedBook&#45;&gt;m_Borrowing</title>
<path fill="none" stroke="black" stroke-dasharray="1,5" d="M971.938,-107.287C948.964,-101.966 923.506,-96.4033 900,-92 779.263,-69.3828 638.257,-50.1528 551.036,-39.086"/>
<ellipse fill="none" stroke="black" cx="974.463" cy="-107.874" rx="2.40001" ry="2.40001"/>
<ellipse fill="none" stroke="black" cx="542.527" cy="-38.0119" rx="2.4" ry="2.4"/>
<polygon fill="black" stroke="black" points="551.124,-36.9805 544.908,-38.3125 550.598,-41.1475 551.124,-36.9805"/>
</g>
<!-- m_User -->
<g id="node12" class="node"><title>m_User</title>
<path fill="none" stroke="black" d="M575,-223.5C575,-223.5 707,-223.5 707,-223.5 713,-223.5 719,-229.5 719,-235.5 719,-235.5 719,-292.5 719,-292.5 719,-298.5 713,-304.5 707,-304.5 707,-304.5 575,-304.5 575,-304.5 569,-304.5 563,-298.5 563,-292.5 563,-292.5 563,-235.5 563,-235.5 563,-229.5 569,-223.5 575,-223.5"/>
<text text-anchor="start" x="627.388" y="-291.2" font-family="Arial BoldMT" font-size="11.00">User</text>
<polyline fill="none" stroke="black" points="563,-285.5 719,-285.5 "/>
<text text-anchor="start" x="570" y="-272.5" font-family="ArialMT" font-size="10.00">email </text>
<text text-anchor="start" x="596.675" y="-272.5" font-family="Arial ItalicMT" font-size="10.00" fill="#999999">string (255) ∗ U</text>
<text text-anchor="start" x="570" y="-259.5" font-family="ArialMT" font-size="10.00">login_token </text>
<text text-anchor="start" x="623.931" y="-259.5" font-family="Arial ItalicMT" font-size="10.00" fill="#999999">string</text>
<text text-anchor="start" x="569.84" y="-246.5" font-family="ArialMT" font-size="10.00">login_token_valid_until </text>
<text text-anchor="start" x="673.805" y="-246.5" font-family="Arial ItalicMT" font-size="10.00" fill="#999999">datetime</text>
<text text-anchor="start" x="570" y="-233.5" font-family="ArialMT" font-size="10.00">name </text>
<text text-anchor="start" x="597.793" y="-233.5" font-family="Arial ItalicMT" font-size="10.00" fill="#999999">string (100)</text>
</g>
<!-- m_User&#45;&gt;m_Borrowing -->
<g id="edge15" class="edge"><title>m_User&#45;&gt;m_Borrowing</title>
<path fill="none" stroke="black" d="M589.108,-220.652C576.265,-211.767 562.122,-203.218 548,-197 478.51,-166.404 428.698,-220.075 381,-161 361.735,-137.14 367.056,-119.313 381,-92 386.896,-80.4514 396.007,-70.5286 406.152,-62.2005"/>
<ellipse fill="none" stroke="black" cx="591.085" cy="-222.039" rx="2.40002" ry="2.40002"/>
<ellipse fill="black" stroke="black" cx="412.958" cy="-57.0309" rx="2.40001" ry="2.40001"/>
<polygon fill="black" stroke="black" points="407.539,-63.7841 411.046,-58.4826 404.998,-60.4396 407.539,-63.7841"/>
</g>
<!-- m_User&#45;&gt;m_Comment -->
<g id="edge11" class="edge"><title>m_User&#45;&gt;m_Comment</title>
<path fill="none" stroke="black" d="M695.555,-220.27C720.028,-201.103 748.469,-178.826 771.347,-160.907"/>
<ellipse fill="none" stroke="black" cx="693.393" cy="-221.964" rx="2.40002" ry="2.40002"/>
<ellipse fill="black" stroke="black" cx="778.252" cy="-155.499" rx="2.40001" ry="2.40001"/>
<polygon fill="black" stroke="black" points="772.934,-162.332 776.363,-156.979 770.344,-159.025 772.934,-162.332"/>
</g>
<!-- m_User&#45;&gt;m_Vote -->
<g id="edge12" class="edge"><title>m_User&#45;&gt;m_Vote</title>
<path fill="none" stroke="black" d="M641,-218.392C641,-201.084 641,-181.485 641,-164.929"/>
<ellipse fill="none" stroke="black" cx="641" cy="-221.044" rx="2.4" ry="2.4"/>
<ellipse fill="black" stroke="black" cx="641" cy="-156.419" rx="2.4" ry="2.4"/>
<polygon fill="black" stroke="black" points="643.1,-164.819 641,-158.819 638.9,-164.819 643.1,-164.819"/>
</g>
<!-- m_Vote&#45;&gt;m_Dislike -->
<g id="edge3" class="edge"><title>m_Vote&#45;&gt;m_Dislike</title>
<path fill="none" stroke="#999999" d="M719.348,-94.7158C721.925,-93.7881 724.481,-92.8804 727,-92 775.073,-75.2008 830.307,-58.2062 871.012,-46.1085"/>
<polygon fill="none" stroke="#999999" points="717.787,-90.8147 707.966,-98.8885 720.678,-98.7015 717.787,-90.8147"/>
</g>
<!-- m_Vote&#45;&gt;m_Like -->
<g id="edge4" class="edge"><title>m_Vote&#45;&gt;m_Like</title>
<path fill="none" stroke="#999999" d="M715.45,-95.2209C719.329,-94.0461 723.194,-92.9616 727,-92 852.921,-60.1849 888.655,-75.8969 1017,-56 1040.79,-52.3126 1066.65,-47.6928 1089.87,-43.3225"/>
<polygon fill="none" stroke="#999999" points="713.946,-91.2932 703.823,-98.9846 716.533,-99.285 713.946,-91.2932"/>
</g>
<!-- m_primary::SchemaMigration -->
<g id="node14" class="node"><title>m_primary::SchemaMigration</title>
<path fill="none" stroke="black" d="M933,-246C933,-246 1053,-246 1053,-246 1059,-246 1065,-252 1065,-258 1065,-258 1065,-270 1065,-270 1065,-276 1059,-282 1053,-282 1053,-282 933,-282 933,-282 927,-282 921,-276 921,-270 921,-270 921,-258 921,-258 921,-252 927,-246 933,-246"/>
<text text-anchor="start" x="926.813" y="-260.2" font-family="Arial BoldMT" font-size="11.00">primary::SchemaMigration</text>
</g>
</g>
</svg>
