<?xml version="1.0" encoding="UTF-8" standalone="no"?>
<!DOCTYPE svg PUBLIC "-//W3C//DTD SVG 1.1//EN"
 "http://www.w3.org/Graphics/SVG/1.1/DTD/svg11.dtd">
<!-- Generated by graphviz version 2.38.0 (20140413.2041)
 -->
<!-- Title: Books Pages: 1 -->
<svg width="1522pt" height="464pt"
 viewBox="0.00 0.00 1521.60 463.60" xmlns="http://www.w3.org/2000/svg" xmlns:xlink="http://www.w3.org/1999/xlink">
<g id="graph0" class="graph" transform="scale(1 1) rotate(0) translate(28.8 434.8)">
<title>Books</title>
<polygon fill="white" stroke="none" points="-28.8,28.8 -28.8,-434.8 1492.8,-434.8 1492.8,28.8 -28.8,28.8"/>
<text text-anchor="middle" x="732" y="-391.6" font-family="Arial BoldMT" font-size="13.00">Class Diagram Books</text>
<!-- m_ActiveRecord::InternalMetadata -->
<g id="node1" class="node"><title>m_ActiveRecord::InternalMetadata</title>
<path fill="none" stroke="black" d="M12,-262.5C12,-262.5 152,-262.5 152,-262.5 158,-262.5 164,-268.5 164,-274.5 164,-274.5 164,-292.5 164,-292.5 164,-298.5 158,-304.5 152,-304.5 152,-304.5 12,-304.5 12,-304.5 6,-304.5 0,-298.5 0,-292.5 0,-292.5 0,-274.5 0,-274.5 0,-268.5 6,-262.5 12,-262.5"/>
<text text-anchor="start" x="4.95972" y="-291.2" font-family="Arial BoldMT" font-size="11.00">ActiveRecord::InternalMetadata</text>
<polyline fill="none" stroke="black" points="0,-285.5 164,-285.5 "/>
<text text-anchor="start" x="17" y="-272" font-family="ArialMT" font-size="10.00">value </text>
<text text-anchor="start" x="43.6846" y="-272" font-family="Arial ItalicMT" font-size="10.00" fill="#999999">string</text>
</g>
<!-- m_ActiveRecord::SchemaMigration -->
<g id="node2" class="node"><title>m_ActiveRecord::SchemaMigration</title>
<path fill="none" stroke="black" d="M205.5,-265.5C205.5,-265.5 348.5,-265.5 348.5,-265.5 354.5,-265.5 360.5,-271.5 360.5,-277.5 360.5,-277.5 360.5,-289.5 360.5,-289.5 360.5,-295.5 354.5,-301.5 348.5,-301.5 348.5,-301.5 205.5,-301.5 205.5,-301.5 199.5,-301.5 193.5,-295.5 193.5,-289.5 193.5,-289.5 193.5,-277.5 193.5,-277.5 193.5,-271.5 199.5,-265.5 205.5,-265.5"/>
<text text-anchor="start" x="198.94" y="-279.7" font-family="Arial BoldMT" font-size="11.00">ActiveRecord::SchemaMigration</text>
</g>
<!-- m_Book -->
<g id="node3" class="node"><title>m_Book</title>
<path fill="none" stroke="black" d="M760,-197.5C760,-197.5 880,-197.5 880,-197.5 886,-197.5 892,-203.5 892,-209.5 892,-209.5 892,-357.5 892,-357.5 892,-363.5 886,-369.5 880,-369.5 880,-369.5 760,-369.5 760,-369.5 754,-369.5 748,-363.5 748,-357.5 748,-357.5 748,-209.5 748,-209.5 748,-203.5 754,-197.5 760,-197.5"/>
<text text-anchor="start" x="805.464" y="-356.2" font-family="Arial BoldMT" font-size="11.00">Book</text>
<polyline fill="none" stroke="black" points="748,-350.5 892,-350.5 "/>
<text text-anchor="start" x="755" y="-337" font-family="ArialMT" font-size="10.00">comments_count </text>
<text text-anchor="start" x="833.926" y="-337" font-family="Arial ItalicMT" font-size="10.00" fill="#999999">integer</text>
<text text-anchor="start" x="755" y="-324" font-family="ArialMT" font-size="10.00">cover </text>
<text text-anchor="start" x="782.231" y="-324" font-family="Arial ItalicMT" font-size="10.00" fill="#999999">string</text>
<text text-anchor="start" x="755" y="-311" font-family="ArialMT" font-size="10.00">deleted_at </text>
<text text-anchor="start" x="804.487" y="-311" font-family="Arial ItalicMT" font-size="10.00" fill="#999999">datetime</text>
<text text-anchor="start" x="755" y="-298" font-family="ArialMT" font-size="10.00">dislikes_count </text>
<text text-anchor="start" x="820.591" y="-298" font-family="Arial ItalicMT" font-size="10.00" fill="#999999">integer</text>
<text text-anchor="start" x="755" y="-285" font-family="ArialMT" font-size="10.00">likes_count </text>
<text text-anchor="start" x="807.808" y="-285" font-family="Arial ItalicMT" font-size="10.00" fill="#999999">integer</text>
<text text-anchor="start" x="755" y="-272" font-family="ArialMT" font-size="10.00">link </text>
<text text-anchor="start" x="772.783" y="-272" font-family="Arial ItalicMT" font-size="10.00" fill="#999999">string (2048)</text>
<text text-anchor="start" x="755" y="-259" font-family="ArialMT" font-size="10.00">num_of_pages </text>
<text text-anchor="start" x="823.94" y="-259" font-family="Arial ItalicMT" font-size="10.00" fill="#999999">integer (2)</text>
<text text-anchor="start" x="755" y="-246" font-family="ArialMT" font-size="10.00">published_on </text>
<text text-anchor="start" x="817.275" y="-246" font-family="Arial ItalicMT" font-size="10.00" fill="#999999">date</text>
<text text-anchor="start" x="755" y="-233" font-family="ArialMT" font-size="10.00">summary </text>
<text text-anchor="start" x="798.892" y="-233" font-family="Arial ItalicMT" font-size="10.00" fill="#999999">string (2048)</text>
<text text-anchor="start" x="755" y="-220" font-family="ArialMT" font-size="10.00">title </text>
<text text-anchor="start" x="773.34" y="-220" font-family="Arial ItalicMT" font-size="10.00" fill="#999999">string (255) ∗</text>
<text text-anchor="start" x="755" y="-207" font-family="ArialMT" font-size="10.00">type </text>
<text text-anchor="start" x="776.68" y="-207" font-family="Arial ItalicMT" font-size="10.00" fill="#999999">string</text>
</g>
<!-- m_Comment -->
<g id="node5" class="node"><title>m_Comment</title>
<path fill="none" stroke="black" d="M754,-99C754,-99 874,-99 874,-99 880,-99 886,-105 886,-111 886,-111 886,-142 886,-142 886,-148 880,-154 874,-154 874,-154 754,-154 754,-154 748,-154 742,-148 742,-142 742,-142 742,-111 742,-111 742,-105 748,-99 754,-99"/>
<text text-anchor="start" x="788.16" y="-140.7" font-family="Arial BoldMT" font-size="11.00">Comment</text>
<polyline fill="none" stroke="black" points="742,-135 886,-135 "/>
<text text-anchor="start" x="749" y="-122" font-family="ArialMT" font-size="10.00">body </text>
<text text-anchor="start" x="773.463" y="-122" font-family="Arial ItalicMT" font-size="10.00" fill="#999999">string (1024) ∗</text>
<text text-anchor="start" x="749" y="-109" font-family="ArialMT" font-size="10.00">deleted_at </text>
<text text-anchor="start" x="798.487" y="-109" font-family="Arial ItalicMT" font-size="10.00" fill="#999999">datetime</text>
</g>
<!-- m_Book&#45;&gt;m_Comment -->
<g id="edge8" class="edge"><title>m_Book&#45;&gt;m_Comment</title>
<path fill="none" stroke="black" d="M816.504,-192.186C816.137,-182.699 815.78,-173.475 815.456,-165.105"/>
<ellipse fill="none" stroke="black" cx="816.609" cy="-194.893" rx="2.4" ry="2.4"/>
<ellipse fill="black" stroke="black" cx="815.129" cy="-156.675" rx="2.4" ry="2.4"/>
<polygon fill="black" stroke="black" points="817.553,-164.987 815.222,-159.073 813.356,-165.15 817.553,-164.987"/>
</g>
<!-- m_Copy -->
<g id="node6" class="node"><title>m_Copy</title>
<path fill="none" stroke="black" d="M408,-92.5C408,-92.5 528,-92.5 528,-92.5 534,-92.5 540,-98.5 540,-104.5 540,-104.5 540,-148.5 540,-148.5 540,-154.5 534,-160.5 528,-160.5 528,-160.5 408,-160.5 408,-160.5 402,-160.5 396,-154.5 396,-148.5 396,-148.5 396,-104.5 396,-104.5 396,-98.5 402,-92.5 408,-92.5"/>
<text text-anchor="start" x="453.16" y="-147.2" font-family="Arial BoldMT" font-size="11.00">Copy</text>
<polyline fill="none" stroke="black" points="396,-141.5 540,-141.5 "/>
<text text-anchor="start" x="403" y="-128" font-family="ArialMT" font-size="10.00">borrowings_count </text>
<text text-anchor="start" x="484.714" y="-128" font-family="Arial ItalicMT" font-size="10.00" fill="#999999">integer</text>
<text text-anchor="start" x="403" y="-115" font-family="ArialMT" font-size="10.00">deleted_at </text>
<text text-anchor="start" x="452.487" y="-115" font-family="Arial ItalicMT" font-size="10.00" fill="#999999">datetime</text>
<text text-anchor="start" x="403" y="-102" font-family="ArialMT" font-size="10.00">number </text>
<text text-anchor="start" x="439.685" y="-102" font-family="Arial ItalicMT" font-size="10.00" fill="#999999">integer</text>
</g>
<!-- m_Book&#45;&gt;m_Copy -->
<g id="edge9" class="edge"><title>m_Book&#45;&gt;m_Copy</title>
<path fill="none" stroke="black" d="M743.728,-203.333C740.211,-201.05 736.631,-198.925 733,-197 661.308,-158.982 631.876,-183.812 554,-161 553.025,-160.714 552.045,-160.422 551.061,-160.124"/>
<ellipse fill="none" stroke="black" cx="745.833" cy="-204.746" rx="2.40002" ry="2.40002"/>
<ellipse fill="black" stroke="black" cx="542.707" cy="-157.456" rx="2.40001" ry="2.40001"/>
<polygon fill="black" stroke="black" points="551.347,-158.011 544.993,-158.186 550.07,-162.012 551.347,-158.011"/>
</g>
<!-- m_Dislike -->
<g id="node7" class="node"><title>m_Dislike</title>
<path fill="none" stroke="#999999" d="M870,-10C870,-10 990,-10 990,-10 996,-10 1002,-16 1002,-22 1002,-22 1002,-34 1002,-34 1002,-40 996,-46 990,-46 990,-46 870,-46 870,-46 864,-46 858,-40 858,-34 858,-34 858,-22 858,-22 858,-16 864,-10 870,-10"/>
<text text-anchor="start" x="911.803" y="-24.2" font-family="Arial BoldMT" font-size="11.00" fill="#999999">Dislike</text>
</g>
<!-- m_Book&#45;&gt;m_Dislike -->
<g id="edge7" class="edge"><title>m_Book&#45;&gt;m_Dislike</title>
<path fill="none" stroke="black" d="M930,-125.5C928.74,-102.504 928.833,-76.3786 929.19,-57.116"/>
<ellipse fill="black" stroke="black" cx="929.382" cy="-48.4978" rx="2.4" ry="2.4"/>
<polygon fill="black" stroke="black" points="931.294,-56.9427 929.329,-50.8972 927.095,-56.8488 931.294,-56.9427"/>
</g>
<!-- m_Ebook -->
<g id="node8" class="node"><title>m_Ebook</title>
<path fill="none" stroke="#999999" d="M986,-108.5C986,-108.5 1106,-108.5 1106,-108.5 1112,-108.5 1118,-114.5 1118,-120.5 1118,-120.5 1118,-132.5 1118,-132.5 1118,-138.5 1112,-144.5 1106,-144.5 1106,-144.5 986,-144.5 986,-144.5 980,-144.5 974,-138.5 974,-132.5 974,-132.5 974,-120.5 974,-120.5 974,-114.5 980,-108.5 986,-108.5"/>
<text text-anchor="start" x="1028.41" y="-122.7" font-family="Arial BoldMT" font-size="11.00" fill="#999999">Ebook</text>
</g>
<!-- m_Book&#45;&gt;m_Ebook -->
<g id="edge1" class="edge"><title>m_Book&#45;&gt;m_Ebook</title>
<path fill="none" stroke="#999999" d="M901.854,-200.779C903.566,-199.488 905.282,-198.227 907,-197 937.189,-175.439 975.048,-156.99 1003.63,-144.529"/>
<polygon fill="none" stroke="#999999" points="898.935,-197.732 892.115,-208.462 904.137,-204.327 898.935,-197.732"/>
</g>
<!-- m_Like -->
<g id="node9" class="node"><title>m_Like</title>
<path fill="none" stroke="#999999" d="M697,-10C697,-10 817,-10 817,-10 823,-10 829,-16 829,-22 829,-22 829,-34 829,-34 829,-40 823,-46 817,-46 817,-46 697,-46 697,-46 691,-46 685,-40 685,-34 685,-34 685,-22 685,-22 685,-16 691,-10 697,-10"/>
<text text-anchor="start" x="744.91" y="-24.2" font-family="Arial BoldMT" font-size="11.00" fill="#999999">Like</text>
</g>
<!-- m_Book&#45;&gt;m_Like -->
<g id="edge6" class="edge"><title>m_Book&#45;&gt;m_Like</title>
<path fill="none" stroke="black" d="M895.179,-196.454C915.071,-169.978 930.882,-143.594 930,-127.5"/>
<ellipse fill="none" stroke="black" cx="893.667" cy="-198.448" rx="2.40002" ry="2.40002"/>
<path fill="none" stroke="black" d="M930,-125.5C928.551,-99.051 866.206,-69.4916 816.776,-50.1418"/>
<ellipse fill="black" stroke="black" cx="808.691" cy="-47.0337" rx="2.40001" ry="2.40001"/>
<polygon fill="black" stroke="black" points="817.285,-48.0877 810.931,-47.8949 815.778,-52.008 817.285,-48.0877"/>
</g>
<!-- m_PrintedBook -->
<g id="node11" class="node"><title>m_PrintedBook</title>
<path fill="none" stroke="#999999" d="M1332,-108.5C1332,-108.5 1452,-108.5 1452,-108.5 1458,-108.5 1464,-114.5 1464,-120.5 1464,-120.5 1464,-132.5 1464,-132.5 1464,-138.5 1458,-144.5 1452,-144.5 1452,-144.5 1332,-144.5 1332,-144.5 1326,-144.5 1320,-138.5 1320,-132.5 1320,-132.5 1320,-120.5 1320,-120.5 1320,-114.5 1326,-108.5 1332,-108.5"/>
<text text-anchor="start" x="1360.04" y="-122.7" font-family="Arial BoldMT" font-size="11.00" fill="#999999">PrintedBook</text>
</g>
<!-- m_Book&#45;&gt;m_PrintedBook -->
<g id="edge2" class="edge"><title>m_Book&#45;&gt;m_PrintedBook</title>
<path fill="none" stroke="#999999" d="M902.732,-199.087C904.145,-198.359 905.568,-197.663 907,-197 1068.6,-122.234 1132.66,-201.717 1306,-161 1322.53,-157.116 1340.12,-150.705 1355.05,-144.525"/>
<polygon fill="none" stroke="#999999" points="900.392,-195.589 892.116,-205.24 904.605,-202.857 900.392,-195.589"/>
</g>
<!-- m_Vote -->
<g id="node13" class="node"><title>m_Vote</title>
<path fill="none" stroke="black" d="M581,-99C581,-99 701,-99 701,-99 707,-99 713,-105 713,-111 713,-111 713,-142 713,-142 713,-148 707,-154 701,-154 701,-154 581,-154 581,-154 575,-154 569,-148 569,-142 569,-142 569,-111 569,-111 569,-105 575,-99 581,-99"/>
<text text-anchor="start" x="627.987" y="-140.7" font-family="Arial BoldMT" font-size="11.00">Vote</text>
<polyline fill="none" stroke="black" points="569,-135 713,-135 "/>
<text text-anchor="start" x="576" y="-122" font-family="ArialMT" font-size="10.00">deleted_at </text>
<text text-anchor="start" x="625.487" y="-122" font-family="Arial ItalicMT" font-size="10.00" fill="#999999">datetime</text>
<text text-anchor="start" x="576" y="-109" font-family="ArialMT" font-size="10.00">type </text>
<text text-anchor="start" x="597.68" y="-109" font-family="Arial ItalicMT" font-size="10.00" fill="#999999">string</text>
</g>
<!-- m_Book&#45;&gt;m_Vote -->
<g id="edge5" class="edge"><title>m_Book&#45;&gt;m_Vote</title>
<path fill="none" stroke="black" d="M743.902,-206.634C740.253,-203.338 736.608,-200.113 733,-197 718.691,-184.656 702.424,-171.964 687.59,-160.86"/>
<ellipse fill="none" stroke="black" cx="745.775" cy="-208.336" rx="2.40002" ry="2.40002"/>
<ellipse fill="none" stroke="black" cx="680.496" cy="-155.599" rx="2.40001" ry="2.40001"/>
<polygon fill="black" stroke="black" points="688.494,-158.916 682.424,-157.029 685.992,-162.29 688.494,-158.916"/>
</g>
<!-- m_Writer -->
<g id="node14" class="node"><title>m_Writer</title>
<path fill="none" stroke="black" d="M1159,-105.5C1159,-105.5 1279,-105.5 1279,-105.5 1285,-105.5 1291,-111.5 1291,-117.5 1291,-117.5 1291,-135.5 1291,-135.5 1291,-141.5 1285,-147.5 1279,-147.5 1279,-147.5 1159,-147.5 1159,-147.5 1153,-147.5 1147,-141.5 1147,-135.5 1147,-135.5 1147,-117.5 1147,-117.5 1147,-111.5 1153,-105.5 1159,-105.5"/>
<text text-anchor="start" x="1202.43" y="-134.2" font-family="Arial BoldMT" font-size="11.00">Writer</text>
<polyline fill="none" stroke="black" points="1147,-128.5 1291,-128.5 "/>
<text text-anchor="start" x="1154" y="-115" font-family="ArialMT" font-size="10.00">name </text>
<text text-anchor="start" x="1181.79" y="-115" font-family="Arial ItalicMT" font-size="10.00" fill="#999999">string ∗ U</text>
</g>
<!-- m_Book&#45;&gt;m_Writer -->
<g id="edge10" class="edge"><title>m_Book&#45;&gt;m_Writer</title>
<path fill="none" stroke="black" d="M901.305,-200.064C903.187,-198.989 905.086,-197.966 907,-197 997.805,-151.179 1034.83,-187.61 1133,-161 1142.65,-158.383 1152.71,-155.051 1162.41,-151.507"/>
<ellipse fill="none" stroke="black" cx="894.083" cy="-204.566" rx="2.40001" ry="2.40001"/>
<polygon fill="black" stroke="black" points="900.1,-198.34 896.12,-203.297 902.322,-201.904 900.1,-198.34"/>
<ellipse fill="none" stroke="black" cx="1170.5" cy="-148.451" rx="2.40001" ry="2.40001"/>
<polygon fill="black" stroke="black" points="1163.38,-153.384 1168.25,-149.299 1161.9,-149.454 1163.38,-153.384"/>
</g>
<!-- m_Borrowing -->
<g id="node4" class="node"><title>m_Borrowing</title>
<path fill="none" stroke="black" d="M408,-0.5C408,-0.5 528,-0.5 528,-0.5 534,-0.5 540,-6.5 540,-12.5 540,-12.5 540,-43.5 540,-43.5 540,-49.5 534,-55.5 528,-55.5 528,-55.5 408,-55.5 408,-55.5 402,-55.5 396,-49.5 396,-43.5 396,-43.5 396,-12.5 396,-12.5 396,-6.5 402,-0.5 408,-0.5"/>
<text text-anchor="start" x="441.239" y="-42.2" font-family="Arial BoldMT" font-size="11.00">Borrowing</text>
<polyline fill="none" stroke="black" points="396,-36.5 540,-36.5 "/>
<text text-anchor="start" x="403" y="-23.5" font-family="ArialMT" font-size="10.00">borrowed_at </text>
<text text-anchor="start" x="461.369" y="-23.5" font-family="Arial ItalicMT" font-size="10.00" fill="#999999">datetime</text>
<text text-anchor="start" x="403" y="-10.5" font-family="ArialMT" font-size="10.00">deleted_at </text>
<text text-anchor="start" x="452.487" y="-10.5" font-family="Arial ItalicMT" font-size="10.00" fill="#999999">datetime</text>
</g>
<!-- m_Copy&#45;&gt;m_Borrowing -->
<g id="edge15" class="edge"><title>m_Copy&#45;&gt;m_Borrowing</title>
<path fill="none" stroke="black" d="M468,-87.4463C468,-80.6129 468,-73.4937 468,-66.6712"/>
<ellipse fill="none" stroke="black" cx="468" cy="-89.8902" rx="2.4" ry="2.4"/>
<ellipse fill="black" stroke="black" cx="468" cy="-57.9726" rx="2.4" ry="2.4"/>
<polygon fill="black" stroke="black" points="470.1,-66.3725 468,-60.3726 465.9,-66.3726 470.1,-66.3725"/>
</g>
<!-- m_Location -->
<g id="node10" class="node"><title>m_Location</title>
<path fill="none" stroke="black" d="M402,-262.5C402,-262.5 522,-262.5 522,-262.5 528,-262.5 534,-268.5 534,-274.5 534,-274.5 534,-292.5 534,-292.5 534,-298.5 528,-304.5 522,-304.5 522,-304.5 402,-304.5 402,-304.5 396,-304.5 390,-298.5 390,-292.5 390,-292.5 390,-274.5 390,-274.5 390,-268.5 396,-262.5 402,-262.5"/>
<text text-anchor="start" x="439.206" y="-291.2" font-family="Arial BoldMT" font-size="11.00">Location</text>
<polyline fill="none" stroke="black" points="390,-285.5 534,-285.5 "/>
<text text-anchor="start" x="397" y="-272" font-family="ArialMT" font-size="10.00">city </text>
<text text-anchor="start" x="414.778" y="-272" font-family="Arial ItalicMT" font-size="10.00" fill="#999999">string (255) ∗</text>
</g>
<!-- m_Location&#45;&gt;m_Copy -->
<g id="edge14" class="edge"><title>m_Location&#45;&gt;m_Copy</title>
<path fill="none" stroke="black" d="M462.98,-257.173C463.877,-234.005 465.224,-199.223 466.296,-171.513"/>
<ellipse fill="none" stroke="black" cx="462.877" cy="-259.838" rx="2.4" ry="2.4"/>
<ellipse fill="black" stroke="black" cx="466.629" cy="-162.909" rx="2.4" ry="2.4"/>
<polygon fill="black" stroke="black" points="468.403,-171.384 466.536,-165.307 464.206,-171.222 468.403,-171.384"/>
</g>
<!-- m_PrintedBook&#45;&gt;m_Borrowing -->
<g id="edge11" class="edge"><title>m_PrintedBook&#45;&gt;m_Borrowing</title>
<path fill="none" stroke="black" stroke-dasharray="1,5" d="M1350.88,-106.451C1336.93,-100.81 1321.05,-95.2713 1306,-92 1029.34,-31.8745 951.85,-82.774 670,-56 630.897,-52.2855 587.721,-46.7151 551.358,-41.5969"/>
<ellipse fill="none" stroke="black" cx="1353.32" cy="-107.453" rx="2.40001" ry="2.40001"/>
<ellipse fill="none" stroke="black" cx="542.68" cy="-40.3634" rx="2.4" ry="2.4"/>
<polygon fill="black" stroke="black" points="551.292,-39.4665 545.056,-40.7012 550.701,-43.6247 551.292,-39.4665"/>
</g>
<!-- m_User -->
<g id="node12" class="node"><title>m_User</title>
<path fill="none" stroke="black" d="M575,-243C575,-243 707,-243 707,-243 713,-243 719,-249 719,-255 719,-255 719,-312 719,-312 719,-318 713,-324 707,-324 707,-324 575,-324 575,-324 569,-324 563,-318 563,-312 563,-312 563,-255 563,-255 563,-249 569,-243 575,-243"/>
<text text-anchor="start" x="627.388" y="-310.7" font-family="Arial BoldMT" font-size="11.00">User</text>
<polyline fill="none" stroke="black" points="563,-305 719,-305 "/>
<text text-anchor="start" x="570" y="-292" font-family="ArialMT" font-size="10.00">email </text>
<text text-anchor="start" x="596.675" y="-292" font-family="Arial ItalicMT" font-size="10.00" fill="#999999">string (255) ∗ U</text>
<text text-anchor="start" x="570" y="-279" font-family="ArialMT" font-size="10.00">login_token </text>
<text text-anchor="start" x="623.931" y="-279" font-family="Arial ItalicMT" font-size="10.00" fill="#999999">string</text>
<text text-anchor="start" x="569.84" y="-266" font-family="ArialMT" font-size="10.00">login_token_valid_until </text>
<text text-anchor="start" x="673.805" y="-266" font-family="Arial ItalicMT" font-size="10.00" fill="#999999">datetime</text>
<text text-anchor="start" x="570" y="-253" font-family="ArialMT" font-size="10.00">name </text>
<text text-anchor="start" x="597.793" y="-253" font-family="Arial ItalicMT" font-size="10.00" fill="#999999">string (100)</text>
</g>
<!-- m_User&#45;&gt;m_Borrowing -->
<g id="edge16" class="edge"><title>m_User&#45;&gt;m_Borrowing</title>
<path fill="none" stroke="black" d="M603.47,-239.43C587.789,-223.894 568.46,-207.596 548,-197 480.578,-162.082 428.698,-220.075 381,-161 361.735,-137.14 367.056,-119.313 381,-92 386.896,-80.4514 396.007,-70.5286 406.152,-62.2005"/>
<ellipse fill="none" stroke="black" cx="605.271" cy="-241.238" rx="2.40002" ry="2.40002"/>
<ellipse fill="black" stroke="black" cx="412.958" cy="-57.0309" rx="2.40001" ry="2.40001"/>
<polygon fill="black" stroke="black" points="407.539,-63.7841 411.046,-58.4826 404.998,-60.4396 407.539,-63.7841"/>
</g>
<!-- m_User&#45;&gt;m_Comment -->
<g id="edge12" class="edge"><title>m_User&#45;&gt;m_Comment</title>
<path fill="none" stroke="black" d="M686.517,-239.533C701.237,-225.817 717.707,-210.657 733,-197 746.151,-185.255 760.717,-172.639 773.829,-161.423"/>
<ellipse fill="none" stroke="black" cx="684.569" cy="-241.35" rx="2.40002" ry="2.40002"/>
<ellipse fill="black" stroke="black" cx="780.379" cy="-155.834" rx="2.40001" ry="2.40001"/>
<polygon fill="black" stroke="black" points="775.352,-162.884 778.554,-157.392 772.626,-159.688 775.352,-162.884"/>
</g>
<!-- m_User&#45;&gt;m_Vote -->
<g id="edge13" class="edge"><title>m_User&#45;&gt;m_Vote</title>
<path fill="none" stroke="black" d="M641,-238.013C641,-214.966 641,-187.128 641,-165.158"/>
<ellipse fill="none" stroke="black" cx="641" cy="-240.586" rx="2.4" ry="2.4"/>
<ellipse fill="black" stroke="black" cx="641" cy="-156.66" rx="2.4" ry="2.4"/>
<polygon fill="black" stroke="black" points="643.1,-165.06 641,-159.06 638.9,-165.06 643.1,-165.06"/>
</g>
<!-- m_Vote&#45;&gt;m_Dislike -->
<g id="edge3" class="edge"><title>m_Vote&#45;&gt;m_Dislike</title>
<path fill="none" stroke="#999999" d="M719.348,-94.7158C721.925,-93.7881 724.481,-92.8804 727,-92 727.458,-91.84 814.999,-64.6777 874.959,-46.0754"/>
<polygon fill="none" stroke="#999999" points="717.787,-90.8147 707.966,-98.8885 720.678,-98.7015 717.787,-90.8147"/>
</g>
<!-- m_Vote&#45;&gt;m_Like -->
<g id="edge4" class="edge"><title>m_Vote&#45;&gt;m_Like</title>
<path fill="none" stroke="#999999" d="M682.332,-91.116C700.676,-75.8557 721.451,-58.5733 736.421,-46.1194"/>
<polygon fill="none" stroke="#999999" points="679.544,-87.9723 673.005,-98.8755 684.916,-94.4299 679.544,-87.9723"/>
</g>
<!-- m_primary::SchemaMigration -->
<g id="node15" class="node"><title>m_primary::SchemaMigration</title>
<path fill="none" stroke="black" d="M933,-265.5C933,-265.5 1053,-265.5 1053,-265.5 1059,-265.5 1065,-271.5 1065,-277.5 1065,-277.5 1065,-289.5 1065,-289.5 1065,-295.5 1059,-301.5 1053,-301.5 1053,-301.5 933,-301.5 933,-301.5 927,-301.5 921,-295.5 921,-289.5 921,-289.5 921,-277.5 921,-277.5 921,-271.5 927,-265.5 933,-265.5"/>
<text text-anchor="start" x="926.813" y="-279.7" font-family="Arial BoldMT" font-size="11.00">primary::SchemaMigration</text>
</g>
</g>
</svg>
