<?xml version="1.0" encoding="UTF-8" standalone="no"?>
<!DOCTYPE svg PUBLIC "-//W3C//DTD SVG 1.1//EN"
 "http://www.w3.org/Graphics/SVG/1.1/DTD/svg11.dtd">
<!-- Generated by graphviz version 2.43.0 (0)
 -->
<!-- Title: Books Pages: 1 -->
<svg width="1632pt" height="451pt"
 viewBox="0.00 0.00 1631.60 450.60" xmlns="http://www.w3.org/2000/svg" xmlns:xlink="http://www.w3.org/1999/xlink">
<g id="graph0" class="graph" transform="scale(1 1) rotate(0) translate(28.8 421.8)">
<title>Books</title>
<polygon fill="white" stroke="transparent" points="-28.8,28.8 -28.8,-421.8 1602.8,-421.8 1602.8,28.8 -28.8,28.8"/>
<text text-anchor="middle" x="787" y="-378.6" font-family="Arial BoldMT" font-size="13.00">Class Diagram Books</text>
<!-- m_ActiveRecord::InternalMetadata -->
<g id="node1" class="node">
<title>m_ActiveRecord::InternalMetadata</title>
<path fill="none" stroke="black" d="M12,-256C12,-256 152,-256 152,-256 158,-256 164,-262 164,-268 164,-268 164,-286 164,-286 164,-292 158,-298 152,-298 152,-298 12,-298 12,-298 6,-298 0,-292 0,-286 0,-286 0,-268 0,-268 0,-262 6,-256 12,-256"/>
<text text-anchor="start" x="4.96" y="-284.7" font-family="Arial BoldMT" font-size="11.00">ActiveRecord::InternalMetadata</text>
<polyline fill="none" stroke="black" points="0,-279 164,-279 "/>
<text text-anchor="start" x="17" y="-265.5" font-family="ArialMT" font-size="10.00">value </text>
<text text-anchor="start" x="43.68" y="-265.5" font-family="Arial ItalicMT" font-size="10.00" fill="#999999">string</text>
</g>
<!-- m_ActiveRecord::SchemaMigration -->
<g id="node2" class="node">
<title>m_ActiveRecord::SchemaMigration</title>
<path fill="none" stroke="black" d="M205.5,-259C205.5,-259 348.5,-259 348.5,-259 354.5,-259 360.5,-265 360.5,-271 360.5,-271 360.5,-283 360.5,-283 360.5,-289 354.5,-295 348.5,-295 348.5,-295 205.5,-295 205.5,-295 199.5,-295 193.5,-289 193.5,-283 193.5,-283 193.5,-271 193.5,-271 193.5,-265 199.5,-259 205.5,-259"/>
<text text-anchor="start" x="198.94" y="-273.2" font-family="Arial BoldMT" font-size="11.00">ActiveRecord::SchemaMigration</text>
</g>
<!-- m_Book -->
<g id="node3" class="node">
<title>m_Book</title>
<path fill="none" stroke="black" d="M923,-197.5C923,-197.5 1043,-197.5 1043,-197.5 1049,-197.5 1055,-203.5 1055,-209.5 1055,-209.5 1055,-344.5 1055,-344.5 1055,-350.5 1049,-356.5 1043,-356.5 1043,-356.5 923,-356.5 923,-356.5 917,-356.5 911,-350.5 911,-344.5 911,-344.5 911,-209.5 911,-209.5 911,-203.5 917,-197.5 923,-197.5"/>
<text text-anchor="start" x="968.46" y="-343.2" font-family="Arial BoldMT" font-size="11.00">Book</text>
<polyline fill="none" stroke="black" points="911,-337.5 1055,-337.5 "/>
<text text-anchor="start" x="918" y="-324.5" font-family="ArialMT" font-size="10.00">comments_count </text>
<text text-anchor="start" x="996.93" y="-324.5" font-family="Arial ItalicMT" font-size="10.00" fill="#999999">integer</text>
<text text-anchor="start" x="918" y="-311.5" font-family="ArialMT" font-size="10.00">cover </text>
<text text-anchor="start" x="945.23" y="-311.5" font-family="Arial ItalicMT" font-size="10.00" fill="#999999">string</text>
<text text-anchor="start" x="918" y="-298.5" font-family="ArialMT" font-size="10.00">deleted_at </text>
<text text-anchor="start" x="967.49" y="-298.5" font-family="Arial ItalicMT" font-size="10.00" fill="#999999">datetime</text>
<text text-anchor="start" x="918" y="-285.5" font-family="ArialMT" font-size="10.00">dislikes_count </text>
<text text-anchor="start" x="983.59" y="-285.5" font-family="Arial ItalicMT" font-size="10.00" fill="#999999">integer</text>
<text text-anchor="start" x="918" y="-272.5" font-family="ArialMT" font-size="10.00">likes_count </text>
<text text-anchor="start" x="970.81" y="-272.5" font-family="Arial ItalicMT" font-size="10.00" fill="#999999">integer</text>
<text text-anchor="start" x="918" y="-259.5" font-family="ArialMT" font-size="10.00">link </text>
<text text-anchor="start" x="935.78" y="-259.5" font-family="Arial ItalicMT" font-size="10.00" fill="#999999">string (2048)</text>
<text text-anchor="start" x="918" y="-246.5" font-family="ArialMT" font-size="10.00">num_of_pages </text>
<text text-anchor="start" x="986.94" y="-246.5" font-family="Arial ItalicMT" font-size="10.00" fill="#999999">integer (2)</text>
<text text-anchor="start" x="918" y="-233.5" font-family="ArialMT" font-size="10.00">published_on </text>
<text text-anchor="start" x="980.28" y="-233.5" font-family="Arial ItalicMT" font-size="10.00" fill="#999999">date</text>
<text text-anchor="start" x="918" y="-220.5" font-family="ArialMT" font-size="10.00">summary </text>
<text text-anchor="start" x="961.89" y="-220.5" font-family="Arial ItalicMT" font-size="10.00" fill="#999999">string (2048)</text>
<text text-anchor="start" x="918" y="-207.5" font-family="ArialMT" font-size="10.00">title </text>
<text text-anchor="start" x="936.34" y="-207.5" font-family="Arial ItalicMT" font-size="10.00" fill="#999999">string (255) ∗</text>
</g>
<!-- m_Comment -->
<g id="node5" class="node">
<title>m_Comment</title>
<path fill="none" stroke="black" d="M807,-99C807,-99 927,-99 927,-99 933,-99 939,-105 939,-111 939,-111 939,-142 939,-142 939,-148 933,-154 927,-154 927,-154 807,-154 807,-154 801,-154 795,-148 795,-142 795,-142 795,-111 795,-111 795,-105 801,-99 807,-99"/>
<text text-anchor="start" x="841.16" y="-140.7" font-family="Arial BoldMT" font-size="11.00">Comment</text>
<polyline fill="none" stroke="black" points="795,-135 939,-135 "/>
<text text-anchor="start" x="802" y="-122" font-family="ArialMT" font-size="10.00">body </text>
<text text-anchor="start" x="826.46" y="-122" font-family="Arial ItalicMT" font-size="10.00" fill="#999999">string (1024) ∗</text>
<text text-anchor="start" x="802" y="-109" font-family="ArialMT" font-size="10.00">deleted_at </text>
<text text-anchor="start" x="851.49" y="-109" font-family="Arial ItalicMT" font-size="10.00" fill="#999999">datetime</text>
</g>
<!-- m_Book&#45;&gt;m_Comment -->
<g id="edge6" class="edge">
<title>m_Book&#45;&gt;m_Comment</title>
<path fill="none" stroke="black" d="M918.47,-193.39C910.07,-182.64 901.86,-172.13 894.55,-162.77"/>
<ellipse fill="none" stroke="black" cx="920.13" cy="-195.51" rx="2.4" ry="2.4"/>
<ellipse fill="black" stroke="black" cx="889.32" cy="-156.07" rx="2.4" ry="2.4"/>
<polygon fill="black" stroke="black" points="896.14,-161.4 890.79,-157.96 892.83,-163.98 896.14,-161.4"/>
</g>
<!-- m_Copy -->
<g id="node6" class="node">
<title>m_Copy</title>
<path fill="none" stroke="black" d="M402,-92.5C402,-92.5 522,-92.5 522,-92.5 528,-92.5 534,-98.5 534,-104.5 534,-104.5 534,-148.5 534,-148.5 534,-154.5 528,-160.5 522,-160.5 522,-160.5 402,-160.5 402,-160.5 396,-160.5 390,-154.5 390,-148.5 390,-148.5 390,-104.5 390,-104.5 390,-98.5 396,-92.5 402,-92.5"/>
<text text-anchor="start" x="447.16" y="-147.2" font-family="Arial BoldMT" font-size="11.00">Copy</text>
<polyline fill="none" stroke="black" points="390,-141.5 534,-141.5 "/>
<text text-anchor="start" x="397" y="-128" font-family="ArialMT" font-size="10.00">borrowings_count </text>
<text text-anchor="start" x="478.71" y="-128" font-family="Arial ItalicMT" font-size="10.00" fill="#999999">integer</text>
<text text-anchor="start" x="397" y="-115" font-family="ArialMT" font-size="10.00">deleted_at </text>
<text text-anchor="start" x="446.49" y="-115" font-family="Arial ItalicMT" font-size="10.00" fill="#999999">datetime</text>
<text text-anchor="start" x="397" y="-102" font-family="ArialMT" font-size="10.00">number </text>
<text text-anchor="start" x="433.68" y="-102" font-family="Arial ItalicMT" font-size="10.00" fill="#999999">integer</text>
</g>
<!-- m_Book&#45;&gt;m_Copy -->
<g id="edge7" class="edge">
<title>m_Book&#45;&gt;m_Copy</title>
<path fill="none" stroke="black" d="M906.14,-240.47C870.28,-225.13 826.63,-208.17 786,-197 686.24,-169.57 656.28,-186.48 556,-161 552.32,-160.07 548.58,-159.04 544.82,-157.96"/>
<ellipse fill="none" stroke="black" cx="908.71" cy="-241.58" rx="2.4" ry="2.4"/>
<ellipse fill="black" stroke="black" cx="536.49" cy="-155.45" rx="2.4" ry="2.4"/>
<polygon fill="black" stroke="black" points="545.14,-155.86 538.79,-156.14 543.93,-159.88 545.14,-155.86"/>
</g>
<!-- m_Dislike -->
<g id="node7" class="node">
<title>m_Dislike</title>
<path fill="none" stroke="#999999" d="M1155,-10C1155,-10 1275,-10 1275,-10 1281,-10 1287,-16 1287,-22 1287,-22 1287,-34 1287,-34 1287,-40 1281,-46 1275,-46 1275,-46 1155,-46 1155,-46 1149,-46 1143,-40 1143,-34 1143,-34 1143,-22 1143,-22 1143,-16 1149,-10 1155,-10"/>
<text text-anchor="start" x="1196.8" y="-24.2" font-family="Arial BoldMT" font-size="11.00" fill="#999999">Dislike</text>
</g>
<!-- m_Book&#45;&gt;m_Dislike -->
<g id="edge5" class="edge">
<title>m_Book&#45;&gt;m_Dislike</title>
<path fill="none" stroke="black" d="M1059.46,-202.9C1062.61,-200.81 1065.8,-198.84 1069,-197 1116.19,-169.93 1149.14,-201.02 1186,-161 1212.1,-132.66 1216.65,-86.37 1216.56,-56.81"/>
<ellipse fill="none" stroke="black" cx="1057.17" cy="-204.46" rx="2.4" ry="2.4"/>
<ellipse fill="black" stroke="black" cx="1216.37" cy="-48.41" rx="2.4" ry="2.4"/>
<polygon fill="black" stroke="black" points="1218.65,-56.76 1216.42,-50.81 1214.46,-56.85 1218.65,-56.76"/>
</g>
<!-- m_Like -->
<g id="node9" class="node">
<title>m_Like</title>
<path fill="none" stroke="#999999" d="M923,-10C923,-10 1043,-10 1043,-10 1049,-10 1055,-16 1055,-22 1055,-22 1055,-34 1055,-34 1055,-40 1049,-46 1043,-46 1043,-46 923,-46 923,-46 917,-46 911,-40 911,-34 911,-34 911,-22 911,-22 911,-16 917,-10 923,-10"/>
<text text-anchor="start" x="970.91" y="-24.2" font-family="Arial BoldMT" font-size="11.00" fill="#999999">Like</text>
</g>
<!-- m_Book&#45;&gt;m_Like -->
<g id="edge4" class="edge">
<title>m_Book&#45;&gt;m_Like</title>
<path fill="none" stroke="black" d="M983,-192.1C983,-145.15 983,-89.67 983,-57.01"/>
<ellipse fill="none" stroke="black" cx="983" cy="-194.77" rx="2.4" ry="2.4"/>
<ellipse fill="black" stroke="black" cx="983" cy="-48.47" rx="2.4" ry="2.4"/>
<polygon fill="black" stroke="black" points="985.1,-56.87 983,-50.87 980.9,-56.87 985.1,-56.87"/>
</g>
<!-- m_Vote -->
<g id="node13" class="node">
<title>m_Vote</title>
<path fill="none" stroke="black" d="M634,-99C634,-99 754,-99 754,-99 760,-99 766,-105 766,-111 766,-111 766,-142 766,-142 766,-148 760,-154 754,-154 754,-154 634,-154 634,-154 628,-154 622,-148 622,-142 622,-142 622,-111 622,-111 622,-105 628,-99 634,-99"/>
<text text-anchor="start" x="680.99" y="-140.7" font-family="Arial BoldMT" font-size="11.00">Vote</text>
<polyline fill="none" stroke="black" points="622,-135 766,-135 "/>
<text text-anchor="start" x="629" y="-122" font-family="ArialMT" font-size="10.00">deleted_at </text>
<text text-anchor="start" x="678.49" y="-122" font-family="Arial ItalicMT" font-size="10.00" fill="#999999">datetime</text>
<text text-anchor="start" x="629" y="-109" font-family="ArialMT" font-size="10.00">type </text>
<text text-anchor="start" x="650.68" y="-109" font-family="Arial ItalicMT" font-size="10.00" fill="#999999">string</text>
</g>
<!-- m_Book&#45;&gt;m_Vote -->
<g id="edge3" class="edge">
<title>m_Book&#45;&gt;m_Vote</title>
<path fill="none" stroke="black" d="M906.27,-236.57C859.11,-212.34 799.5,-181.71 755.47,-159.09"/>
<ellipse fill="none" stroke="black" cx="908.68" cy="-237.81" rx="2.4" ry="2.4"/>
<ellipse fill="none" stroke="black" cx="747.89" cy="-155.19" rx="2.4" ry="2.4"/>
<polygon fill="black" stroke="black" points="756.32,-157.16 750.03,-156.29 754.4,-160.9 756.32,-157.16"/>
</g>
<!-- m_Writer -->
<g id="node14" class="node">
<title>m_Writer</title>
<path fill="none" stroke="black" d="M1039,-105.5C1039,-105.5 1159,-105.5 1159,-105.5 1165,-105.5 1171,-111.5 1171,-117.5 1171,-117.5 1171,-135.5 1171,-135.5 1171,-141.5 1165,-147.5 1159,-147.5 1159,-147.5 1039,-147.5 1039,-147.5 1033,-147.5 1027,-141.5 1027,-135.5 1027,-135.5 1027,-117.5 1027,-117.5 1027,-111.5 1033,-105.5 1039,-105.5"/>
<text text-anchor="start" x="1082.43" y="-134.2" font-family="Arial BoldMT" font-size="11.00">Writer</text>
<polyline fill="none" stroke="black" points="1027,-128.5 1171,-128.5 "/>
<text text-anchor="start" x="1034" y="-115" font-family="ArialMT" font-size="10.00">name </text>
<text text-anchor="start" x="1061.79" y="-115" font-family="Arial ItalicMT" font-size="10.00" fill="#999999">string ∗ U</text>
</g>
<!-- m_Book&#45;&gt;m_Writer -->
<g id="edge8" class="edge">
<title>m_Book&#45;&gt;m_Writer</title>
<path fill="none" stroke="black" d="M1051.14,-188.77C1060.27,-177.08 1069.05,-165.84 1076.55,-156.24"/>
<ellipse fill="none" stroke="black" cx="1045.87" cy="-195.51" rx="2.4" ry="2.4"/>
<polygon fill="black" stroke="black" points="1049.39,-187.6 1047.35,-193.62 1052.7,-190.18 1049.39,-187.6"/>
<ellipse fill="none" stroke="black" cx="1081.83" cy="-149.48" rx="2.4" ry="2.4"/>
<polygon fill="black" stroke="black" points="1078.32,-157.39 1080.35,-151.37 1075.01,-154.81 1078.32,-157.39"/>
</g>
<!-- m_Borrowing -->
<g id="node4" class="node">
<title>m_Borrowing</title>
<path fill="none" stroke="black" d="M402,-0.5C402,-0.5 522,-0.5 522,-0.5 528,-0.5 534,-6.5 534,-12.5 534,-12.5 534,-43.5 534,-43.5 534,-49.5 528,-55.5 522,-55.5 522,-55.5 402,-55.5 402,-55.5 396,-55.5 390,-49.5 390,-43.5 390,-43.5 390,-12.5 390,-12.5 390,-6.5 396,-0.5 402,-0.5"/>
<text text-anchor="start" x="435.24" y="-42.2" font-family="Arial BoldMT" font-size="11.00">Borrowing</text>
<polyline fill="none" stroke="black" points="390,-36.5 534,-36.5 "/>
<text text-anchor="start" x="397" y="-23.5" font-family="ArialMT" font-size="10.00">borrowed_at </text>
<text text-anchor="start" x="455.37" y="-23.5" font-family="Arial ItalicMT" font-size="10.00" fill="#999999">datetime</text>
<text text-anchor="start" x="397" y="-10.5" font-family="ArialMT" font-size="10.00">deleted_at </text>
<text text-anchor="start" x="446.49" y="-10.5" font-family="Arial ItalicMT" font-size="10.00" fill="#999999">datetime</text>
</g>
<!-- m_Copy&#45;&gt;m_Borrowing -->
<g id="edge13" class="edge">
<title>m_Copy&#45;&gt;m_Borrowing</title>
<path fill="none" stroke="black" d="M462,-87.45C462,-80.61 462,-73.49 462,-66.67"/>
<ellipse fill="none" stroke="black" cx="462" cy="-89.89" rx="2.4" ry="2.4"/>
<ellipse fill="black" stroke="black" cx="462" cy="-57.97" rx="2.4" ry="2.4"/>
<polygon fill="black" stroke="black" points="464.1,-66.37 462,-60.37 459.9,-66.37 464.1,-66.37"/>
</g>
<!-- m_Ebook -->
<g id="node8" class="node">
<title>m_Ebook</title>
<path fill="none" stroke="black" d="M1269,-197.5C1269,-197.5 1389,-197.5 1389,-197.5 1395,-197.5 1401,-203.5 1401,-209.5 1401,-209.5 1401,-344.5 1401,-344.5 1401,-350.5 1395,-356.5 1389,-356.5 1389,-356.5 1269,-356.5 1269,-356.5 1263,-356.5 1257,-350.5 1257,-344.5 1257,-344.5 1257,-209.5 1257,-209.5 1257,-203.5 1263,-197.5 1269,-197.5"/>
<text text-anchor="start" x="1311.41" y="-343.2" font-family="Arial BoldMT" font-size="11.00">Ebook</text>
<polyline fill="none" stroke="black" points="1257,-337.5 1401,-337.5 "/>
<text text-anchor="start" x="1264" y="-324.5" font-family="ArialMT" font-size="10.00">comments_count </text>
<text text-anchor="start" x="1342.93" y="-324.5" font-family="Arial ItalicMT" font-size="10.00" fill="#999999">integer</text>
<text text-anchor="start" x="1264" y="-311.5" font-family="ArialMT" font-size="10.00">cover </text>
<text text-anchor="start" x="1291.23" y="-311.5" font-family="Arial ItalicMT" font-size="10.00" fill="#999999">string</text>
<text text-anchor="start" x="1264" y="-298.5" font-family="ArialMT" font-size="10.00">deleted_at </text>
<text text-anchor="start" x="1313.49" y="-298.5" font-family="Arial ItalicMT" font-size="10.00" fill="#999999">datetime</text>
<text text-anchor="start" x="1264" y="-285.5" font-family="ArialMT" font-size="10.00">dislikes_count </text>
<text text-anchor="start" x="1329.59" y="-285.5" font-family="Arial ItalicMT" font-size="10.00" fill="#999999">integer</text>
<text text-anchor="start" x="1264" y="-272.5" font-family="ArialMT" font-size="10.00">likes_count </text>
<text text-anchor="start" x="1316.81" y="-272.5" font-family="Arial ItalicMT" font-size="10.00" fill="#999999">integer</text>
<text text-anchor="start" x="1264" y="-259.5" font-family="ArialMT" font-size="10.00">link </text>
<text text-anchor="start" x="1281.78" y="-259.5" font-family="Arial ItalicMT" font-size="10.00" fill="#999999">string (2048) ∗</text>
<text text-anchor="start" x="1264" y="-246.5" font-family="ArialMT" font-size="10.00">num_of_pages </text>
<text text-anchor="start" x="1332.94" y="-246.5" font-family="Arial ItalicMT" font-size="10.00" fill="#999999">integer (2)</text>
<text text-anchor="start" x="1264" y="-233.5" font-family="ArialMT" font-size="10.00">published_on </text>
<text text-anchor="start" x="1326.28" y="-233.5" font-family="Arial ItalicMT" font-size="10.00" fill="#999999">date</text>
<text text-anchor="start" x="1264" y="-220.5" font-family="ArialMT" font-size="10.00">summary </text>
<text text-anchor="start" x="1307.89" y="-220.5" font-family="Arial ItalicMT" font-size="10.00" fill="#999999">string (2048)</text>
<text text-anchor="start" x="1264" y="-207.5" font-family="ArialMT" font-size="10.00">title </text>
<text text-anchor="start" x="1282.34" y="-207.5" font-family="Arial ItalicMT" font-size="10.00" fill="#999999">string (255) ∗</text>
</g>
<!-- m_Location -->
<g id="node10" class="node">
<title>m_Location</title>
<path fill="none" stroke="black" d="M402,-256C402,-256 522,-256 522,-256 528,-256 534,-262 534,-268 534,-268 534,-286 534,-286 534,-292 528,-298 522,-298 522,-298 402,-298 402,-298 396,-298 390,-292 390,-286 390,-286 390,-268 390,-268 390,-262 396,-256 402,-256"/>
<text text-anchor="start" x="439.21" y="-284.7" font-family="Arial BoldMT" font-size="11.00">Location</text>
<polyline fill="none" stroke="black" points="390,-279 534,-279 "/>
<text text-anchor="start" x="397" y="-265.5" font-family="ArialMT" font-size="10.00">city </text>
<text text-anchor="start" x="414.78" y="-265.5" font-family="Arial ItalicMT" font-size="10.00" fill="#999999">string (255) ∗</text>
</g>
<!-- m_Location&#45;&gt;m_Copy -->
<g id="edge12" class="edge">
<title>m_Location&#45;&gt;m_Copy</title>
<path fill="none" stroke="black" d="M462,-250.88C462,-229.23 462,-197.46 462,-171.59"/>
<ellipse fill="none" stroke="black" cx="462" cy="-253.57" rx="2.4" ry="2.4"/>
<ellipse fill="black" stroke="black" cx="462" cy="-162.94" rx="2.4" ry="2.4"/>
<polygon fill="black" stroke="black" points="464.1,-171.34 462,-165.34 459.9,-171.34 464.1,-171.34"/>
</g>
<!-- m_PrintedBook -->
<g id="node11" class="node">
<title>m_PrintedBook</title>
<path fill="none" stroke="black" d="M1096,-197.5C1096,-197.5 1216,-197.5 1216,-197.5 1222,-197.5 1228,-203.5 1228,-209.5 1228,-209.5 1228,-344.5 1228,-344.5 1228,-350.5 1222,-356.5 1216,-356.5 1216,-356.5 1096,-356.5 1096,-356.5 1090,-356.5 1084,-350.5 1084,-344.5 1084,-344.5 1084,-209.5 1084,-209.5 1084,-203.5 1090,-197.5 1096,-197.5"/>
<text text-anchor="start" x="1124.04" y="-343.2" font-family="Arial BoldMT" font-size="11.00">PrintedBook</text>
<polyline fill="none" stroke="black" points="1084,-337.5 1228,-337.5 "/>
<text text-anchor="start" x="1091" y="-324.5" font-family="ArialMT" font-size="10.00">comments_count </text>
<text text-anchor="start" x="1169.93" y="-324.5" font-family="Arial ItalicMT" font-size="10.00" fill="#999999">integer</text>
<text text-anchor="start" x="1091" y="-311.5" font-family="ArialMT" font-size="10.00">cover </text>
<text text-anchor="start" x="1118.23" y="-311.5" font-family="Arial ItalicMT" font-size="10.00" fill="#999999">string</text>
<text text-anchor="start" x="1091" y="-298.5" font-family="ArialMT" font-size="10.00">deleted_at </text>
<text text-anchor="start" x="1140.49" y="-298.5" font-family="Arial ItalicMT" font-size="10.00" fill="#999999">datetime</text>
<text text-anchor="start" x="1091" y="-285.5" font-family="ArialMT" font-size="10.00">dislikes_count </text>
<text text-anchor="start" x="1156.59" y="-285.5" font-family="Arial ItalicMT" font-size="10.00" fill="#999999">integer</text>
<text text-anchor="start" x="1091" y="-272.5" font-family="ArialMT" font-size="10.00">likes_count </text>
<text text-anchor="start" x="1143.81" y="-272.5" font-family="Arial ItalicMT" font-size="10.00" fill="#999999">integer</text>
<text text-anchor="start" x="1091" y="-259.5" font-family="ArialMT" font-size="10.00">link </text>
<text text-anchor="start" x="1108.78" y="-259.5" font-family="Arial ItalicMT" font-size="10.00" fill="#999999">string (2048)</text>
<text text-anchor="start" x="1091" y="-246.5" font-family="ArialMT" font-size="10.00">num_of_pages </text>
<text text-anchor="start" x="1159.94" y="-246.5" font-family="Arial ItalicMT" font-size="10.00" fill="#999999">integer (2)</text>
<text text-anchor="start" x="1091" y="-233.5" font-family="ArialMT" font-size="10.00">published_on </text>
<text text-anchor="start" x="1153.28" y="-233.5" font-family="Arial ItalicMT" font-size="10.00" fill="#999999">date</text>
<text text-anchor="start" x="1091" y="-220.5" font-family="ArialMT" font-size="10.00">summary </text>
<text text-anchor="start" x="1134.89" y="-220.5" font-family="Arial ItalicMT" font-size="10.00" fill="#999999">string (2048)</text>
<text text-anchor="start" x="1091" y="-207.5" font-family="ArialMT" font-size="10.00">title </text>
<text text-anchor="start" x="1109.34" y="-207.5" font-family="Arial ItalicMT" font-size="10.00" fill="#999999">string (255) ∗</text>
</g>
<!-- m_PrintedBook&#45;&gt;m_Borrowing -->
<g id="edge9" class="edge">
<title>m_PrintedBook&#45;&gt;m_Borrowing</title>
<path fill="none" stroke="black" stroke-dasharray="1,5" d="M1079.28,-202.06C1075.91,-200.2 1072.48,-198.5 1069,-197 879.91,-115.38 790.85,-253.82 607,-161 589.42,-152.13 594.72,-137.9 578,-127.5"/>
<ellipse fill="none" stroke="black" cx="1081.76" cy="-203.49" rx="2.4" ry="2.4"/>
</g>
<!-- m_User -->
<g id="node12" class="node">
<title>m_User</title>
<path fill="none" stroke="black" d="M628,-236.5C628,-236.5 760,-236.5 760,-236.5 766,-236.5 772,-242.5 772,-248.5 772,-248.5 772,-305.5 772,-305.5 772,-311.5 766,-317.5 760,-317.5 760,-317.5 628,-317.5 628,-317.5 622,-317.5 616,-311.5 616,-305.5 616,-305.5 616,-248.5 616,-248.5 616,-242.5 622,-236.5 628,-236.5"/>
<text text-anchor="start" x="680.39" y="-304.2" font-family="Arial BoldMT" font-size="11.00">User</text>
<polyline fill="none" stroke="black" points="616,-298.5 772,-298.5 "/>
<text text-anchor="start" x="623" y="-285.5" font-family="ArialMT" font-size="10.00">email </text>
<text text-anchor="start" x="649.67" y="-285.5" font-family="Arial ItalicMT" font-size="10.00" fill="#999999">string (255) ∗ U</text>
<text text-anchor="start" x="623" y="-272.5" font-family="ArialMT" font-size="10.00">login_token </text>
<text text-anchor="start" x="676.93" y="-272.5" font-family="Arial ItalicMT" font-size="10.00" fill="#999999">string</text>
<text text-anchor="start" x="622.84" y="-259.5" font-family="ArialMT" font-size="10.00">login_token_valid_until </text>
<text text-anchor="start" x="726.81" y="-259.5" font-family="Arial ItalicMT" font-size="10.00" fill="#999999">datetime</text>
<text text-anchor="start" x="623" y="-246.5" font-family="ArialMT" font-size="10.00">name </text>
<text text-anchor="start" x="650.79" y="-246.5" font-family="Arial ItalicMT" font-size="10.00" fill="#999999">string (100)</text>
</g>
<!-- m_User&#45;&gt;m_Borrowing -->
<g id="edge14" class="edge">
<title>m_User&#45;&gt;m_Borrowing</title>
<path fill="none" stroke="black" d="M578,-125.5C561.03,-114.94 562.81,-105.42 548,-92 536.52,-81.6 523.36,-71.26 510.84,-62.07"/>
<ellipse fill="black" stroke="black" cx="503.81" cy="-56.99" rx="2.4" ry="2.4"/>
<polygon fill="black" stroke="black" points="511.85,-60.21 505.76,-58.39 509.39,-63.61 511.85,-60.21"/>
<path fill="none" stroke="black" d="M661,-232.26C628.73,-189.73 583.63,-131.01 578,-127.5"/>
<ellipse fill="none" stroke="black" cx="662.63" cy="-234.41" rx="2.4" ry="2.4"/>
</g>
<!-- m_User&#45;&gt;m_Comment -->
<g id="edge10" class="edge">
<title>m_User&#45;&gt;m_Comment</title>
<path fill="none" stroke="black" d="M744.32,-232.81C770.87,-210.02 802.97,-182.46 827.67,-161.26"/>
<ellipse fill="none" stroke="black" cx="742.18" cy="-234.64" rx="2.4" ry="2.4"/>
<ellipse fill="black" stroke="black" cx="834.26" cy="-155.6" rx="2.4" ry="2.4"/>
<polygon fill="black" stroke="black" points="829.25,-162.67 832.44,-157.17 826.52,-159.48 829.25,-162.67"/>
</g>
<!-- m_User&#45;&gt;m_Vote -->
<g id="edge11" class="edge">
<title>m_User&#45;&gt;m_Vote</title>
<path fill="none" stroke="black" d="M694,-231.26C694,-210.18 694,-185.3 694,-165.19"/>
<ellipse fill="none" stroke="black" cx="694" cy="-233.8" rx="2.4" ry="2.4"/>
<ellipse fill="black" stroke="black" cx="694" cy="-156.67" rx="2.4" ry="2.4"/>
<polygon fill="black" stroke="black" points="696.1,-165.07 694,-159.07 691.9,-165.07 696.1,-165.07"/>
</g>
<!-- m_Vote&#45;&gt;m_Dislike -->
<g id="edge1" class="edge">
<title>m_Vote&#45;&gt;m_Dislike</title>
<path fill="none" stroke="#999999" d="M768.45,-95.22C772.33,-94.05 776.19,-92.96 780,-92 905.49,-60.27 941.08,-75.78 1069,-56 1093.07,-52.28 1119.27,-47.62 1142.74,-43.23"/>
<polygon fill="none" stroke="#999999" points="766.95,-91.3 756.82,-98.99 769.53,-99.29 766.95,-91.3"/>
</g>
<!-- m_Vote&#45;&gt;m_Like -->
<g id="edge2" class="edge">
<title>m_Vote&#45;&gt;m_Like</title>
<path fill="none" stroke="#999999" d="M772.35,-94.72C774.92,-93.79 777.48,-92.88 780,-92 828.07,-75.2 883.31,-58.21 924.01,-46.11"/>
<polygon fill="none" stroke="#999999" points="770.79,-90.81 760.97,-98.89 773.68,-98.7 770.79,-90.81"/>
</g>
<!-- m_primary::SchemaMigration -->
<g id="node15" class="node">
<title>m_primary::SchemaMigration</title>
<path fill="none" stroke="black" d="M1442,-259C1442,-259 1562,-259 1562,-259 1568,-259 1574,-265 1574,-271 1574,-271 1574,-283 1574,-283 1574,-289 1568,-295 1562,-295 1562,-295 1442,-295 1442,-295 1436,-295 1430,-289 1430,-283 1430,-283 1430,-271 1430,-271 1430,-265 1436,-259 1442,-259"/>
<text text-anchor="start" x="1435.81" y="-273.2" font-family="Arial BoldMT" font-size="11.00">primary::SchemaMigration</text>
</g>
</g>
</svg>
