<?xml version="1.0" encoding="UTF-8" standalone="no"?>
<!DOCTYPE svg PUBLIC "-//W3C//DTD SVG 1.1//EN"
 "http://www.w3.org/Graphics/SVG/1.1/DTD/svg11.dtd">
<!-- Generated by graphviz version 2.38.0 (20140413.2041)
 -->
<!-- Title: Books Pages: 1 -->
<svg width="1039pt" height="412pt"
 viewBox="0.00 0.00 1039.39 411.60" xmlns="http://www.w3.org/2000/svg" xmlns:xlink="http://www.w3.org/1999/xlink">
<g id="graph0" class="graph" transform="scale(1 1) rotate(0) translate(28.8 382.8)">
<title>Books</title>
<polygon fill="white" stroke="none" points="-28.8,28.8 -28.8,-382.8 1010.59,-382.8 1010.59,28.8 -28.8,28.8"/>
<text text-anchor="middle" x="490.893" y="-339.6" font-family="Arial BoldMT" font-size="13.00">Class Diagram Books</text>
<!-- m_Book -->
<g id="node1" class="node"><title>m_Book</title>
<path fill="none" stroke="black" d="M501.786,-197.5C501.786,-197.5 621.786,-197.5 621.786,-197.5 627.786,-197.5 633.786,-203.5 633.786,-209.5 633.786,-209.5 633.786,-305.5 633.786,-305.5 633.786,-311.5 627.786,-317.5 621.786,-317.5 621.786,-317.5 501.786,-317.5 501.786,-317.5 495.786,-317.5 489.786,-311.5 489.786,-305.5 489.786,-305.5 489.786,-209.5 489.786,-209.5 489.786,-203.5 495.786,-197.5 501.786,-197.5"/>
<text text-anchor="start" x="547.25" y="-304.2" font-family="Arial BoldMT" font-size="11.00">Book</text>
<polyline fill="none" stroke="black" points="489.786,-298.5 633.786,-298.5 "/>
<text text-anchor="start" x="496.786" y="-285" font-family="ArialMT" font-size="10.00">deleted_at </text>
<text text-anchor="start" x="546.273" y="-285" font-family="Arial ItalicMT" font-size="10.00" fill="#999999">datetime</text>
<text text-anchor="start" x="496.786" y="-272" font-family="ArialMT" font-size="10.00">dislikes_count </text>
<text text-anchor="start" x="562.377" y="-272" font-family="Arial ItalicMT" font-size="10.00" fill="#999999">integer</text>
<text text-anchor="start" x="496.786" y="-259" font-family="ArialMT" font-size="10.00">likes_count </text>
<text text-anchor="start" x="549.593" y="-259" font-family="Arial ItalicMT" font-size="10.00" fill="#999999">integer</text>
<text text-anchor="start" x="496.786" y="-246" font-family="ArialMT" font-size="10.00">link </text>
<text text-anchor="start" x="514.569" y="-246" font-family="Arial ItalicMT" font-size="10.00" fill="#999999">string (2048)</text>
<text text-anchor="start" x="496.786" y="-233" font-family="ArialMT" font-size="10.00">summary </text>
<text text-anchor="start" x="540.677" y="-233" font-family="Arial ItalicMT" font-size="10.00" fill="#999999">string (2048)</text>
<text text-anchor="start" x="496.786" y="-220" font-family="ArialMT" font-size="10.00">title </text>
<text text-anchor="start" x="515.126" y="-220" font-family="Arial ItalicMT" font-size="10.00" fill="#999999">string (255) ∗</text>
<text text-anchor="start" x="496.786" y="-207" font-family="ArialMT" font-size="10.00">type </text>
<text text-anchor="start" x="518.466" y="-207" font-family="Arial ItalicMT" font-size="10.00" fill="#999999">string</text>
</g>
<!-- m_Comment -->
<g id="node3" class="node"><title>m_Comment</title>
<path fill="none" stroke="black" d="M385.786,-105.5C385.786,-105.5 505.786,-105.5 505.786,-105.5 511.786,-105.5 517.786,-111.5 517.786,-117.5 517.786,-117.5 517.786,-135.5 517.786,-135.5 517.786,-141.5 511.786,-147.5 505.786,-147.5 505.786,-147.5 385.786,-147.5 385.786,-147.5 379.786,-147.5 373.786,-141.5 373.786,-135.5 373.786,-135.5 373.786,-117.5 373.786,-117.5 373.786,-111.5 379.786,-105.5 385.786,-105.5"/>
<text text-anchor="start" x="419.946" y="-134.2" font-family="Arial BoldMT" font-size="11.00">Comment</text>
<polyline fill="none" stroke="black" points="373.786,-128.5 517.786,-128.5 "/>
<text text-anchor="start" x="380.786" y="-115" font-family="ArialMT" font-size="10.00">body </text>
<text text-anchor="start" x="405.249" y="-115" font-family="Arial ItalicMT" font-size="10.00" fill="#999999">string (1024)</text>
</g>
<!-- m_Book&#45;&gt;m_Comment -->
<g id="edge15" class="edge"><title>m_Book&#45;&gt;m_Comment</title>
<path fill="none" stroke="black" d="M505.141,-193.507C493.195,-180.222 481.172,-166.852 471.101,-155.652"/>
<ellipse fill="none" stroke="black" cx="506.934" cy="-195.501" rx="2.40002" ry="2.40002"/>
<ellipse fill="black" stroke="black" cx="465.418" cy="-149.332" rx="2.40001" ry="2.40001"/>
<polygon fill="black" stroke="black" points="472.596,-154.174 467.023,-151.117 469.473,-156.983 472.596,-154.174"/>
</g>
<!-- m_Copy -->
<g id="node4" class="node"><title>m_Copy</title>
<path fill="none" stroke="black" d="M39.7858,-92.5C39.7858,-92.5 159.786,-92.5 159.786,-92.5 165.786,-92.5 171.786,-98.5 171.786,-104.5 171.786,-104.5 171.786,-148.5 171.786,-148.5 171.786,-154.5 165.786,-160.5 159.786,-160.5 159.786,-160.5 39.7858,-160.5 39.7858,-160.5 33.7858,-160.5 27.7858,-154.5 27.7858,-148.5 27.7858,-148.5 27.7858,-104.5 27.7858,-104.5 27.7858,-98.5 33.7858,-92.5 39.7858,-92.5"/>
<text text-anchor="start" x="84.9462" y="-147.2" font-family="Arial BoldMT" font-size="11.00">Copy</text>
<polyline fill="none" stroke="black" points="27.7858,-141.5 171.786,-141.5 "/>
<text text-anchor="start" x="34.7858" y="-128" font-family="ArialMT" font-size="10.00">borrowings_count </text>
<text text-anchor="start" x="116.5" y="-128" font-family="Arial ItalicMT" font-size="10.00" fill="#999999">integer</text>
<text text-anchor="start" x="34.7858" y="-115" font-family="ArialMT" font-size="10.00">deleted_at </text>
<text text-anchor="start" x="84.2731" y="-115" font-family="Arial ItalicMT" font-size="10.00" fill="#999999">datetime</text>
<text text-anchor="start" x="34.7858" y="-102" font-family="ArialMT" font-size="10.00">number </text>
<text text-anchor="start" x="71.4704" y="-102" font-family="Arial ItalicMT" font-size="10.00" fill="#999999">integer</text>
</g>
<!-- m_Book&#45;&gt;m_Copy -->
<g id="edge8" class="edge"><title>m_Book&#45;&gt;m_Copy</title>
<path fill="none" stroke="black" d="M484.903,-231.43C448.683,-220.097 404.748,-207.029 364.786,-197 286.078,-177.247 263.662,-183.812 185.786,-161 184.81,-160.714 183.83,-160.422 182.847,-160.124"/>
<ellipse fill="none" stroke="black" cx="487.443" cy="-232.228" rx="2.40001" ry="2.40001"/>
<ellipse fill="black" stroke="black" cx="174.493" cy="-157.456" rx="2.40001" ry="2.40001"/>
<polygon fill="black" stroke="black" points="183.133,-158.011 176.779,-158.186 181.856,-162.012 183.133,-158.011"/>
</g>
<!-- m_Dislike -->
<g id="node5" class="node"><title>m_Dislike</title>
<path fill="none" stroke="#999999" d="M501.786,-10C501.786,-10 621.786,-10 621.786,-10 627.786,-10 633.786,-16 633.786,-22 633.786,-22 633.786,-34 633.786,-34 633.786,-40 627.786,-46 621.786,-46 621.786,-46 501.786,-46 501.786,-46 495.786,-46 489.786,-40 489.786,-34 489.786,-34 489.786,-22 489.786,-22 489.786,-16 495.786,-10 501.786,-10"/>
<text text-anchor="start" x="543.589" y="-24.2" font-family="Arial BoldMT" font-size="11.00" fill="#999999">Dislike</text>
</g>
<!-- m_Book&#45;&gt;m_Dislike -->
<g id="edge7" class="edge"><title>m_Book&#45;&gt;m_Dislike</title>
<path fill="none" stroke="black" d="M561.786,-192.238C561.786,-147.802 561.786,-90.85 561.786,-57.3024"/>
<ellipse fill="none" stroke="black" cx="561.786" cy="-194.921" rx="2.4" ry="2.4"/>
<ellipse fill="black" stroke="black" cx="561.786" cy="-48.4682" rx="2.4" ry="2.4"/>
<polygon fill="black" stroke="black" points="563.886,-56.8682 561.786,-50.8682 559.686,-56.8682 563.886,-56.8682"/>
</g>
<!-- m_Ebook -->
<g id="node6" class="node"><title>m_Ebook</title>
<path fill="none" stroke="#999999" d="M849.786,-108.5C849.786,-108.5 969.786,-108.5 969.786,-108.5 975.786,-108.5 981.786,-114.5 981.786,-120.5 981.786,-120.5 981.786,-132.5 981.786,-132.5 981.786,-138.5 975.786,-144.5 969.786,-144.5 969.786,-144.5 849.786,-144.5 849.786,-144.5 843.786,-144.5 837.786,-138.5 837.786,-132.5 837.786,-132.5 837.786,-120.5 837.786,-120.5 837.786,-114.5 843.786,-108.5 849.786,-108.5"/>
<text text-anchor="start" x="892.191" y="-122.7" font-family="Arial BoldMT" font-size="11.00" fill="#999999">Ebook</text>
</g>
<!-- m_Book&#45;&gt;m_Ebook -->
<g id="edge1" class="edge"><title>m_Book&#45;&gt;m_Ebook</title>
<path fill="none" stroke="#999999" d="M645.51,-225.464C714.019,-200.069 808.351,-165.101 863.818,-144.54"/>
<polygon fill="none" stroke="#999999" points="643.684,-221.662 633.892,-229.771 646.603,-229.538 643.684,-221.662"/>
</g>
<!-- m_Like -->
<g id="node7" class="node"><title>m_Like</title>
<path fill="none" stroke="#999999" d="M733.786,-10C733.786,-10 853.786,-10 853.786,-10 859.786,-10 865.786,-16 865.786,-22 865.786,-22 865.786,-34 865.786,-34 865.786,-40 859.786,-46 853.786,-46 853.786,-46 733.786,-46 733.786,-46 727.786,-46 721.786,-40 721.786,-34 721.786,-34 721.786,-22 721.786,-22 721.786,-16 727.786,-10 733.786,-10"/>
<text text-anchor="start" x="781.696" y="-24.2" font-family="Arial BoldMT" font-size="11.00" fill="#999999">Like</text>
</g>
<!-- m_Book&#45;&gt;m_Like -->
<g id="edge6" class="edge"><title>m_Book&#45;&gt;m_Like</title>
<path fill="none" stroke="black" d="M638.664,-238.396C681.91,-224.317 733.371,-200.355 764.786,-161 788.458,-131.345 793.795,-86.4807 794.515,-57.4571"/>
<ellipse fill="none" stroke="black" cx="636.257" cy="-239.165" rx="2.40001" ry="2.40001"/>
<ellipse fill="black" stroke="black" cx="794.57" cy="-48.844" rx="2.4" ry="2.4"/>
<polygon fill="black" stroke="black" points="796.616,-57.2573 794.555,-51.244 792.416,-57.2303 796.616,-57.2573"/>
</g>
<!-- m_PrintedBook -->
<g id="node9" class="node"><title>m_PrintedBook</title>
<path fill="none" stroke="#999999" d="M617.786,-108.5C617.786,-108.5 737.786,-108.5 737.786,-108.5 743.786,-108.5 749.786,-114.5 749.786,-120.5 749.786,-120.5 749.786,-132.5 749.786,-132.5 749.786,-138.5 743.786,-144.5 737.786,-144.5 737.786,-144.5 617.786,-144.5 617.786,-144.5 611.786,-144.5 605.786,-138.5 605.786,-132.5 605.786,-132.5 605.786,-120.5 605.786,-120.5 605.786,-114.5 611.786,-108.5 617.786,-108.5"/>
<text text-anchor="start" x="645.823" y="-122.7" font-family="Arial BoldMT" font-size="11.00" fill="#999999">PrintedBook</text>
</g>
<!-- m_Book&#45;&gt;m_PrintedBook -->
<g id="edge2" class="edge"><title>m_Book&#45;&gt;m_PrintedBook</title>
<path fill="none" stroke="#999999" d="M623.147,-188.262C637.742,-172.031 652.053,-156.117 662.365,-144.649"/>
<polygon fill="none" stroke="#999999" points="619.933,-185.554 615.033,-197.286 626.18,-191.171 619.933,-185.554"/>
</g>
<!-- m_Vote -->
<g id="node11" class="node"><title>m_Vote</title>
<path fill="none" stroke="black" d="M212.786,-99C212.786,-99 332.786,-99 332.786,-99 338.786,-99 344.786,-105 344.786,-111 344.786,-111 344.786,-142 344.786,-142 344.786,-148 338.786,-154 332.786,-154 332.786,-154 212.786,-154 212.786,-154 206.786,-154 200.786,-148 200.786,-142 200.786,-142 200.786,-111 200.786,-111 200.786,-105 206.786,-99 212.786,-99"/>
<text text-anchor="start" x="259.772" y="-140.7" font-family="Arial BoldMT" font-size="11.00">Vote</text>
<polyline fill="none" stroke="black" points="200.786,-135 344.786,-135 "/>
<text text-anchor="start" x="207.786" y="-122" font-family="ArialMT" font-size="10.00">deleted_at </text>
<text text-anchor="start" x="257.273" y="-122" font-family="Arial ItalicMT" font-size="10.00" fill="#999999">datetime</text>
<text text-anchor="start" x="207.786" y="-109" font-family="ArialMT" font-size="10.00">type </text>
<text text-anchor="start" x="229.466" y="-109" font-family="Arial ItalicMT" font-size="10.00" fill="#999999">string</text>
</g>
<!-- m_Book&#45;&gt;m_Vote -->
<g id="edge5" class="edge"><title>m_Book&#45;&gt;m_Vote</title>
<path fill="none" stroke="black" d="M485.017,-222.233C440.742,-202.47 385.502,-177.813 342.479,-158.609"/>
<ellipse fill="none" stroke="black" cx="487.413" cy="-223.302" rx="2.40002" ry="2.40002"/>
<ellipse fill="none" stroke="black" cx="334.571" cy="-155.079" rx="2.40001" ry="2.40001"/>
<polygon fill="black" stroke="black" points="343.097,-156.585 336.762,-156.057 341.385,-160.42 343.097,-156.585"/>
</g>
<!-- m_Borrowing -->
<g id="node2" class="node"><title>m_Borrowing</title>
<path fill="none" stroke="black" d="M39.7858,-0.5C39.7858,-0.5 159.786,-0.5 159.786,-0.5 165.786,-0.5 171.786,-6.5 171.786,-12.5 171.786,-12.5 171.786,-43.5 171.786,-43.5 171.786,-49.5 165.786,-55.5 159.786,-55.5 159.786,-55.5 39.7858,-55.5 39.7858,-55.5 33.7858,-55.5 27.7858,-49.5 27.7858,-43.5 27.7858,-43.5 27.7858,-12.5 27.7858,-12.5 27.7858,-6.5 33.7858,-0.5 39.7858,-0.5"/>
<text text-anchor="start" x="73.0251" y="-42.2" font-family="Arial BoldMT" font-size="11.00">Borrowing</text>
<polyline fill="none" stroke="black" points="27.7858,-36.5 171.786,-36.5 "/>
<text text-anchor="start" x="34.7858" y="-23.5" font-family="ArialMT" font-size="10.00">borrowed_at </text>
<text text-anchor="start" x="93.155" y="-23.5" font-family="Arial ItalicMT" font-size="10.00" fill="#999999">datetime</text>
<text text-anchor="start" x="34.7858" y="-10.5" font-family="ArialMT" font-size="10.00">deleted_at </text>
<text text-anchor="start" x="84.2731" y="-10.5" font-family="Arial ItalicMT" font-size="10.00" fill="#999999">datetime</text>
</g>
<!-- m_Copy&#45;&gt;m_Borrowing -->
<g id="edge12" class="edge"><title>m_Copy&#45;&gt;m_Borrowing</title>
<path fill="none" stroke="black" d="M99.7858,-87.4463C99.7858,-80.6129 99.7858,-73.4937 99.7858,-66.6712"/>
<ellipse fill="none" stroke="black" cx="99.7859" cy="-89.8902" rx="2.4" ry="2.4"/>
<ellipse fill="black" stroke="black" cx="99.7858" cy="-57.9726" rx="2.4" ry="2.4"/>
<polygon fill="black" stroke="black" points="101.886,-66.3725 99.7859,-60.3726 97.6859,-66.3726 101.886,-66.3725"/>
</g>
<!-- m_Location -->
<g id="node8" class="node"><title>m_Location</title>
<path fill="none" stroke="black" d="M33.7858,-236.5C33.7858,-236.5 153.786,-236.5 153.786,-236.5 159.786,-236.5 165.786,-242.5 165.786,-248.5 165.786,-248.5 165.786,-266.5 165.786,-266.5 165.786,-272.5 159.786,-278.5 153.786,-278.5 153.786,-278.5 33.7858,-278.5 33.7858,-278.5 27.7858,-278.5 21.7858,-272.5 21.7858,-266.5 21.7858,-266.5 21.7858,-248.5 21.7858,-248.5 21.7858,-242.5 27.7858,-236.5 33.7858,-236.5"/>
<text text-anchor="start" x="70.9916" y="-265.2" font-family="Arial BoldMT" font-size="11.00">Location</text>
<polyline fill="none" stroke="black" points="21.7858,-259.5 165.786,-259.5 "/>
<text text-anchor="start" x="28.7858" y="-246" font-family="ArialMT" font-size="10.00">city </text>
<text text-anchor="start" x="46.5641" y="-246" font-family="Arial ItalicMT" font-size="10.00" fill="#999999">string (255) ∗</text>
</g>
<!-- m_Location&#45;&gt;m_Copy -->
<g id="edge11" class="edge"><title>m_Location&#45;&gt;m_Copy</title>
<path fill="none" stroke="black" d="M94.9535,-231.396C95.7428,-214.425 96.8065,-191.556 97.7349,-171.595"/>
<ellipse fill="none" stroke="black" cx="94.8349" cy="-233.946" rx="2.4" ry="2.4"/>
<ellipse fill="black" stroke="black" cx="98.1369" cy="-162.951" rx="2.4" ry="2.4"/>
<polygon fill="black" stroke="black" points="99.8443,-171.439 98.0254,-165.348 95.6489,-171.244 99.8443,-171.439"/>
</g>
<!-- m_PrintedBook&#45;&gt;m_Borrowing -->
<g id="edge9" class="edge"><title>m_PrintedBook&#45;&gt;m_Borrowing</title>
<path fill="none" stroke="black" stroke-dasharray="1,5" d="M604.585,-107.349C581.678,-102.003 556.255,-96.4106 532.786,-92 411.789,-69.2606 270.451,-50.0631 183.022,-39.0367"/>
<ellipse fill="none" stroke="black" cx="607.097" cy="-107.938" rx="2.40001" ry="2.40001"/>
<ellipse fill="none" stroke="black" cx="174.487" cy="-37.9659" rx="2.4" ry="2.4"/>
<polygon fill="black" stroke="black" points="183.083,-36.928 176.868,-38.2647 182.56,-41.0953 183.083,-36.928"/>
</g>
<!-- m_User -->
<g id="node10" class="node"><title>m_User</title>
<path fill="none" stroke="black" d="M206.786,-217C206.786,-217 338.786,-217 338.786,-217 344.786,-217 350.786,-223 350.786,-229 350.786,-229 350.786,-286 350.786,-286 350.786,-292 344.786,-298 338.786,-298 338.786,-298 206.786,-298 206.786,-298 200.786,-298 194.786,-292 194.786,-286 194.786,-286 194.786,-229 194.786,-229 194.786,-223 200.786,-217 206.786,-217"/>
<text text-anchor="start" x="259.174" y="-284.7" font-family="Arial BoldMT" font-size="11.00">User</text>
<polyline fill="none" stroke="black" points="194.786,-279 350.786,-279 "/>
<text text-anchor="start" x="201.786" y="-266" font-family="ArialMT" font-size="10.00">email </text>
<text text-anchor="start" x="228.461" y="-266" font-family="Arial ItalicMT" font-size="10.00" fill="#999999">string (255) ∗ U</text>
<text text-anchor="start" x="201.786" y="-253" font-family="ArialMT" font-size="10.00">login_token </text>
<text text-anchor="start" x="255.716" y="-253" font-family="Arial ItalicMT" font-size="10.00" fill="#999999">string</text>
<text text-anchor="start" x="201.626" y="-240" font-family="ArialMT" font-size="10.00">login_token_valid_until </text>
<text text-anchor="start" x="305.591" y="-240" font-family="Arial ItalicMT" font-size="10.00" fill="#999999">datetime</text>
<text text-anchor="start" x="201.786" y="-227" font-family="ArialMT" font-size="10.00">name </text>
<text text-anchor="start" x="229.579" y="-227" font-family="Arial ItalicMT" font-size="10.00" fill="#999999">string (100)</text>
</g>
<!-- m_User&#45;&gt;m_Borrowing -->
<g id="edge13" class="edge"><title>m_User&#45;&gt;m_Borrowing</title>
<path fill="none" stroke="black" d="M213.684,-214.316C202.772,-207.811 191.207,-201.705 179.786,-197 109.581,-168.081 60.4833,-220.075 12.7858,-161 -6.47899,-137.14 -1.15807,-119.313 12.7858,-92 18.6816,-80.4514 27.7927,-70.5286 37.9376,-62.2005"/>
<ellipse fill="none" stroke="black" cx="215.94" cy="-215.682" rx="2.40002" ry="2.40002"/>
<ellipse fill="black" stroke="black" cx="44.7434" cy="-57.0309" rx="2.40001" ry="2.40001"/>
<polygon fill="black" stroke="black" points="39.3245,-63.7841 42.8322,-58.4826 36.784,-60.4396 39.3245,-63.7841"/>
</g>
<!-- m_User&#45;&gt;m_Comment -->
<g id="edge14" class="edge"><title>m_User&#45;&gt;m_Comment</title>
<path fill="none" stroke="black" d="M330.08,-213.778C356.358,-194.183 386.712,-171.549 409.735,-154.382"/>
<ellipse fill="none" stroke="black" cx="328.027" cy="-215.308" rx="2.40002" ry="2.40002"/>
<ellipse fill="black" stroke="black" cx="416.566" cy="-149.288" rx="2.40001" ry="2.40001"/>
<polygon fill="black" stroke="black" points="411.087,-155.993 414.642,-150.723 408.576,-152.626 411.087,-155.993"/>
</g>
<!-- m_User&#45;&gt;m_Vote -->
<g id="edge10" class="edge"><title>m_User&#45;&gt;m_Vote</title>
<path fill="none" stroke="black" d="M272.786,-211.923C272.786,-196.775 272.786,-180.001 272.786,-165.422"/>
<ellipse fill="none" stroke="black" cx="272.786" cy="-214.343" rx="2.4" ry="2.4"/>
<ellipse fill="black" stroke="black" cx="272.786" cy="-156.674" rx="2.4" ry="2.4"/>
<polygon fill="black" stroke="black" points="274.886,-165.074 272.786,-159.074 270.686,-165.074 274.886,-165.074"/>
</g>
<!-- m_Vote&#45;&gt;m_Dislike -->
<g id="edge3" class="edge"><title>m_Vote&#45;&gt;m_Dislike</title>
<path fill="none" stroke="#999999" d="M351.134,-94.7158C353.711,-93.7881 356.266,-92.8804 358.786,-92 406.859,-75.2008 462.093,-58.2062 502.797,-46.1085"/>
<polygon fill="none" stroke="#999999" points="349.573,-90.8147 339.752,-98.8885 352.464,-98.7015 349.573,-90.8147"/>
</g>
<!-- m_Vote&#45;&gt;m_Like -->
<g id="edge4" class="edge"><title>m_Vote&#45;&gt;m_Like</title>
<path fill="none" stroke="#999999" d="M347.236,-95.2209C351.114,-94.0461 354.98,-92.9616 358.786,-92 484.707,-60.1849 520.441,-75.8969 648.786,-56 672.572,-52.3126 698.44,-47.6928 721.654,-43.3225"/>
<polygon fill="none" stroke="#999999" points="345.732,-91.2932 335.609,-98.9846 348.319,-99.285 345.732,-91.2932"/>
</g>
</g>
</svg>
