<?xml version="1.0" encoding="UTF-8" standalone="no"?>
<!DOCTYPE svg PUBLIC "-//W3C//DTD SVG 1.1//EN"
 "http://www.w3.org/Graphics/SVG/1.1/DTD/svg11.dtd">
<!-- Generated by graphviz version 2.38.0 (20140413.2041)
 -->
<!-- Title: Books Pages: 1 -->
<svg width="1408pt" height="438pt"
 viewBox="0.00 0.00 1407.60 437.60" xmlns="http://www.w3.org/2000/svg" xmlns:xlink="http://www.w3.org/1999/xlink">
<g id="graph0" class="graph" transform="scale(1 1) rotate(0) translate(28.8 408.8)">
<title>Books</title>
<polygon fill="white" stroke="none" points="-28.8,28.8 -28.8,-408.8 1378.8,-408.8 1378.8,28.8 -28.8,28.8"/>
<text text-anchor="middle" x="675" y="-365.6" font-family="Arial BoldMT" font-size="13.00">Class Diagram Books</text>
<!-- m_ActiveRecord::InternalMetadata -->
<g id="node1" class="node"><title>m_ActiveRecord::InternalMetadata</title>
<path fill="none" stroke="black" d="M12,-249.5C12,-249.5 152,-249.5 152,-249.5 158,-249.5 164,-255.5 164,-261.5 164,-261.5 164,-279.5 164,-279.5 164,-285.5 158,-291.5 152,-291.5 152,-291.5 12,-291.5 12,-291.5 6,-291.5 0,-285.5 0,-279.5 0,-279.5 0,-261.5 0,-261.5 0,-255.5 6,-249.5 12,-249.5"/>
<text text-anchor="start" x="4.95972" y="-278.2" font-family="Arial BoldMT" font-size="11.00">ActiveRecord::InternalMetadata</text>
<polyline fill="none" stroke="black" points="0,-272.5 164,-272.5 "/>
<text text-anchor="start" x="17" y="-259" font-family="ArialMT" font-size="10.00">value </text>
<text text-anchor="start" x="43.6846" y="-259" font-family="Arial ItalicMT" font-size="10.00" fill="#999999">string</text>
</g>
<!-- m_ActiveRecord::SchemaMigration -->
<g id="node2" class="node"><title>m_ActiveRecord::SchemaMigration</title>
<path fill="none" stroke="black" d="M205.5,-252.5C205.5,-252.5 348.5,-252.5 348.5,-252.5 354.5,-252.5 360.5,-258.5 360.5,-264.5 360.5,-264.5 360.5,-276.5 360.5,-276.5 360.5,-282.5 354.5,-288.5 348.5,-288.5 348.5,-288.5 205.5,-288.5 205.5,-288.5 199.5,-288.5 193.5,-282.5 193.5,-276.5 193.5,-276.5 193.5,-264.5 193.5,-264.5 193.5,-258.5 199.5,-252.5 205.5,-252.5"/>
<text text-anchor="start" x="198.94" y="-266.7" font-family="Arial BoldMT" font-size="11.00">ActiveRecord::SchemaMigration</text>
</g>
<!-- m_Book -->
<g id="node3" class="node"><title>m_Book</title>
<path fill="none" stroke="black" d="M760,-197.5C760,-197.5 880,-197.5 880,-197.5 886,-197.5 892,-203.5 892,-209.5 892,-209.5 892,-331.5 892,-331.5 892,-337.5 886,-343.5 880,-343.5 880,-343.5 760,-343.5 760,-343.5 754,-343.5 748,-337.5 748,-331.5 748,-331.5 748,-209.5 748,-209.5 748,-203.5 754,-197.5 760,-197.5"/>
<text text-anchor="start" x="805.464" y="-330.2" font-family="Arial BoldMT" font-size="11.00">Book</text>
<polyline fill="none" stroke="black" points="748,-324.5 892,-324.5 "/>
<text text-anchor="start" x="755" y="-311" font-family="ArialMT" font-size="10.00">comments_count </text>
<text text-anchor="start" x="833.926" y="-311" font-family="Arial ItalicMT" font-size="10.00" fill="#999999">integer</text>
<text text-anchor="start" x="755" y="-298" font-family="ArialMT" font-size="10.00">cover </text>
<text text-anchor="start" x="782.231" y="-298" font-family="Arial ItalicMT" font-size="10.00" fill="#999999">string</text>
<text text-anchor="start" x="755" y="-285" font-family="ArialMT" font-size="10.00">deleted_at </text>
<text text-anchor="start" x="804.487" y="-285" font-family="Arial ItalicMT" font-size="10.00" fill="#999999">datetime</text>
<text text-anchor="start" x="755" y="-272" font-family="ArialMT" font-size="10.00">dislikes_count </text>
<text text-anchor="start" x="820.591" y="-272" font-family="Arial ItalicMT" font-size="10.00" fill="#999999">integer</text>
<text text-anchor="start" x="755" y="-259" font-family="ArialMT" font-size="10.00">likes_count </text>
<text text-anchor="start" x="807.808" y="-259" font-family="Arial ItalicMT" font-size="10.00" fill="#999999">integer</text>
<text text-anchor="start" x="755" y="-246" font-family="ArialMT" font-size="10.00">link </text>
<text text-anchor="start" x="772.783" y="-246" font-family="Arial ItalicMT" font-size="10.00" fill="#999999">string (2048)</text>
<text text-anchor="start" x="755" y="-233" font-family="ArialMT" font-size="10.00">summary </text>
<text text-anchor="start" x="798.892" y="-233" font-family="Arial ItalicMT" font-size="10.00" fill="#999999">string (2048)</text>
<text text-anchor="start" x="755" y="-220" font-family="ArialMT" font-size="10.00">title </text>
<text text-anchor="start" x="773.34" y="-220" font-family="Arial ItalicMT" font-size="10.00" fill="#999999">string (255) ∗</text>
<text text-anchor="start" x="755" y="-207" font-family="ArialMT" font-size="10.00">type </text>
<text text-anchor="start" x="776.68" y="-207" font-family="Arial ItalicMT" font-size="10.00" fill="#999999">string</text>
</g>
<!-- m_Comment -->
<g id="node5" class="node"><title>m_Comment</title>
<path fill="none" stroke="black" d="M754,-99C754,-99 874,-99 874,-99 880,-99 886,-105 886,-111 886,-111 886,-142 886,-142 886,-148 880,-154 874,-154 874,-154 754,-154 754,-154 748,-154 742,-148 742,-142 742,-142 742,-111 742,-111 742,-105 748,-99 754,-99"/>
<text text-anchor="start" x="788.16" y="-140.7" font-family="Arial BoldMT" font-size="11.00">Comment</text>
<polyline fill="none" stroke="black" points="742,-135 886,-135 "/>
<text text-anchor="start" x="749" y="-122" font-family="ArialMT" font-size="10.00">body </text>
<text text-anchor="start" x="773.463" y="-122" font-family="Arial ItalicMT" font-size="10.00" fill="#999999">string (1024) ∗</text>
<text text-anchor="start" x="749" y="-109" font-family="ArialMT" font-size="10.00">deleted_at </text>
<text text-anchor="start" x="798.487" y="-109" font-family="Arial ItalicMT" font-size="10.00" fill="#999999">datetime</text>
</g>
<!-- m_Book&#45;&gt;m_Comment -->
<g id="edge8" class="edge"><title>m_Book&#45;&gt;m_Comment</title>
<path fill="none" stroke="black" d="M816.735,-192.223C816.339,-182.857 815.95,-173.638 815.594,-165.225"/>
<ellipse fill="none" stroke="black" cx="816.846" cy="-194.854" rx="2.4" ry="2.4"/>
<ellipse fill="black" stroke="black" cx="815.234" cy="-156.711" rx="2.4" ry="2.4"/>
<polygon fill="black" stroke="black" points="817.687,-165.015 815.336,-159.109 813.491,-165.192 817.687,-165.015"/>
</g>
<!-- m_Copy -->
<g id="node6" class="node"><title>m_Copy</title>
<path fill="none" stroke="black" d="M408,-92.5C408,-92.5 528,-92.5 528,-92.5 534,-92.5 540,-98.5 540,-104.5 540,-104.5 540,-148.5 540,-148.5 540,-154.5 534,-160.5 528,-160.5 528,-160.5 408,-160.5 408,-160.5 402,-160.5 396,-154.5 396,-148.5 396,-148.5 396,-104.5 396,-104.5 396,-98.5 402,-92.5 408,-92.5"/>
<text text-anchor="start" x="453.16" y="-147.2" font-family="Arial BoldMT" font-size="11.00">Copy</text>
<polyline fill="none" stroke="black" points="396,-141.5 540,-141.5 "/>
<text text-anchor="start" x="403" y="-128" font-family="ArialMT" font-size="10.00">borrowings_count </text>
<text text-anchor="start" x="484.714" y="-128" font-family="Arial ItalicMT" font-size="10.00" fill="#999999">integer</text>
<text text-anchor="start" x="403" y="-115" font-family="ArialMT" font-size="10.00">deleted_at </text>
<text text-anchor="start" x="452.487" y="-115" font-family="Arial ItalicMT" font-size="10.00" fill="#999999">datetime</text>
<text text-anchor="start" x="403" y="-102" font-family="ArialMT" font-size="10.00">number </text>
<text text-anchor="start" x="439.685" y="-102" font-family="Arial ItalicMT" font-size="10.00" fill="#999999">integer</text>
</g>
<!-- m_Book&#45;&gt;m_Copy -->
<g id="edge9" class="edge"><title>m_Book&#45;&gt;m_Copy</title>
<path fill="none" stroke="black" d="M743.805,-202.735C740.241,-200.665 736.632,-198.739 733,-197 659.811,-161.952 631.876,-183.812 554,-161 553.025,-160.714 552.045,-160.422 551.061,-160.124"/>
<ellipse fill="none" stroke="black" cx="745.91" cy="-203.996" rx="2.40002" ry="2.40002"/>
<ellipse fill="black" stroke="black" cx="542.707" cy="-157.456" rx="2.40001" ry="2.40001"/>
<polygon fill="black" stroke="black" points="551.347,-158.011 544.993,-158.186 550.07,-162.012 551.347,-158.011"/>
</g>
<!-- m_Dislike -->
<g id="node7" class="node"><title>m_Dislike</title>
<path fill="none" stroke="#999999" d="M870,-10C870,-10 990,-10 990,-10 996,-10 1002,-16 1002,-22 1002,-22 1002,-34 1002,-34 1002,-40 996,-46 990,-46 990,-46 870,-46 870,-46 864,-46 858,-40 858,-34 858,-34 858,-22 858,-22 858,-16 864,-10 870,-10"/>
<text text-anchor="start" x="911.803" y="-24.2" font-family="Arial BoldMT" font-size="11.00" fill="#999999">Dislike</text>
</g>
<!-- m_Book&#45;&gt;m_Dislike -->
<g id="edge7" class="edge"><title>m_Book&#45;&gt;m_Dislike</title>
<path fill="none" stroke="black" d="M882.1,-193.204C888.817,-182.773 895.011,-171.895 900,-161 915.496,-127.159 923.301,-84.6694 927,-57.1839"/>
<ellipse fill="none" stroke="black" cx="880.713" cy="-195.325" rx="2.40002" ry="2.40002"/>
<ellipse fill="black" stroke="black" cx="928.047" cy="-48.7735" rx="2.4" ry="2.4"/>
<polygon fill="black" stroke="black" points="929.093,-57.3687 927.751,-51.1551 924.925,-56.8495 929.093,-57.3687"/>
</g>
<!-- m_Ebook -->
<g id="node8" class="node"><title>m_Ebook</title>
<path fill="none" stroke="#999999" d="M1218,-108.5C1218,-108.5 1338,-108.5 1338,-108.5 1344,-108.5 1350,-114.5 1350,-120.5 1350,-120.5 1350,-132.5 1350,-132.5 1350,-138.5 1344,-144.5 1338,-144.5 1338,-144.5 1218,-144.5 1218,-144.5 1212,-144.5 1206,-138.5 1206,-132.5 1206,-132.5 1206,-120.5 1206,-120.5 1206,-114.5 1212,-108.5 1218,-108.5"/>
<text text-anchor="start" x="1260.41" y="-122.7" font-family="Arial BoldMT" font-size="11.00" fill="#999999">Ebook</text>
</g>
<!-- m_Book&#45;&gt;m_Ebook -->
<g id="edge1" class="edge"><title>m_Book&#45;&gt;m_Ebook</title>
<path fill="none" stroke="#999999" d="M902.901,-198.417C903.931,-197.929 904.964,-197.456 906,-197 1020.03,-146.813 1062.85,-190.078 1184,-161 1201.35,-156.835 1219.96,-150.599 1236,-144.632"/>
<polygon fill="none" stroke="#999999" points="900.639,-194.862 892.006,-204.196 904.575,-202.283 900.639,-194.862"/>
</g>
<!-- m_Like -->
<g id="node9" class="node"><title>m_Like</title>
<path fill="none" stroke="#999999" d="M1102,-10C1102,-10 1222,-10 1222,-10 1228,-10 1234,-16 1234,-22 1234,-22 1234,-34 1234,-34 1234,-40 1228,-46 1222,-46 1222,-46 1102,-46 1102,-46 1096,-46 1090,-40 1090,-34 1090,-34 1090,-22 1090,-22 1090,-16 1096,-10 1102,-10"/>
<text text-anchor="start" x="1149.91" y="-24.2" font-family="Arial BoldMT" font-size="11.00" fill="#999999">Like</text>
</g>
<!-- m_Book&#45;&gt;m_Like -->
<g id="edge6" class="edge"><title>m_Book&#45;&gt;m_Like</title>
<path fill="none" stroke="black" d="M896.381,-201.878C899.554,-200.115 902.764,-198.479 906,-197 998.899,-154.523 1058.67,-231.07 1133,-161 1161.19,-134.43 1165.08,-87.2357 1164.29,-57.066"/>
<ellipse fill="none" stroke="black" cx="894.158" cy="-203.16" rx="2.40002" ry="2.40002"/>
<ellipse fill="black" stroke="black" cx="1163.89" cy="-48.437" rx="2.4" ry="2.4"/>
<polygon fill="black" stroke="black" points="1166.38,-56.7296 1164,-50.8344 1162.18,-56.926 1166.38,-56.7296"/>
</g>
<!-- m_PrintedBook -->
<g id="node11" class="node"><title>m_PrintedBook</title>
<path fill="none" stroke="#999999" d="M986,-108.5C986,-108.5 1106,-108.5 1106,-108.5 1112,-108.5 1118,-114.5 1118,-120.5 1118,-120.5 1118,-132.5 1118,-132.5 1118,-138.5 1112,-144.5 1106,-144.5 1106,-144.5 986,-144.5 986,-144.5 980,-144.5 974,-138.5 974,-132.5 974,-132.5 974,-120.5 974,-120.5 974,-114.5 980,-108.5 986,-108.5"/>
<text text-anchor="start" x="1014.04" y="-122.7" font-family="Arial BoldMT" font-size="11.00" fill="#999999">PrintedBook</text>
</g>
<!-- m_Book&#45;&gt;m_PrintedBook -->
<g id="edge2" class="edge"><title>m_Book&#45;&gt;m_PrintedBook</title>
<path fill="none" stroke="#999999" d="M902.137,-199.579C903.426,-198.704 904.714,-197.844 906,-197 937.765,-176.161 976.657,-157.329 1005.38,-144.542"/>
<polygon fill="none" stroke="#999999" points="899.642,-196.199 892.259,-206.549 904.485,-203.062 899.642,-196.199"/>
</g>
<!-- m_Vote -->
<g id="node13" class="node"><title>m_Vote</title>
<path fill="none" stroke="black" d="M581,-99C581,-99 701,-99 701,-99 707,-99 713,-105 713,-111 713,-111 713,-142 713,-142 713,-148 707,-154 701,-154 701,-154 581,-154 581,-154 575,-154 569,-148 569,-142 569,-142 569,-111 569,-111 569,-105 575,-99 581,-99"/>
<text text-anchor="start" x="627.987" y="-140.7" font-family="Arial BoldMT" font-size="11.00">Vote</text>
<polyline fill="none" stroke="black" points="569,-135 713,-135 "/>
<text text-anchor="start" x="576" y="-122" font-family="ArialMT" font-size="10.00">deleted_at </text>
<text text-anchor="start" x="625.487" y="-122" font-family="Arial ItalicMT" font-size="10.00" fill="#999999">datetime</text>
<text text-anchor="start" x="576" y="-109" font-family="ArialMT" font-size="10.00">type </text>
<text text-anchor="start" x="597.68" y="-109" font-family="Arial ItalicMT" font-size="10.00" fill="#999999">string</text>
</g>
<!-- m_Book&#45;&gt;m_Vote -->
<g id="edge5" class="edge"><title>m_Book&#45;&gt;m_Vote</title>
<path fill="none" stroke="black" d="M743.443,-205.362C739.925,-202.522 736.431,-199.723 733,-197 717.796,-184.933 700.91,-172.036 685.798,-160.669"/>
<ellipse fill="none" stroke="black" cx="745.717" cy="-207.202" rx="2.40002" ry="2.40002"/>
<ellipse fill="none" stroke="black" cx="679.051" cy="-155.611" rx="2.40001" ry="2.40001"/>
<polygon fill="black" stroke="black" points="687.032,-158.97 680.971,-157.051 684.512,-162.33 687.032,-158.97"/>
</g>
<!-- m_Borrowing -->
<g id="node4" class="node"><title>m_Borrowing</title>
<path fill="none" stroke="black" d="M408,-0.5C408,-0.5 528,-0.5 528,-0.5 534,-0.5 540,-6.5 540,-12.5 540,-12.5 540,-43.5 540,-43.5 540,-49.5 534,-55.5 528,-55.5 528,-55.5 408,-55.5 408,-55.5 402,-55.5 396,-49.5 396,-43.5 396,-43.5 396,-12.5 396,-12.5 396,-6.5 402,-0.5 408,-0.5"/>
<text text-anchor="start" x="441.239" y="-42.2" font-family="Arial BoldMT" font-size="11.00">Borrowing</text>
<polyline fill="none" stroke="black" points="396,-36.5 540,-36.5 "/>
<text text-anchor="start" x="403" y="-23.5" font-family="ArialMT" font-size="10.00">borrowed_at </text>
<text text-anchor="start" x="461.369" y="-23.5" font-family="Arial ItalicMT" font-size="10.00" fill="#999999">datetime</text>
<text text-anchor="start" x="403" y="-10.5" font-family="ArialMT" font-size="10.00">deleted_at </text>
<text text-anchor="start" x="452.487" y="-10.5" font-family="Arial ItalicMT" font-size="10.00" fill="#999999">datetime</text>
</g>
<!-- m_Copy&#45;&gt;m_Borrowing -->
<g id="edge14" class="edge"><title>m_Copy&#45;&gt;m_Borrowing</title>
<path fill="none" stroke="black" d="M468,-87.4463C468,-80.6129 468,-73.4937 468,-66.6712"/>
<ellipse fill="none" stroke="black" cx="468" cy="-89.8902" rx="2.4" ry="2.4"/>
<ellipse fill="black" stroke="black" cx="468" cy="-57.9726" rx="2.4" ry="2.4"/>
<polygon fill="black" stroke="black" points="470.1,-66.3725 468,-60.3726 465.9,-66.3726 470.1,-66.3725"/>
</g>
<!-- m_Location -->
<g id="node10" class="node"><title>m_Location</title>
<path fill="none" stroke="black" d="M402,-249.5C402,-249.5 522,-249.5 522,-249.5 528,-249.5 534,-255.5 534,-261.5 534,-261.5 534,-279.5 534,-279.5 534,-285.5 528,-291.5 522,-291.5 522,-291.5 402,-291.5 402,-291.5 396,-291.5 390,-285.5 390,-279.5 390,-279.5 390,-261.5 390,-261.5 390,-255.5 396,-249.5 402,-249.5"/>
<text text-anchor="start" x="439.206" y="-278.2" font-family="Arial BoldMT" font-size="11.00">Location</text>
<polyline fill="none" stroke="black" points="390,-272.5 534,-272.5 "/>
<text text-anchor="start" x="397" y="-259" font-family="ArialMT" font-size="10.00">city </text>
<text text-anchor="start" x="414.778" y="-259" font-family="Arial ItalicMT" font-size="10.00" fill="#999999">string (255) ∗</text>
</g>
<!-- m_Location&#45;&gt;m_Copy -->
<g id="edge13" class="edge"><title>m_Location&#45;&gt;m_Copy</title>
<path fill="none" stroke="black" d="M463.062,-244.37C463.913,-224.228 465.128,-195.475 466.14,-171.529"/>
<ellipse fill="none" stroke="black" cx="462.948" cy="-247.058" rx="2.4" ry="2.4"/>
<ellipse fill="black" stroke="black" cx="466.501" cy="-162.965" rx="2.4" ry="2.4"/>
<polygon fill="black" stroke="black" points="468.245,-171.446 466.4,-165.363 464.049,-171.269 468.245,-171.446"/>
</g>
<!-- m_PrintedBook&#45;&gt;m_Borrowing -->
<g id="edge10" class="edge"><title>m_PrintedBook&#45;&gt;m_Borrowing</title>
<path fill="none" stroke="black" stroke-dasharray="1,5" d="M971.938,-107.287C948.964,-101.966 923.506,-96.4033 900,-92 779.263,-69.3828 638.257,-50.1528 551.036,-39.086"/>
<ellipse fill="none" stroke="black" cx="974.463" cy="-107.874" rx="2.40001" ry="2.40001"/>
<ellipse fill="none" stroke="black" cx="542.527" cy="-38.0119" rx="2.4" ry="2.4"/>
<polygon fill="black" stroke="black" points="551.124,-36.9805 544.908,-38.3125 550.598,-41.1475 551.124,-36.9805"/>
</g>
<!-- m_User -->
<g id="node12" class="node"><title>m_User</title>
<path fill="none" stroke="black" d="M575,-230C575,-230 707,-230 707,-230 713,-230 719,-236 719,-242 719,-242 719,-299 719,-299 719,-305 713,-311 707,-311 707,-311 575,-311 575,-311 569,-311 563,-305 563,-299 563,-299 563,-242 563,-242 563,-236 569,-230 575,-230"/>
<text text-anchor="start" x="627.388" y="-297.7" font-family="Arial BoldMT" font-size="11.00">User</text>
<polyline fill="none" stroke="black" points="563,-292 719,-292 "/>
<text text-anchor="start" x="570" y="-279" font-family="ArialMT" font-size="10.00">email </text>
<text text-anchor="start" x="596.675" y="-279" font-family="Arial ItalicMT" font-size="10.00" fill="#999999">string (255) ∗ U</text>
<text text-anchor="start" x="570" y="-266" font-family="ArialMT" font-size="10.00">login_token </text>
<text text-anchor="start" x="623.931" y="-266" font-family="Arial ItalicMT" font-size="10.00" fill="#999999">string</text>
<text text-anchor="start" x="569.84" y="-253" font-family="ArialMT" font-size="10.00">login_token_valid_until </text>
<text text-anchor="start" x="673.805" y="-253" font-family="Arial ItalicMT" font-size="10.00" fill="#999999">datetime</text>
<text text-anchor="start" x="570" y="-240" font-family="ArialMT" font-size="10.00">name </text>
<text text-anchor="start" x="597.793" y="-240" font-family="Arial ItalicMT" font-size="10.00" fill="#999999">string (100)</text>
</g>
<!-- m_User&#45;&gt;m_Borrowing -->
<g id="edge15" class="edge"><title>m_User&#45;&gt;m_Borrowing</title>
<path fill="none" stroke="black" d="M594.379,-226.572C580.319,-215.517 564.274,-204.607 548,-197 479.216,-164.849 428.698,-220.075 381,-161 361.735,-137.14 367.056,-119.313 381,-92 386.896,-80.4514 396.007,-70.5286 406.152,-62.2005"/>
<ellipse fill="none" stroke="black" cx="596.414" cy="-228.195" rx="2.40002" ry="2.40002"/>
<ellipse fill="black" stroke="black" cx="412.958" cy="-57.0309" rx="2.40001" ry="2.40001"/>
<polygon fill="black" stroke="black" points="407.539,-63.7841 411.046,-58.4826 404.998,-60.4396 407.539,-63.7841"/>
</g>
<!-- m_User&#45;&gt;m_Comment -->
<g id="edge11" class="edge"><title>m_User&#45;&gt;m_Comment</title>
<path fill="none" stroke="black" d="M693.032,-226.792C718.688,-205.733 749.18,-180.705 773.132,-161.045"/>
<ellipse fill="none" stroke="black" cx="691.045" cy="-228.422" rx="2.40002" ry="2.40002"/>
<ellipse fill="black" stroke="black" cx="779.784" cy="-155.585" rx="2.40001" ry="2.40001"/>
<polygon fill="black" stroke="black" points="774.624,-162.537 777.929,-157.107 771.959,-159.291 774.624,-162.537"/>
</g>
<!-- m_User&#45;&gt;m_Vote -->
<g id="edge12" class="edge"><title>m_User&#45;&gt;m_Vote</title>
<path fill="none" stroke="black" d="M641,-225.063C641,-205.837 641,-183.575 641,-165.175"/>
<ellipse fill="none" stroke="black" cx="641" cy="-227.545" rx="2.4" ry="2.4"/>
<ellipse fill="black" stroke="black" cx="641" cy="-156.679" rx="2.4" ry="2.4"/>
<polygon fill="black" stroke="black" points="643.1,-165.079 641,-159.079 638.9,-165.08 643.1,-165.079"/>
</g>
<!-- m_Vote&#45;&gt;m_Dislike -->
<g id="edge3" class="edge"><title>m_Vote&#45;&gt;m_Dislike</title>
<path fill="none" stroke="#999999" d="M719.348,-94.7158C721.925,-93.7881 724.481,-92.8804 727,-92 775.073,-75.2008 830.307,-58.2062 871.012,-46.1085"/>
<polygon fill="none" stroke="#999999" points="717.787,-90.8147 707.966,-98.8885 720.678,-98.7015 717.787,-90.8147"/>
</g>
<!-- m_Vote&#45;&gt;m_Like -->
<g id="edge4" class="edge"><title>m_Vote&#45;&gt;m_Like</title>
<path fill="none" stroke="#999999" d="M715.45,-95.2209C719.329,-94.0461 723.194,-92.9616 727,-92 852.921,-60.1849 888.655,-75.8969 1017,-56 1040.79,-52.3126 1066.65,-47.6928 1089.87,-43.3225"/>
<polygon fill="none" stroke="#999999" points="713.946,-91.2932 703.823,-98.9846 716.533,-99.285 713.946,-91.2932"/>
</g>
<!-- m_primary::SchemaMigration -->
<g id="node14" class="node"><title>m_primary::SchemaMigration</title>
<path fill="none" stroke="black" d="M933,-252.5C933,-252.5 1053,-252.5 1053,-252.5 1059,-252.5 1065,-258.5 1065,-264.5 1065,-264.5 1065,-276.5 1065,-276.5 1065,-282.5 1059,-288.5 1053,-288.5 1053,-288.5 933,-288.5 933,-288.5 927,-288.5 921,-282.5 921,-276.5 921,-276.5 921,-264.5 921,-264.5 921,-258.5 927,-252.5 933,-252.5"/>
<text text-anchor="start" x="926.813" y="-266.7" font-family="Arial BoldMT" font-size="11.00">primary::SchemaMigration</text>
</g>
</g>
</svg>
