<?xml version="1.0" encoding="UTF-8" standalone="no"?>
<!DOCTYPE svg PUBLIC "-//W3C//DTD SVG 1.1//EN"
 "http://www.w3.org/Graphics/SVG/1.1/DTD/svg11.dtd">
<!-- Generated by graphviz version 2.38.0 (20140413.2041)
 -->
<!-- Title: Books Pages: 1 -->
<svg width="1153pt" height="451pt"
 viewBox="0.00 0.00 1153.39 450.60" xmlns="http://www.w3.org/2000/svg" xmlns:xlink="http://www.w3.org/1999/xlink">
<g id="graph0" class="graph" transform="scale(1 1) rotate(0) translate(28.8 421.8)">
<title>Books</title>
<polygon fill="white" stroke="none" points="-28.8,28.8 -28.8,-421.8 1124.59,-421.8 1124.59,28.8 -28.8,28.8"/>
<text text-anchor="middle" x="547.896" y="-378.6" font-family="Arial BoldMT" font-size="13.00">Class Diagram Books</text>
<!-- m_Book -->
<g id="node1" class="node"><title>m_Book</title>
<path fill="none" stroke="black" d="M391.792,-197.5C391.792,-197.5 511.792,-197.5 511.792,-197.5 517.792,-197.5 523.792,-203.5 523.792,-209.5 523.792,-209.5 523.792,-344.5 523.792,-344.5 523.792,-350.5 517.792,-356.5 511.792,-356.5 511.792,-356.5 391.792,-356.5 391.792,-356.5 385.792,-356.5 379.792,-350.5 379.792,-344.5 379.792,-344.5 379.792,-209.5 379.792,-209.5 379.792,-203.5 385.792,-197.5 391.792,-197.5"/>
<text text-anchor="start" x="437.256" y="-343.2" font-family="Arial BoldMT" font-size="11.00">Book</text>
<polyline fill="none" stroke="black" points="379.792,-337.5 523.792,-337.5 "/>
<text text-anchor="start" x="386.792" y="-324.5" font-family="ArialMT" font-size="10.00">comments_count </text>
<text text-anchor="start" x="465.718" y="-324.5" font-family="Arial ItalicMT" font-size="10.00" fill="#999999">integer</text>
<text text-anchor="start" x="386.792" y="-311.5" font-family="ArialMT" font-size="10.00">cover </text>
<text text-anchor="start" x="414.024" y="-311.5" font-family="Arial ItalicMT" font-size="10.00" fill="#999999">string</text>
<text text-anchor="start" x="386.792" y="-298.5" font-family="ArialMT" font-size="10.00">deleted_at </text>
<text text-anchor="start" x="436.28" y="-298.5" font-family="Arial ItalicMT" font-size="10.00" fill="#999999">datetime</text>
<text text-anchor="start" x="386.792" y="-285.5" font-family="ArialMT" font-size="10.00">dislikes_count </text>
<text text-anchor="start" x="452.383" y="-285.5" font-family="Arial ItalicMT" font-size="10.00" fill="#999999">integer</text>
<text text-anchor="start" x="386.792" y="-272.5" font-family="ArialMT" font-size="10.00">likes_count </text>
<text text-anchor="start" x="439.6" y="-272.5" font-family="Arial ItalicMT" font-size="10.00" fill="#999999">integer</text>
<text text-anchor="start" x="386.792" y="-259.5" font-family="ArialMT" font-size="10.00">link </text>
<text text-anchor="start" x="404.575" y="-259.5" font-family="Arial ItalicMT" font-size="10.00" fill="#999999">string (2048)</text>
<text text-anchor="start" x="386.792" y="-246.5" font-family="ArialMT" font-size="10.00">num_of_pages </text>
<text text-anchor="start" x="455.733" y="-246.5" font-family="Arial ItalicMT" font-size="10.00" fill="#999999">integer (2)</text>
<text text-anchor="start" x="386.792" y="-233.5" font-family="ArialMT" font-size="10.00">summary </text>
<text text-anchor="start" x="430.684" y="-233.5" font-family="Arial ItalicMT" font-size="10.00" fill="#999999">string (2048)</text>
<text text-anchor="start" x="386.792" y="-220.5" font-family="ArialMT" font-size="10.00">title </text>
<text text-anchor="start" x="405.132" y="-220.5" font-family="Arial ItalicMT" font-size="10.00" fill="#999999">string (255) ∗</text>
<text text-anchor="start" x="386.792" y="-207.5" font-family="ArialMT" font-size="10.00">type </text>
<text text-anchor="start" x="408.472" y="-207.5" font-family="Arial ItalicMT" font-size="10.00" fill="#999999">string</text>
</g>
<!-- m_Comment -->
<g id="node3" class="node"><title>m_Comment</title>
<path fill="none" stroke="black" d="M385.792,-99C385.792,-99 505.792,-99 505.792,-99 511.792,-99 517.792,-105 517.792,-111 517.792,-111 517.792,-142 517.792,-142 517.792,-148 511.792,-154 505.792,-154 505.792,-154 385.792,-154 385.792,-154 379.792,-154 373.792,-148 373.792,-142 373.792,-142 373.792,-111 373.792,-111 373.792,-105 379.792,-99 385.792,-99"/>
<text text-anchor="start" x="419.953" y="-140.7" font-family="Arial BoldMT" font-size="11.00">Comment</text>
<polyline fill="none" stroke="black" points="373.792,-135 517.792,-135 "/>
<text text-anchor="start" x="380.792" y="-122" font-family="ArialMT" font-size="10.00">body </text>
<text text-anchor="start" x="405.255" y="-122" font-family="Arial ItalicMT" font-size="10.00" fill="#999999">string (1024) ∗</text>
<text text-anchor="start" x="380.792" y="-109" font-family="ArialMT" font-size="10.00">deleted_at </text>
<text text-anchor="start" x="430.28" y="-109" font-family="Arial ItalicMT" font-size="10.00" fill="#999999">datetime</text>
</g>
<!-- m_Book&#45;&gt;m_Comment -->
<g id="edge8" class="edge"><title>m_Book&#45;&gt;m_Comment</title>
<path fill="none" stroke="black" d="M448.41,-192.301C448.027,-182.813 447.652,-173.535 447.311,-165.099"/>
<ellipse fill="none" stroke="black" cx="448.52" cy="-195.004" rx="2.4" ry="2.4"/>
<ellipse fill="black" stroke="black" cx="446.967" cy="-156.575" rx="2.4" ry="2.4"/>
<polygon fill="black" stroke="black" points="449.404,-164.884 447.064,-158.974 445.208,-165.053 449.404,-164.884"/>
</g>
<!-- m_Copy -->
<g id="node4" class="node"><title>m_Copy</title>
<path fill="none" stroke="black" d="M39.7922,-92.5C39.7922,-92.5 159.792,-92.5 159.792,-92.5 165.792,-92.5 171.792,-98.5 171.792,-104.5 171.792,-104.5 171.792,-148.5 171.792,-148.5 171.792,-154.5 165.792,-160.5 159.792,-160.5 159.792,-160.5 39.7922,-160.5 39.7922,-160.5 33.7922,-160.5 27.7922,-154.5 27.7922,-148.5 27.7922,-148.5 27.7922,-104.5 27.7922,-104.5 27.7922,-98.5 33.7922,-92.5 39.7922,-92.5"/>
<text text-anchor="start" x="84.9526" y="-147.2" font-family="Arial BoldMT" font-size="11.00">Copy</text>
<polyline fill="none" stroke="black" points="27.7922,-141.5 171.792,-141.5 "/>
<text text-anchor="start" x="34.7922" y="-128" font-family="ArialMT" font-size="10.00">borrowings_count </text>
<text text-anchor="start" x="116.506" y="-128" font-family="Arial ItalicMT" font-size="10.00" fill="#999999">integer</text>
<text text-anchor="start" x="34.7922" y="-115" font-family="ArialMT" font-size="10.00">deleted_at </text>
<text text-anchor="start" x="84.2795" y="-115" font-family="Arial ItalicMT" font-size="10.00" fill="#999999">datetime</text>
<text text-anchor="start" x="34.7922" y="-102" font-family="ArialMT" font-size="10.00">number </text>
<text text-anchor="start" x="71.4768" y="-102" font-family="Arial ItalicMT" font-size="10.00" fill="#999999">integer</text>
</g>
<!-- m_Book&#45;&gt;m_Copy -->
<g id="edge9" class="edge"><title>m_Book&#45;&gt;m_Copy</title>
<path fill="none" stroke="black" d="M375.375,-202.368C372.22,-200.443 369.022,-198.644 365.792,-197 293.47,-160.196 264.713,-183.661 186.792,-161 185.437,-160.606 184.074,-160.2 182.704,-159.783"/>
<ellipse fill="none" stroke="black" cx="377.621" cy="-203.787" rx="2.40002" ry="2.40002"/>
<ellipse fill="black" stroke="black" cx="174.395" cy="-157.129" rx="2.40001" ry="2.40001"/>
<polygon fill="black" stroke="black" points="183.036,-157.685 176.681,-157.859 181.758,-161.685 183.036,-157.685"/>
</g>
<!-- m_Dislike -->
<g id="node5" class="node"><title>m_Dislike</title>
<path fill="none" stroke="#999999" d="M501.792,-10C501.792,-10 621.792,-10 621.792,-10 627.792,-10 633.792,-16 633.792,-22 633.792,-22 633.792,-34 633.792,-34 633.792,-40 627.792,-46 621.792,-46 621.792,-46 501.792,-46 501.792,-46 495.792,-46 489.792,-40 489.792,-34 489.792,-34 489.792,-22 489.792,-22 489.792,-16 495.792,-10 501.792,-10"/>
<text text-anchor="start" x="543.596" y="-24.2" font-family="Arial BoldMT" font-size="11.00" fill="#999999">Dislike</text>
</g>
<!-- m_Book&#45;&gt;m_Dislike -->
<g id="edge7" class="edge"><title>m_Book&#45;&gt;m_Dislike</title>
<path fill="none" stroke="black" d="M561.792,-125.5C560.762,-102.492 560.839,-76.3679 561.13,-57.1086"/>
<ellipse fill="black" stroke="black" cx="561.287" cy="-48.4929" rx="2.4" ry="2.4"/>
<polygon fill="black" stroke="black" points="563.233,-56.9299 561.243,-50.8925 559.034,-56.8531 563.233,-56.9299"/>
</g>
<!-- m_Ebook -->
<g id="node6" class="node"><title>m_Ebook</title>
<path fill="none" stroke="#999999" d="M617.792,-108.5C617.792,-108.5 737.792,-108.5 737.792,-108.5 743.792,-108.5 749.792,-114.5 749.792,-120.5 749.792,-120.5 749.792,-132.5 749.792,-132.5 749.792,-138.5 743.792,-144.5 737.792,-144.5 737.792,-144.5 617.792,-144.5 617.792,-144.5 611.792,-144.5 605.792,-138.5 605.792,-132.5 605.792,-132.5 605.792,-120.5 605.792,-120.5 605.792,-114.5 611.792,-108.5 617.792,-108.5"/>
<text text-anchor="start" x="660.197" y="-122.7" font-family="Arial BoldMT" font-size="11.00" fill="#999999">Ebook</text>
</g>
<!-- m_Book&#45;&gt;m_Ebook -->
<g id="edge1" class="edge"><title>m_Book&#45;&gt;m_Ebook</title>
<path fill="none" stroke="#999999" d="M534.049,-221.951C575.542,-194.687 623.02,-163.49 651.686,-144.654"/>
<polygon fill="none" stroke="#999999" points="531.644,-218.506 523.921,-228.605 536.257,-225.526 531.644,-218.506"/>
</g>
<!-- m_Like -->
<g id="node7" class="node"><title>m_Like</title>
<path fill="none" stroke="#999999" d="M328.792,-10C328.792,-10 448.792,-10 448.792,-10 454.792,-10 460.792,-16 460.792,-22 460.792,-22 460.792,-34 460.792,-34 460.792,-40 454.792,-46 448.792,-46 448.792,-46 328.792,-46 328.792,-46 322.792,-46 316.792,-40 316.792,-34 316.792,-34 316.792,-22 316.792,-22 316.792,-16 322.792,-10 328.792,-10"/>
<text text-anchor="start" x="376.703" y="-24.2" font-family="Arial BoldMT" font-size="11.00" fill="#999999">Like</text>
</g>
<!-- m_Book&#45;&gt;m_Like -->
<g id="edge6" class="edge"><title>m_Book&#45;&gt;m_Like</title>
<path fill="none" stroke="black" d="M527.231,-212.199C547.329,-188.18 563.202,-158.989 561.792,-127.5"/>
<ellipse fill="none" stroke="black" cx="525.531" cy="-214.185" rx="2.40002" ry="2.40002"/>
<path fill="none" stroke="black" d="M561.792,-125.5C560.608,-99.0378 498.209,-69.4811 448.694,-50.1355"/>
<ellipse fill="black" stroke="black" cx="440.591" cy="-47.0268" rx="2.40001" ry="2.40001"/>
<polygon fill="black" stroke="black" points="449.186,-48.075 442.832,-47.8865 447.681,-51.9963 449.186,-48.075"/>
</g>
<!-- m_PrintedBook -->
<g id="node9" class="node"><title>m_PrintedBook</title>
<path fill="none" stroke="#999999" d="M963.792,-108.5C963.792,-108.5 1083.79,-108.5 1083.79,-108.5 1089.79,-108.5 1095.79,-114.5 1095.79,-120.5 1095.79,-120.5 1095.79,-132.5 1095.79,-132.5 1095.79,-138.5 1089.79,-144.5 1083.79,-144.5 1083.79,-144.5 963.792,-144.5 963.792,-144.5 957.792,-144.5 951.792,-138.5 951.792,-132.5 951.792,-132.5 951.792,-120.5 951.792,-120.5 951.792,-114.5 957.792,-108.5 963.792,-108.5"/>
<text text-anchor="start" x="991.83" y="-122.7" font-family="Arial BoldMT" font-size="11.00" fill="#999999">PrintedBook</text>
</g>
<!-- m_Book&#45;&gt;m_PrintedBook -->
<g id="edge2" class="edge"><title>m_Book&#45;&gt;m_PrintedBook</title>
<path fill="none" stroke="#999999" d="M535.723,-259.843C633.362,-240.197 798.92,-204.248 937.792,-161 952.938,-156.283 969.231,-150.205 983.518,-144.523"/>
<polygon fill="none" stroke="#999999" points="534.81,-255.742 523.867,-262.215 536.458,-263.979 534.81,-255.742"/>
</g>
<!-- m_Vote -->
<g id="node11" class="node"><title>m_Vote</title>
<path fill="none" stroke="black" d="M212.792,-99C212.792,-99 332.792,-99 332.792,-99 338.792,-99 344.792,-105 344.792,-111 344.792,-111 344.792,-142 344.792,-142 344.792,-148 338.792,-154 332.792,-154 332.792,-154 212.792,-154 212.792,-154 206.792,-154 200.792,-148 200.792,-142 200.792,-142 200.792,-111 200.792,-111 200.792,-105 206.792,-99 212.792,-99"/>
<text text-anchor="start" x="259.779" y="-140.7" font-family="Arial BoldMT" font-size="11.00">Vote</text>
<polyline fill="none" stroke="black" points="200.792,-135 344.792,-135 "/>
<text text-anchor="start" x="207.792" y="-122" font-family="ArialMT" font-size="10.00">deleted_at </text>
<text text-anchor="start" x="257.28" y="-122" font-family="Arial ItalicMT" font-size="10.00" fill="#999999">datetime</text>
<text text-anchor="start" x="207.792" y="-109" font-family="ArialMT" font-size="10.00">type </text>
<text text-anchor="start" x="229.472" y="-109" font-family="Arial ItalicMT" font-size="10.00" fill="#999999">string</text>
</g>
<!-- m_Book&#45;&gt;m_Vote -->
<g id="edge5" class="edge"><title>m_Book&#45;&gt;m_Vote</title>
<path fill="none" stroke="black" d="M375.644,-205.315C372.338,-202.48 369.045,-199.698 365.792,-197 350.877,-184.63 334.05,-171.75 318.849,-160.487"/>
<ellipse fill="none" stroke="black" cx="377.71" cy="-207.097" rx="2.40002" ry="2.40002"/>
<ellipse fill="none" stroke="black" cx="312.047" cy="-155.481" rx="2.40001" ry="2.40001"/>
<polygon fill="black" stroke="black" points="320.057,-158.769 313.98,-156.904 317.568,-162.152 320.057,-158.769"/>
</g>
<!-- m_Writer -->
<g id="node12" class="node"><title>m_Writer</title>
<path fill="none" stroke="black" d="M790.792,-105.5C790.792,-105.5 910.792,-105.5 910.792,-105.5 916.792,-105.5 922.792,-111.5 922.792,-117.5 922.792,-117.5 922.792,-135.5 922.792,-135.5 922.792,-141.5 916.792,-147.5 910.792,-147.5 910.792,-147.5 790.792,-147.5 790.792,-147.5 784.792,-147.5 778.792,-141.5 778.792,-135.5 778.792,-135.5 778.792,-117.5 778.792,-117.5 778.792,-111.5 784.792,-105.5 790.792,-105.5"/>
<text text-anchor="start" x="834.226" y="-134.2" font-family="Arial BoldMT" font-size="11.00">Writer</text>
<polyline fill="none" stroke="black" points="778.792,-128.5 922.792,-128.5 "/>
<text text-anchor="start" x="785.792" y="-115" font-family="ArialMT" font-size="10.00">name </text>
<text text-anchor="start" x="813.585" y="-115" font-family="Arial ItalicMT" font-size="10.00" fill="#999999">string ∗ U</text>
</g>
<!-- m_Book&#45;&gt;m_Writer -->
<g id="edge10" class="edge"><title>m_Book&#45;&gt;m_Writer</title>
<path fill="none" stroke="black" d="M534.351,-246.16C597.554,-223.197 686.833,-190.503 764.792,-161 772.889,-157.936 781.4,-154.673 789.788,-151.431"/>
<ellipse fill="none" stroke="black" cx="526.3" cy="-249.084" rx="2.40001" ry="2.40001"/>
<polygon fill="black" stroke="black" points="533.479,-244.243 528.556,-248.264 534.913,-248.191 533.479,-244.243"/>
<ellipse fill="none" stroke="black" cx="797.685" cy="-148.37" rx="2.40001" ry="2.40001"/>
<polygon fill="black" stroke="black" points="790.612,-153.364 795.447,-149.238 789.094,-149.448 790.612,-153.364"/>
</g>
<!-- m_Borrowing -->
<g id="node2" class="node"><title>m_Borrowing</title>
<path fill="none" stroke="black" d="M39.7922,-0.5C39.7922,-0.5 159.792,-0.5 159.792,-0.5 165.792,-0.5 171.792,-6.5 171.792,-12.5 171.792,-12.5 171.792,-43.5 171.792,-43.5 171.792,-49.5 165.792,-55.5 159.792,-55.5 159.792,-55.5 39.7922,-55.5 39.7922,-55.5 33.7922,-55.5 27.7922,-49.5 27.7922,-43.5 27.7922,-43.5 27.7922,-12.5 27.7922,-12.5 27.7922,-6.5 33.7922,-0.5 39.7922,-0.5"/>
<text text-anchor="start" x="73.0315" y="-42.2" font-family="Arial BoldMT" font-size="11.00">Borrowing</text>
<polyline fill="none" stroke="black" points="27.7922,-36.5 171.792,-36.5 "/>
<text text-anchor="start" x="34.7922" y="-23.5" font-family="ArialMT" font-size="10.00">borrowed_at </text>
<text text-anchor="start" x="93.1614" y="-23.5" font-family="Arial ItalicMT" font-size="10.00" fill="#999999">datetime</text>
<text text-anchor="start" x="34.7922" y="-10.5" font-family="ArialMT" font-size="10.00">deleted_at </text>
<text text-anchor="start" x="84.2795" y="-10.5" font-family="Arial ItalicMT" font-size="10.00" fill="#999999">datetime</text>
</g>
<!-- m_Copy&#45;&gt;m_Borrowing -->
<g id="edge15" class="edge"><title>m_Copy&#45;&gt;m_Borrowing</title>
<path fill="none" stroke="black" d="M99.7922,-87.4463C99.7922,-80.6129 99.7922,-73.4937 99.7922,-66.6712"/>
<ellipse fill="none" stroke="black" cx="99.7923" cy="-89.8902" rx="2.4" ry="2.4"/>
<ellipse fill="black" stroke="black" cx="99.7922" cy="-57.9726" rx="2.4" ry="2.4"/>
<polygon fill="black" stroke="black" points="101.892,-66.3725 99.7923,-60.3726 97.6923,-66.3726 101.892,-66.3725"/>
</g>
<!-- m_Location -->
<g id="node8" class="node"><title>m_Location</title>
<path fill="none" stroke="black" d="M33.7922,-256C33.7922,-256 153.792,-256 153.792,-256 159.792,-256 165.792,-262 165.792,-268 165.792,-268 165.792,-286 165.792,-286 165.792,-292 159.792,-298 153.792,-298 153.792,-298 33.7922,-298 33.7922,-298 27.7922,-298 21.7922,-292 21.7922,-286 21.7922,-286 21.7922,-268 21.7922,-268 21.7922,-262 27.7922,-256 33.7922,-256"/>
<text text-anchor="start" x="70.998" y="-284.7" font-family="Arial BoldMT" font-size="11.00">Location</text>
<polyline fill="none" stroke="black" points="21.7922,-279 165.792,-279 "/>
<text text-anchor="start" x="28.7922" y="-265.5" font-family="ArialMT" font-size="10.00">city </text>
<text text-anchor="start" x="46.5705" y="-265.5" font-family="Arial ItalicMT" font-size="10.00" fill="#999999">string (255) ∗</text>
</g>
<!-- m_Location&#45;&gt;m_Copy -->
<g id="edge14" class="edge"><title>m_Location&#45;&gt;m_Copy</title>
<path fill="none" stroke="black" d="M94.8072,-250.879C95.6821,-229.227 96.9655,-197.461 98.011,-171.585"/>
<ellipse fill="none" stroke="black" cx="94.6983" cy="-253.575" rx="2.4" ry="2.4"/>
<ellipse fill="black" stroke="black" cx="98.3605" cy="-162.934" rx="2.4" ry="2.4"/>
<polygon fill="black" stroke="black" points="100.12,-171.412 98.2636,-165.332 95.923,-171.243 100.12,-171.412"/>
</g>
<!-- m_PrintedBook&#45;&gt;m_Borrowing -->
<g id="edge11" class="edge"><title>m_PrintedBook&#45;&gt;m_Borrowing</title>
<path fill="none" stroke="black" stroke-dasharray="1,5" d="M982.676,-106.452C968.719,-100.81 952.844,-95.2719 937.792,-92 661.567,-31.9564 584.208,-82.6535 302.792,-56 263.338,-52.2632 219.755,-46.6615 183.118,-41.5275"/>
<ellipse fill="none" stroke="black" cx="985.112" cy="-107.453" rx="2.40001" ry="2.40001"/>
<ellipse fill="none" stroke="black" cx="174.36" cy="-40.2881" rx="2.4" ry="2.4"/>
<polygon fill="black" stroke="black" points="182.972,-39.3859 176.736,-40.6244 182.383,-43.5444 182.972,-39.3859"/>
</g>
<!-- m_User -->
<g id="node10" class="node"><title>m_User</title>
<path fill="none" stroke="black" d="M206.792,-236.5C206.792,-236.5 338.792,-236.5 338.792,-236.5 344.792,-236.5 350.792,-242.5 350.792,-248.5 350.792,-248.5 350.792,-305.5 350.792,-305.5 350.792,-311.5 344.792,-317.5 338.792,-317.5 338.792,-317.5 206.792,-317.5 206.792,-317.5 200.792,-317.5 194.792,-311.5 194.792,-305.5 194.792,-305.5 194.792,-248.5 194.792,-248.5 194.792,-242.5 200.792,-236.5 206.792,-236.5"/>
<text text-anchor="start" x="259.18" y="-304.2" font-family="Arial BoldMT" font-size="11.00">User</text>
<polyline fill="none" stroke="black" points="194.792,-298.5 350.792,-298.5 "/>
<text text-anchor="start" x="201.792" y="-285.5" font-family="ArialMT" font-size="10.00">email </text>
<text text-anchor="start" x="228.467" y="-285.5" font-family="Arial ItalicMT" font-size="10.00" fill="#999999">string (255) ∗ U</text>
<text text-anchor="start" x="201.792" y="-272.5" font-family="ArialMT" font-size="10.00">login_token </text>
<text text-anchor="start" x="255.723" y="-272.5" font-family="Arial ItalicMT" font-size="10.00" fill="#999999">string</text>
<text text-anchor="start" x="201.633" y="-259.5" font-family="ArialMT" font-size="10.00">login_token_valid_until </text>
<text text-anchor="start" x="305.597" y="-259.5" font-family="Arial ItalicMT" font-size="10.00" fill="#999999">datetime</text>
<text text-anchor="start" x="201.792" y="-246.5" font-family="ArialMT" font-size="10.00">name </text>
<text text-anchor="start" x="229.585" y="-246.5" font-family="Arial ItalicMT" font-size="10.00" fill="#999999">string (100)</text>
</g>
<!-- m_User&#45;&gt;m_Borrowing -->
<g id="edge16" class="edge"><title>m_User&#45;&gt;m_Borrowing</title>
<path fill="none" stroke="black" d="M231.488,-232.846C216.653,-219.554 199.05,-206.053 180.792,-197 112.379,-163.078 60.7991,-220.384 12.7922,-161 -6.48722,-137.152 -1.15167,-119.313 12.7922,-92 18.688,-80.4514 27.7991,-70.5286 37.944,-62.2005"/>
<ellipse fill="none" stroke="black" cx="233.422" cy="-234.603" rx="2.40002" ry="2.40002"/>
<ellipse fill="black" stroke="black" cx="44.7498" cy="-57.0309" rx="2.40001" ry="2.40001"/>
<polygon fill="black" stroke="black" points="39.3309,-63.7841 42.8386,-58.4826 36.7904,-60.4396 39.3309,-63.7841"/>
</g>
<!-- m_User&#45;&gt;m_Comment -->
<g id="edge12" class="edge"><title>m_User&#45;&gt;m_Comment</title>
<path fill="none" stroke="black" d="M323.108,-232.81C349.659,-210.019 381.76,-182.464 406.465,-161.257"/>
<ellipse fill="none" stroke="black" cx="320.974" cy="-234.642" rx="2.40002" ry="2.40002"/>
<ellipse fill="black" stroke="black" cx="413.053" cy="-155.603" rx="2.40001" ry="2.40001"/>
<polygon fill="black" stroke="black" points="408.047,-162.667 411.232,-157.166 405.311,-159.48 408.047,-162.667"/>
</g>
<!-- m_User&#45;&gt;m_Vote -->
<g id="edge13" class="edge"><title>m_User&#45;&gt;m_Vote</title>
<path fill="none" stroke="black" d="M272.792,-231.26C272.792,-210.175 272.792,-185.299 272.792,-165.191"/>
<ellipse fill="none" stroke="black" cx="272.792" cy="-233.805" rx="2.4" ry="2.4"/>
<ellipse fill="black" stroke="black" cx="272.792" cy="-156.666" rx="2.4" ry="2.4"/>
<polygon fill="black" stroke="black" points="274.892,-165.066 272.792,-159.066 270.692,-165.066 274.892,-165.066"/>
</g>
<!-- m_Vote&#45;&gt;m_Dislike -->
<g id="edge3" class="edge"><title>m_Vote&#45;&gt;m_Dislike</title>
<path fill="none" stroke="#999999" d="M352.057,-94.7261C354.662,-93.7955 357.246,-92.8844 359.792,-92 410.786,-74.2914 424.263,-72.0847 475.792,-56 486.1,-52.7826 497.098,-49.3381 507.667,-46.0226"/>
<polygon fill="none" stroke="#999999" points="350.391,-90.8627 340.548,-98.909 353.261,-98.7574 350.391,-90.8627"/>
</g>
<!-- m_Vote&#45;&gt;m_Like -->
<g id="edge4" class="edge"><title>m_Vote&#45;&gt;m_Like</title>
<path fill="none" stroke="#999999" d="M314.124,-91.116C332.468,-75.8557 353.243,-58.5733 368.213,-46.1194"/>
<polygon fill="none" stroke="#999999" points="311.336,-87.9723 304.797,-98.8755 316.708,-94.4299 311.336,-87.9723"/>
</g>
</g>
</svg>
