<?xml version="1.0" encoding="UTF-8" standalone="no"?>
<!DOCTYPE svg PUBLIC "-//W3C//DTD SVG 1.1//EN"
 "http://www.w3.org/Graphics/SVG/1.1/DTD/svg11.dtd">
<!-- Generated by graphviz version 2.38.0 (20140413.2041)
 -->
<!-- Title: Books Pages: 1 -->
<svg width="1522pt" height="451pt"
 viewBox="0.00 0.00 1521.60 450.60" xmlns="http://www.w3.org/2000/svg" xmlns:xlink="http://www.w3.org/1999/xlink">
<g id="graph0" class="graph" transform="scale(1 1) rotate(0) translate(28.8 421.8)">
<title>Books</title>
<polygon fill="white" stroke="none" points="-28.8,28.8 -28.8,-421.8 1492.8,-421.8 1492.8,28.8 -28.8,28.8"/>
<text text-anchor="middle" x="732" y="-378.6" font-family="Arial BoldMT" font-size="13.00">Class Diagram Books</text>
<!-- m_ActiveRecord::InternalMetadata -->
<g id="node1" class="node"><title>m_ActiveRecord::InternalMetadata</title>
<path fill="none" stroke="black" d="M12,-256C12,-256 152,-256 152,-256 158,-256 164,-262 164,-268 164,-268 164,-286 164,-286 164,-292 158,-298 152,-298 152,-298 12,-298 12,-298 6,-298 0,-292 0,-286 0,-286 0,-268 0,-268 0,-262 6,-256 12,-256"/>
<text text-anchor="start" x="4.95972" y="-284.7" font-family="Arial BoldMT" font-size="11.00">ActiveRecord::InternalMetadata</text>
<polyline fill="none" stroke="black" points="0,-279 164,-279 "/>
<text text-anchor="start" x="17" y="-265.5" font-family="ArialMT" font-size="10.00">value </text>
<text text-anchor="start" x="43.6846" y="-265.5" font-family="Arial ItalicMT" font-size="10.00" fill="#999999">string</text>
</g>
<!-- m_ActiveRecord::SchemaMigration -->
<g id="node2" class="node"><title>m_ActiveRecord::SchemaMigration</title>
<path fill="none" stroke="black" d="M205.5,-259C205.5,-259 348.5,-259 348.5,-259 354.5,-259 360.5,-265 360.5,-271 360.5,-271 360.5,-283 360.5,-283 360.5,-289 354.5,-295 348.5,-295 348.5,-295 205.5,-295 205.5,-295 199.5,-295 193.5,-289 193.5,-283 193.5,-283 193.5,-271 193.5,-271 193.5,-265 199.5,-259 205.5,-259"/>
<text text-anchor="start" x="198.94" y="-273.2" font-family="Arial BoldMT" font-size="11.00">ActiveRecord::SchemaMigration</text>
</g>
<!-- m_Book -->
<g id="node3" class="node"><title>m_Book</title>
<path fill="none" stroke="black" d="M760,-197.5C760,-197.5 880,-197.5 880,-197.5 886,-197.5 892,-203.5 892,-209.5 892,-209.5 892,-344.5 892,-344.5 892,-350.5 886,-356.5 880,-356.5 880,-356.5 760,-356.5 760,-356.5 754,-356.5 748,-350.5 748,-344.5 748,-344.5 748,-209.5 748,-209.5 748,-203.5 754,-197.5 760,-197.5"/>
<text text-anchor="start" x="805.464" y="-343.2" font-family="Arial BoldMT" font-size="11.00">Book</text>
<polyline fill="none" stroke="black" points="748,-337.5 892,-337.5 "/>
<text text-anchor="start" x="755" y="-324.5" font-family="ArialMT" font-size="10.00">comments_count </text>
<text text-anchor="start" x="833.926" y="-324.5" font-family="Arial ItalicMT" font-size="10.00" fill="#999999">integer</text>
<text text-anchor="start" x="755" y="-311.5" font-family="ArialMT" font-size="10.00">cover </text>
<text text-anchor="start" x="782.231" y="-311.5" font-family="Arial ItalicMT" font-size="10.00" fill="#999999">string</text>
<text text-anchor="start" x="755" y="-298.5" font-family="ArialMT" font-size="10.00">deleted_at </text>
<text text-anchor="start" x="804.487" y="-298.5" font-family="Arial ItalicMT" font-size="10.00" fill="#999999">datetime</text>
<text text-anchor="start" x="755" y="-285.5" font-family="ArialMT" font-size="10.00">dislikes_count </text>
<text text-anchor="start" x="820.591" y="-285.5" font-family="Arial ItalicMT" font-size="10.00" fill="#999999">integer</text>
<text text-anchor="start" x="755" y="-272.5" font-family="ArialMT" font-size="10.00">likes_count </text>
<text text-anchor="start" x="807.808" y="-272.5" font-family="Arial ItalicMT" font-size="10.00" fill="#999999">integer</text>
<text text-anchor="start" x="755" y="-259.5" font-family="ArialMT" font-size="10.00">link </text>
<text text-anchor="start" x="772.783" y="-259.5" font-family="Arial ItalicMT" font-size="10.00" fill="#999999">string (2048)</text>
<text text-anchor="start" x="755" y="-246.5" font-family="ArialMT" font-size="10.00">num_of_pages </text>
<text text-anchor="start" x="823.94" y="-246.5" font-family="Arial ItalicMT" font-size="10.00" fill="#999999">integer</text>
<text text-anchor="start" x="755" y="-233.5" font-family="ArialMT" font-size="10.00">summary </text>
<text text-anchor="start" x="798.892" y="-233.5" font-family="Arial ItalicMT" font-size="10.00" fill="#999999">string (2048)</text>
<text text-anchor="start" x="755" y="-220.5" font-family="ArialMT" font-size="10.00">title </text>
<text text-anchor="start" x="773.34" y="-220.5" font-family="Arial ItalicMT" font-size="10.00" fill="#999999">string (255) ∗</text>
<text text-anchor="start" x="755" y="-207.5" font-family="ArialMT" font-size="10.00">type </text>
<text text-anchor="start" x="776.68" y="-207.5" font-family="Arial ItalicMT" font-size="10.00" fill="#999999">string</text>
</g>
<!-- m_Comment -->
<g id="node5" class="node"><title>m_Comment</title>
<path fill="none" stroke="black" d="M754,-99C754,-99 874,-99 874,-99 880,-99 886,-105 886,-111 886,-111 886,-142 886,-142 886,-148 880,-154 874,-154 874,-154 754,-154 754,-154 748,-154 742,-148 742,-142 742,-142 742,-111 742,-111 742,-105 748,-99 754,-99"/>
<text text-anchor="start" x="788.16" y="-140.7" font-family="Arial BoldMT" font-size="11.00">Comment</text>
<polyline fill="none" stroke="black" points="742,-135 886,-135 "/>
<text text-anchor="start" x="749" y="-122" font-family="ArialMT" font-size="10.00">body </text>
<text text-anchor="start" x="773.463" y="-122" font-family="Arial ItalicMT" font-size="10.00" fill="#999999">string (1024) ∗</text>
<text text-anchor="start" x="749" y="-109" font-family="ArialMT" font-size="10.00">deleted_at </text>
<text text-anchor="start" x="798.487" y="-109" font-family="Arial ItalicMT" font-size="10.00" fill="#999999">datetime</text>
</g>
<!-- m_Book&#45;&gt;m_Comment -->
<g id="edge8" class="edge"><title>m_Book&#45;&gt;m_Comment</title>
<path fill="none" stroke="black" d="M816.618,-192.301C816.235,-182.813 815.86,-173.535 815.519,-165.099"/>
<ellipse fill="none" stroke="black" cx="816.727" cy="-195.004" rx="2.4" ry="2.4"/>
<ellipse fill="black" stroke="black" cx="815.175" cy="-156.575" rx="2.4" ry="2.4"/>
<polygon fill="black" stroke="black" points="817.612,-164.884 815.272,-158.974 813.416,-165.053 817.612,-164.884"/>
</g>
<!-- m_Copy -->
<g id="node6" class="node"><title>m_Copy</title>
<path fill="none" stroke="black" d="M408,-92.5C408,-92.5 528,-92.5 528,-92.5 534,-92.5 540,-98.5 540,-104.5 540,-104.5 540,-148.5 540,-148.5 540,-154.5 534,-160.5 528,-160.5 528,-160.5 408,-160.5 408,-160.5 402,-160.5 396,-154.5 396,-148.5 396,-148.5 396,-104.5 396,-104.5 396,-98.5 402,-92.5 408,-92.5"/>
<text text-anchor="start" x="453.16" y="-147.2" font-family="Arial BoldMT" font-size="11.00">Copy</text>
<polyline fill="none" stroke="black" points="396,-141.5 540,-141.5 "/>
<text text-anchor="start" x="403" y="-128" font-family="ArialMT" font-size="10.00">borrowings_count </text>
<text text-anchor="start" x="484.714" y="-128" font-family="Arial ItalicMT" font-size="10.00" fill="#999999">integer</text>
<text text-anchor="start" x="403" y="-115" font-family="ArialMT" font-size="10.00">deleted_at </text>
<text text-anchor="start" x="452.487" y="-115" font-family="Arial ItalicMT" font-size="10.00" fill="#999999">datetime</text>
<text text-anchor="start" x="403" y="-102" font-family="ArialMT" font-size="10.00">number </text>
<text text-anchor="start" x="439.685" y="-102" font-family="Arial ItalicMT" font-size="10.00" fill="#999999">integer</text>
</g>
<!-- m_Book&#45;&gt;m_Copy -->
<g id="edge9" class="edge"><title>m_Book&#45;&gt;m_Copy</title>
<path fill="none" stroke="black" d="M743.671,-202.986C740.161,-200.827 736.599,-198.819 733,-197 660.572,-160.404 631.876,-183.812 554,-161 553.025,-160.714 552.045,-160.422 551.061,-160.124"/>
<ellipse fill="none" stroke="black" cx="745.739" cy="-204.3" rx="2.40002" ry="2.40002"/>
<ellipse fill="black" stroke="black" cx="542.707" cy="-157.456" rx="2.40001" ry="2.40001"/>
<polygon fill="black" stroke="black" points="551.347,-158.011 544.993,-158.186 550.07,-162.012 551.347,-158.011"/>
</g>
<!-- m_Dislike -->
<g id="node7" class="node"><title>m_Dislike</title>
<path fill="none" stroke="#999999" d="M870,-10C870,-10 990,-10 990,-10 996,-10 1002,-16 1002,-22 1002,-22 1002,-34 1002,-34 1002,-40 996,-46 990,-46 990,-46 870,-46 870,-46 864,-46 858,-40 858,-34 858,-34 858,-22 858,-22 858,-16 864,-10 870,-10"/>
<text text-anchor="start" x="911.803" y="-24.2" font-family="Arial BoldMT" font-size="11.00" fill="#999999">Dislike</text>
</g>
<!-- m_Book&#45;&gt;m_Dislike -->
<g id="edge7" class="edge"><title>m_Book&#45;&gt;m_Dislike</title>
<path fill="none" stroke="black" d="M930,-125.5C928.97,-102.492 929.046,-76.3679 929.338,-57.1086"/>
<ellipse fill="black" stroke="black" cx="929.495" cy="-48.4929" rx="2.4" ry="2.4"/>
<polygon fill="black" stroke="black" points="931.441,-56.9299 929.451,-50.8925 927.242,-56.8531 931.441,-56.9299"/>
</g>
<!-- m_Ebook -->
<g id="node8" class="node"><title>m_Ebook</title>
<path fill="none" stroke="#999999" d="M986,-108.5C986,-108.5 1106,-108.5 1106,-108.5 1112,-108.5 1118,-114.5 1118,-120.5 1118,-120.5 1118,-132.5 1118,-132.5 1118,-138.5 1112,-144.5 1106,-144.5 1106,-144.5 986,-144.5 986,-144.5 980,-144.5 974,-138.5 974,-132.5 974,-132.5 974,-120.5 974,-120.5 974,-114.5 980,-108.5 986,-108.5"/>
<text text-anchor="start" x="1028.41" y="-122.7" font-family="Arial BoldMT" font-size="11.00" fill="#999999">Ebook</text>
</g>
<!-- m_Book&#45;&gt;m_Ebook -->
<g id="edge1" class="edge"><title>m_Book&#45;&gt;m_Ebook</title>
<path fill="none" stroke="#999999" d="M901.878,-200.597C903.585,-199.369 905.293,-198.169 907,-197 937.943,-175.811 976.263,-157.142 1004.83,-144.504"/>
<polygon fill="none" stroke="#999999" points="899.225,-197.336 892.138,-207.891 904.261,-204.059 899.225,-197.336"/>
</g>
<!-- m_Like -->
<g id="node9" class="node"><title>m_Like</title>
<path fill="none" stroke="#999999" d="M697,-10C697,-10 817,-10 817,-10 823,-10 829,-16 829,-22 829,-22 829,-34 829,-34 829,-40 823,-46 817,-46 817,-46 697,-46 697,-46 691,-46 685,-40 685,-34 685,-34 685,-22 685,-22 685,-16 691,-10 697,-10"/>
<text text-anchor="start" x="744.91" y="-24.2" font-family="Arial BoldMT" font-size="11.00" fill="#999999">Like</text>
</g>
<!-- m_Book&#45;&gt;m_Like -->
<g id="edge6" class="edge"><title>m_Book&#45;&gt;m_Like</title>
<path fill="none" stroke="black" d="M895.439,-212.199C915.537,-188.18 931.409,-158.989 930,-127.5"/>
<ellipse fill="none" stroke="black" cx="893.739" cy="-214.185" rx="2.40002" ry="2.40002"/>
<path fill="none" stroke="black" d="M930,-125.5C928.816,-99.0378 866.417,-69.4811 816.902,-50.1355"/>
<ellipse fill="black" stroke="black" cx="808.799" cy="-47.0268" rx="2.40001" ry="2.40001"/>
<polygon fill="black" stroke="black" points="817.393,-48.075 811.039,-47.8865 815.889,-51.9963 817.393,-48.075"/>
</g>
<!-- m_PrintedBook -->
<g id="node11" class="node"><title>m_PrintedBook</title>
<path fill="none" stroke="#999999" d="M1332,-108.5C1332,-108.5 1452,-108.5 1452,-108.5 1458,-108.5 1464,-114.5 1464,-120.5 1464,-120.5 1464,-132.5 1464,-132.5 1464,-138.5 1458,-144.5 1452,-144.5 1452,-144.5 1332,-144.5 1332,-144.5 1326,-144.5 1320,-138.5 1320,-132.5 1320,-132.5 1320,-120.5 1320,-120.5 1320,-114.5 1326,-108.5 1332,-108.5"/>
<text text-anchor="start" x="1360.04" y="-122.7" font-family="Arial BoldMT" font-size="11.00" fill="#999999">PrintedBook</text>
</g>
<!-- m_Book&#45;&gt;m_PrintedBook -->
<g id="edge2" class="edge"><title>m_Book&#45;&gt;m_PrintedBook</title>
<path fill="none" stroke="#999999" d="M902.768,-198.963C904.17,-198.278 905.581,-197.623 907,-197 1070.04,-125.437 1132.66,-201.717 1306,-161 1322.53,-157.116 1340.12,-150.705 1355.05,-144.525"/>
<polygon fill="none" stroke="#999999" points="900.692,-195.311 892.192,-204.766 904.733,-202.676 900.692,-195.311"/>
</g>
<!-- m_Vote -->
<g id="node13" class="node"><title>m_Vote</title>
<path fill="none" stroke="black" d="M581,-99C581,-99 701,-99 701,-99 707,-99 713,-105 713,-111 713,-111 713,-142 713,-142 713,-148 707,-154 701,-154 701,-154 581,-154 581,-154 575,-154 569,-148 569,-142 569,-142 569,-111 569,-111 569,-105 575,-99 581,-99"/>
<text text-anchor="start" x="627.987" y="-140.7" font-family="Arial BoldMT" font-size="11.00">Vote</text>
<polyline fill="none" stroke="black" points="569,-135 713,-135 "/>
<text text-anchor="start" x="576" y="-122" font-family="ArialMT" font-size="10.00">deleted_at </text>
<text text-anchor="start" x="625.487" y="-122" font-family="Arial ItalicMT" font-size="10.00" fill="#999999">datetime</text>
<text text-anchor="start" x="576" y="-109" font-family="ArialMT" font-size="10.00">type </text>
<text text-anchor="start" x="597.68" y="-109" font-family="Arial ItalicMT" font-size="10.00" fill="#999999">string</text>
</g>
<!-- m_Book&#45;&gt;m_Vote -->
<g id="edge5" class="edge"><title>m_Book&#45;&gt;m_Vote</title>
<path fill="none" stroke="black" d="M744.079,-206.343C740.358,-203.156 736.652,-200.027 733,-197 718.323,-184.834 701.834,-172.102 686.912,-160.908"/>
<ellipse fill="none" stroke="black" cx="745.984" cy="-207.983" rx="2.40002" ry="2.40002"/>
<ellipse fill="none" stroke="black" cx="679.778" cy="-155.591" rx="2.40001" ry="2.40001"/>
<polygon fill="black" stroke="black" points="687.768,-158.927 681.703,-157.025 685.258,-162.295 687.768,-158.927"/>
</g>
<!-- m_Writer -->
<g id="node14" class="node"><title>m_Writer</title>
<path fill="none" stroke="black" d="M1159,-105.5C1159,-105.5 1279,-105.5 1279,-105.5 1285,-105.5 1291,-111.5 1291,-117.5 1291,-117.5 1291,-135.5 1291,-135.5 1291,-141.5 1285,-147.5 1279,-147.5 1279,-147.5 1159,-147.5 1159,-147.5 1153,-147.5 1147,-141.5 1147,-135.5 1147,-135.5 1147,-117.5 1147,-117.5 1147,-111.5 1153,-105.5 1159,-105.5"/>
<text text-anchor="start" x="1202.43" y="-134.2" font-family="Arial BoldMT" font-size="11.00">Writer</text>
<polyline fill="none" stroke="black" points="1147,-128.5 1291,-128.5 "/>
<text text-anchor="start" x="1154" y="-115" font-family="ArialMT" font-size="10.00">name </text>
<text text-anchor="start" x="1181.79" y="-115" font-family="Arial ItalicMT" font-size="10.00" fill="#999999">string ∗ U</text>
</g>
<!-- m_Book&#45;&gt;m_Writer -->
<g id="edge10" class="edge"><title>m_Book&#45;&gt;m_Writer</title>
<path fill="none" stroke="black" d="M901.815,-199.638C903.532,-198.716 905.261,-197.835 907,-197 998.691,-152.979 1034.83,-187.61 1133,-161 1142.65,-158.383 1152.71,-155.051 1162.41,-151.507"/>
<ellipse fill="none" stroke="black" cx="894.184" cy="-204.126" rx="2.40001" ry="2.40001"/>
<polygon fill="black" stroke="black" points="900.36,-198.057 896.253,-202.909 902.489,-201.678 900.36,-198.057"/>
<ellipse fill="none" stroke="black" cx="1170.5" cy="-148.451" rx="2.40001" ry="2.40001"/>
<polygon fill="black" stroke="black" points="1163.38,-153.384 1168.25,-149.299 1161.9,-149.454 1163.38,-153.384"/>
</g>
<!-- m_Borrowing -->
<g id="node4" class="node"><title>m_Borrowing</title>
<path fill="none" stroke="black" d="M408,-0.5C408,-0.5 528,-0.5 528,-0.5 534,-0.5 540,-6.5 540,-12.5 540,-12.5 540,-43.5 540,-43.5 540,-49.5 534,-55.5 528,-55.5 528,-55.5 408,-55.5 408,-55.5 402,-55.5 396,-49.5 396,-43.5 396,-43.5 396,-12.5 396,-12.5 396,-6.5 402,-0.5 408,-0.5"/>
<text text-anchor="start" x="441.239" y="-42.2" font-family="Arial BoldMT" font-size="11.00">Borrowing</text>
<polyline fill="none" stroke="black" points="396,-36.5 540,-36.5 "/>
<text text-anchor="start" x="403" y="-23.5" font-family="ArialMT" font-size="10.00">borrowed_at </text>
<text text-anchor="start" x="461.369" y="-23.5" font-family="Arial ItalicMT" font-size="10.00" fill="#999999">datetime</text>
<text text-anchor="start" x="403" y="-10.5" font-family="ArialMT" font-size="10.00">deleted_at </text>
<text text-anchor="start" x="452.487" y="-10.5" font-family="Arial ItalicMT" font-size="10.00" fill="#999999">datetime</text>
</g>
<!-- m_Copy&#45;&gt;m_Borrowing -->
<g id="edge15" class="edge"><title>m_Copy&#45;&gt;m_Borrowing</title>
<path fill="none" stroke="black" d="M468,-87.4463C468,-80.6129 468,-73.4937 468,-66.6712"/>
<ellipse fill="none" stroke="black" cx="468" cy="-89.8902" rx="2.4" ry="2.4"/>
<ellipse fill="black" stroke="black" cx="468" cy="-57.9726" rx="2.4" ry="2.4"/>
<polygon fill="black" stroke="black" points="470.1,-66.3725 468,-60.3726 465.9,-66.3726 470.1,-66.3725"/>
</g>
<!-- m_Location -->
<g id="node10" class="node"><title>m_Location</title>
<path fill="none" stroke="black" d="M402,-256C402,-256 522,-256 522,-256 528,-256 534,-262 534,-268 534,-268 534,-286 534,-286 534,-292 528,-298 522,-298 522,-298 402,-298 402,-298 396,-298 390,-292 390,-286 390,-286 390,-268 390,-268 390,-262 396,-256 402,-256"/>
<text text-anchor="start" x="439.206" y="-284.7" font-family="Arial BoldMT" font-size="11.00">Location</text>
<polyline fill="none" stroke="black" points="390,-279 534,-279 "/>
<text text-anchor="start" x="397" y="-265.5" font-family="ArialMT" font-size="10.00">city </text>
<text text-anchor="start" x="414.778" y="-265.5" font-family="Arial ItalicMT" font-size="10.00" fill="#999999">string (255) ∗</text>
</g>
<!-- m_Location&#45;&gt;m_Copy -->
<g id="edge14" class="edge"><title>m_Location&#45;&gt;m_Copy</title>
<path fill="none" stroke="black" d="M463.015,-250.879C463.89,-229.227 465.173,-197.461 466.219,-171.585"/>
<ellipse fill="none" stroke="black" cx="462.906" cy="-253.575" rx="2.4" ry="2.4"/>
<ellipse fill="black" stroke="black" cx="466.568" cy="-162.934" rx="2.4" ry="2.4"/>
<polygon fill="black" stroke="black" points="468.327,-171.412 466.471,-165.332 464.131,-171.243 468.327,-171.412"/>
</g>
<!-- m_PrintedBook&#45;&gt;m_Borrowing -->
<g id="edge11" class="edge"><title>m_PrintedBook&#45;&gt;m_Borrowing</title>
<path fill="none" stroke="black" stroke-dasharray="1,5" d="M1350.88,-106.451C1336.93,-100.81 1321.05,-95.2713 1306,-92 1029.34,-31.8745 951.85,-82.774 670,-56 630.897,-52.2855 587.721,-46.7151 551.358,-41.5969"/>
<ellipse fill="none" stroke="black" cx="1353.32" cy="-107.453" rx="2.40001" ry="2.40001"/>
<ellipse fill="none" stroke="black" cx="542.68" cy="-40.3634" rx="2.4" ry="2.4"/>
<polygon fill="black" stroke="black" points="551.292,-39.4665 545.056,-40.7012 550.701,-43.6247 551.292,-39.4665"/>
</g>
<!-- m_User -->
<g id="node12" class="node"><title>m_User</title>
<path fill="none" stroke="black" d="M575,-236.5C575,-236.5 707,-236.5 707,-236.5 713,-236.5 719,-242.5 719,-248.5 719,-248.5 719,-305.5 719,-305.5 719,-311.5 713,-317.5 707,-317.5 707,-317.5 575,-317.5 575,-317.5 569,-317.5 563,-311.5 563,-305.5 563,-305.5 563,-248.5 563,-248.5 563,-242.5 569,-236.5 575,-236.5"/>
<text text-anchor="start" x="627.388" y="-304.2" font-family="Arial BoldMT" font-size="11.00">User</text>
<polyline fill="none" stroke="black" points="563,-298.5 719,-298.5 "/>
<text text-anchor="start" x="570" y="-285.5" font-family="ArialMT" font-size="10.00">email </text>
<text text-anchor="start" x="596.675" y="-285.5" font-family="Arial ItalicMT" font-size="10.00" fill="#999999">string (255) ∗ U</text>
<text text-anchor="start" x="570" y="-272.5" font-family="ArialMT" font-size="10.00">login_token </text>
<text text-anchor="start" x="623.931" y="-272.5" font-family="Arial ItalicMT" font-size="10.00" fill="#999999">string</text>
<text text-anchor="start" x="569.84" y="-259.5" font-family="ArialMT" font-size="10.00">login_token_valid_until </text>
<text text-anchor="start" x="673.805" y="-259.5" font-family="Arial ItalicMT" font-size="10.00" fill="#999999">datetime</text>
<text text-anchor="start" x="570" y="-246.5" font-family="ArialMT" font-size="10.00">name </text>
<text text-anchor="start" x="597.793" y="-246.5" font-family="Arial ItalicMT" font-size="10.00" fill="#999999">string (100)</text>
</g>
<!-- m_User&#45;&gt;m_Borrowing -->
<g id="edge16" class="edge"><title>m_User&#45;&gt;m_Borrowing</title>
<path fill="none" stroke="black" d="M599.171,-232.868C584.17,-219.578 566.391,-206.072 548,-197 479.906,-163.411 428.698,-220.075 381,-161 361.735,-137.14 367.056,-119.313 381,-92 386.896,-80.4514 396.007,-70.5286 406.152,-62.2005"/>
<ellipse fill="none" stroke="black" cx="601.138" cy="-234.635" rx="2.40002" ry="2.40002"/>
<ellipse fill="black" stroke="black" cx="412.958" cy="-57.0309" rx="2.40001" ry="2.40001"/>
<polygon fill="black" stroke="black" points="407.539,-63.7841 411.046,-58.4826 404.998,-60.4396 407.539,-63.7841"/>
</g>
<!-- m_User&#45;&gt;m_Comment -->
<g id="edge12" class="edge"><title>m_User&#45;&gt;m_Comment</title>
<path fill="none" stroke="black" d="M691.128,-232.949C704.715,-221.282 719.42,-208.656 733,-197 746.494,-185.417 761.256,-172.75 774.437,-161.441"/>
<ellipse fill="none" stroke="black" cx="689.149" cy="-234.649" rx="2.40002" ry="2.40002"/>
<ellipse fill="black" stroke="black" cx="781.02" cy="-155.793" rx="2.40001" ry="2.40001"/>
<polygon fill="black" stroke="black" points="776.012,-162.856 779.199,-157.355 773.278,-159.668 776.012,-162.856"/>
</g>
<!-- m_User&#45;&gt;m_Vote -->
<g id="edge13" class="edge"><title>m_User&#45;&gt;m_Vote</title>
<path fill="none" stroke="black" d="M641,-231.26C641,-210.175 641,-185.299 641,-165.191"/>
<ellipse fill="none" stroke="black" cx="641" cy="-233.805" rx="2.4" ry="2.4"/>
<ellipse fill="black" stroke="black" cx="641" cy="-156.666" rx="2.4" ry="2.4"/>
<polygon fill="black" stroke="black" points="643.1,-165.066 641,-159.066 638.9,-165.066 643.1,-165.066"/>
</g>
<!-- m_Vote&#45;&gt;m_Dislike -->
<g id="edge3" class="edge"><title>m_Vote&#45;&gt;m_Dislike</title>
<path fill="none" stroke="#999999" d="M719.348,-94.7158C721.925,-93.7881 724.481,-92.8804 727,-92 727.458,-91.84 814.999,-64.6777 874.959,-46.0754"/>
<polygon fill="none" stroke="#999999" points="717.787,-90.8147 707.966,-98.8885 720.678,-98.7015 717.787,-90.8147"/>
</g>
<!-- m_Vote&#45;&gt;m_Like -->
<g id="edge4" class="edge"><title>m_Vote&#45;&gt;m_Like</title>
<path fill="none" stroke="#999999" d="M682.332,-91.116C700.676,-75.8557 721.451,-58.5733 736.421,-46.1194"/>
<polygon fill="none" stroke="#999999" points="679.544,-87.9723 673.005,-98.8755 684.916,-94.4299 679.544,-87.9723"/>
</g>
<!-- m_primary::SchemaMigration -->
<g id="node15" class="node"><title>m_primary::SchemaMigration</title>
<path fill="none" stroke="black" d="M933,-259C933,-259 1053,-259 1053,-259 1059,-259 1065,-265 1065,-271 1065,-271 1065,-283 1065,-283 1065,-289 1059,-295 1053,-295 1053,-295 933,-295 933,-295 927,-295 921,-289 921,-283 921,-283 921,-271 921,-271 921,-265 927,-259 933,-259"/>
<text text-anchor="start" x="926.813" y="-273.2" font-family="Arial BoldMT" font-size="11.00">primary::SchemaMigration</text>
</g>
</g>
</svg>
