<?xml version="1.0" encoding="UTF-8" standalone="no"?>
<!DOCTYPE svg PUBLIC "-//W3C//DTD SVG 1.1//EN"
 "http://www.w3.org/Graphics/SVG/1.1/DTD/svg11.dtd">
<!-- Generated by graphviz version 2.38.0 (20140413.2041)
 -->
<!-- Title: Books Pages: 1 -->
<svg width="1298pt" height="412pt"
 viewBox="0.00 0.00 1297.60 411.60" xmlns="http://www.w3.org/2000/svg" xmlns:xlink="http://www.w3.org/1999/xlink">
<g id="graph0" class="graph" transform="scale(1 1) rotate(0) translate(28.8 382.8)">
<title>Books</title>
<polygon fill="white" stroke="none" points="-28.8,28.8 -28.8,-382.8 1268.8,-382.8 1268.8,28.8 -28.8,28.8"/>
<text text-anchor="middle" x="620" y="-339.6" font-family="Arial BoldMT" font-size="13.00">Class Diagram Books</text>
<!-- m_ActiveRecord::InternalMetadata -->
<g id="node1" class="node"><title>m_ActiveRecord::InternalMetadata</title>
<path fill="none" stroke="black" d="M12,-236.5C12,-236.5 152,-236.5 152,-236.5 158,-236.5 164,-242.5 164,-248.5 164,-248.5 164,-266.5 164,-266.5 164,-272.5 158,-278.5 152,-278.5 152,-278.5 12,-278.5 12,-278.5 6,-278.5 0,-272.5 0,-266.5 0,-266.5 0,-248.5 0,-248.5 0,-242.5 6,-236.5 12,-236.5"/>
<text text-anchor="start" x="4.95972" y="-265.2" font-family="Arial BoldMT" font-size="11.00">ActiveRecord::InternalMetadata</text>
<polyline fill="none" stroke="black" points="0,-259.5 164,-259.5 "/>
<text text-anchor="start" x="17" y="-246" font-family="ArialMT" font-size="10.00">value </text>
<text text-anchor="start" x="43.6846" y="-246" font-family="Arial ItalicMT" font-size="10.00" fill="#999999">string</text>
</g>
<!-- m_ActiveRecord::SchemaMigration -->
<g id="node2" class="node"><title>m_ActiveRecord::SchemaMigration</title>
<path fill="none" stroke="black" d="M205.5,-239.5C205.5,-239.5 348.5,-239.5 348.5,-239.5 354.5,-239.5 360.5,-245.5 360.5,-251.5 360.5,-251.5 360.5,-263.5 360.5,-263.5 360.5,-269.5 354.5,-275.5 348.5,-275.5 348.5,-275.5 205.5,-275.5 205.5,-275.5 199.5,-275.5 193.5,-269.5 193.5,-263.5 193.5,-263.5 193.5,-251.5 193.5,-251.5 193.5,-245.5 199.5,-239.5 205.5,-239.5"/>
<text text-anchor="start" x="198.94" y="-253.7" font-family="Arial BoldMT" font-size="11.00">ActiveRecord::SchemaMigration</text>
</g>
<!-- m_Book -->
<g id="node3" class="node"><title>m_Book</title>
<path fill="none" stroke="black" d="M760,-197.5C760,-197.5 880,-197.5 880,-197.5 886,-197.5 892,-203.5 892,-209.5 892,-209.5 892,-305.5 892,-305.5 892,-311.5 886,-317.5 880,-317.5 880,-317.5 760,-317.5 760,-317.5 754,-317.5 748,-311.5 748,-305.5 748,-305.5 748,-209.5 748,-209.5 748,-203.5 754,-197.5 760,-197.5"/>
<text text-anchor="start" x="805.464" y="-304.2" font-family="Arial BoldMT" font-size="11.00">Book</text>
<polyline fill="none" stroke="black" points="748,-298.5 892,-298.5 "/>
<text text-anchor="start" x="755" y="-285" font-family="ArialMT" font-size="10.00">deleted_at </text>
<text text-anchor="start" x="804.487" y="-285" font-family="Arial ItalicMT" font-size="10.00" fill="#999999">datetime</text>
<text text-anchor="start" x="755" y="-272" font-family="ArialMT" font-size="10.00">dislikes_count </text>
<text text-anchor="start" x="820.591" y="-272" font-family="Arial ItalicMT" font-size="10.00" fill="#999999">integer</text>
<text text-anchor="start" x="755" y="-259" font-family="ArialMT" font-size="10.00">likes_count </text>
<text text-anchor="start" x="807.808" y="-259" font-family="Arial ItalicMT" font-size="10.00" fill="#999999">integer</text>
<text text-anchor="start" x="755" y="-246" font-family="ArialMT" font-size="10.00">link </text>
<text text-anchor="start" x="772.783" y="-246" font-family="Arial ItalicMT" font-size="10.00" fill="#999999">string (2048)</text>
<text text-anchor="start" x="755" y="-233" font-family="ArialMT" font-size="10.00">summary </text>
<text text-anchor="start" x="798.892" y="-233" font-family="Arial ItalicMT" font-size="10.00" fill="#999999">string (2048)</text>
<text text-anchor="start" x="755" y="-220" font-family="ArialMT" font-size="10.00">title </text>
<text text-anchor="start" x="773.34" y="-220" font-family="Arial ItalicMT" font-size="10.00" fill="#999999">string (255) ∗</text>
<text text-anchor="start" x="755" y="-207" font-family="ArialMT" font-size="10.00">type </text>
<text text-anchor="start" x="776.68" y="-207" font-family="Arial ItalicMT" font-size="10.00" fill="#999999">string</text>
</g>
<!-- m_Copy -->
<g id="node5" class="node"><title>m_Copy</title>
<path fill="none" stroke="black" d="M471,-92.5C471,-92.5 591,-92.5 591,-92.5 597,-92.5 603,-98.5 603,-104.5 603,-104.5 603,-148.5 603,-148.5 603,-154.5 597,-160.5 591,-160.5 591,-160.5 471,-160.5 471,-160.5 465,-160.5 459,-154.5 459,-148.5 459,-148.5 459,-104.5 459,-104.5 459,-98.5 465,-92.5 471,-92.5"/>
<text text-anchor="start" x="516.16" y="-147.2" font-family="Arial BoldMT" font-size="11.00">Copy</text>
<polyline fill="none" stroke="black" points="459,-141.5 603,-141.5 "/>
<text text-anchor="start" x="466" y="-128" font-family="ArialMT" font-size="10.00">borrowings_count </text>
<text text-anchor="start" x="547.714" y="-128" font-family="Arial ItalicMT" font-size="10.00" fill="#999999">integer</text>
<text text-anchor="start" x="466" y="-115" font-family="ArialMT" font-size="10.00">deleted_at </text>
<text text-anchor="start" x="515.487" y="-115" font-family="Arial ItalicMT" font-size="10.00" fill="#999999">datetime</text>
<text text-anchor="start" x="466" y="-102" font-family="ArialMT" font-size="10.00">number </text>
<text text-anchor="start" x="502.685" y="-102" font-family="Arial ItalicMT" font-size="10.00" fill="#999999">integer</text>
</g>
<!-- m_Book&#45;&gt;m_Copy -->
<g id="edge8" class="edge"><title>m_Book&#45;&gt;m_Copy</title>
<path fill="none" stroke="black" d="M743.448,-201.884C740.298,-200.166 737.142,-198.53 734,-197 685.465,-173.37 668.994,-178.709 618,-161 616.471,-160.469 614.929,-159.928 613.377,-159.38"/>
<ellipse fill="none" stroke="black" cx="745.642" cy="-203.107" rx="2.40002" ry="2.40002"/>
<ellipse fill="black" stroke="black" cx="605.282" cy="-156.47" rx="2.40001" ry="2.40001"/>
<polygon fill="black" stroke="black" points="613.898,-157.336 607.541,-157.282 612.477,-161.288 613.898,-157.336"/>
</g>
<!-- m_Dislike -->
<g id="node6" class="node"><title>m_Dislike</title>
<path fill="none" stroke="#999999" d="M992,-10C992,-10 1112,-10 1112,-10 1118,-10 1124,-16 1124,-22 1124,-22 1124,-34 1124,-34 1124,-40 1118,-46 1112,-46 1112,-46 992,-46 992,-46 986,-46 980,-40 980,-34 980,-34 980,-22 980,-22 980,-16 986,-10 992,-10"/>
<text text-anchor="start" x="1033.8" y="-24.2" font-family="Arial BoldMT" font-size="11.00" fill="#999999">Dislike</text>
</g>
<!-- m_Book&#45;&gt;m_Dislike -->
<g id="edge7" class="edge"><title>m_Book&#45;&gt;m_Dislike</title>
<path fill="none" stroke="black" d="M896.78,-202.263C900.187,-200.407 903.602,-198.643 907,-197 955.598,-173.501 986.479,-200.752 1023,-161 1049.07,-132.629 1053.62,-86.346 1053.54,-56.8018"/>
<ellipse fill="none" stroke="black" cx="894.237" cy="-203.679" rx="2.40002" ry="2.40002"/>
<ellipse fill="black" stroke="black" cx="1053.36" cy="-48.4017" rx="2.4" ry="2.4"/>
<polygon fill="black" stroke="black" points="1055.64,-56.7532 1053.41,-50.8011 1051.44,-56.846 1055.64,-56.7532"/>
</g>
<!-- m_Ebook -->
<g id="node7" class="node"><title>m_Ebook</title>
<path fill="none" stroke="#999999" d="M1108,-108.5C1108,-108.5 1228,-108.5 1228,-108.5 1234,-108.5 1240,-114.5 1240,-120.5 1240,-120.5 1240,-132.5 1240,-132.5 1240,-138.5 1234,-144.5 1228,-144.5 1228,-144.5 1108,-144.5 1108,-144.5 1102,-144.5 1096,-138.5 1096,-132.5 1096,-132.5 1096,-120.5 1096,-120.5 1096,-114.5 1102,-108.5 1108,-108.5"/>
<text text-anchor="start" x="1150.41" y="-122.7" font-family="Arial BoldMT" font-size="11.00" fill="#999999">Ebook</text>
</g>
<!-- m_Book&#45;&gt;m_Ebook -->
<g id="edge1" class="edge"><title>m_Book&#45;&gt;m_Ebook</title>
<path fill="none" stroke="#999999" d="M903.342,-198.625C904.562,-198.066 905.781,-197.524 907,-197 976.752,-167.008 1000.97,-181.788 1074,-161 1090.5,-156.304 1108.29,-150.23 1123.91,-144.546"/>
<polygon fill="none" stroke="#999999" points="901.28,-194.96 892.404,-204.062 905.019,-202.481 901.28,-194.96"/>
</g>
<!-- m_Like -->
<g id="node8" class="node"><title>m_Like</title>
<path fill="none" stroke="#999999" d="M760,-10C760,-10 880,-10 880,-10 886,-10 892,-16 892,-22 892,-22 892,-34 892,-34 892,-40 886,-46 880,-46 880,-46 760,-46 760,-46 754,-46 748,-40 748,-34 748,-34 748,-22 748,-22 748,-16 754,-10 760,-10"/>
<text text-anchor="start" x="807.91" y="-24.2" font-family="Arial BoldMT" font-size="11.00" fill="#999999">Like</text>
</g>
<!-- m_Book&#45;&gt;m_Like -->
<g id="edge6" class="edge"><title>m_Book&#45;&gt;m_Like</title>
<path fill="none" stroke="black" d="M820,-192.238C820,-147.802 820,-90.85 820,-57.3024"/>
<ellipse fill="none" stroke="black" cx="820" cy="-194.921" rx="2.4" ry="2.4"/>
<ellipse fill="black" stroke="black" cx="820" cy="-48.4682" rx="2.4" ry="2.4"/>
<polygon fill="black" stroke="black" points="822.1,-56.8682 820,-50.8682 817.9,-56.8682 822.1,-56.8682"/>
</g>
<!-- m_PrintedBook -->
<g id="node10" class="node"><title>m_PrintedBook</title>
<path fill="none" stroke="#999999" d="M876,-108.5C876,-108.5 996,-108.5 996,-108.5 1002,-108.5 1008,-114.5 1008,-120.5 1008,-120.5 1008,-132.5 1008,-132.5 1008,-138.5 1002,-144.5 996,-144.5 996,-144.5 876,-144.5 876,-144.5 870,-144.5 864,-138.5 864,-132.5 864,-132.5 864,-120.5 864,-120.5 864,-114.5 870,-108.5 876,-108.5"/>
<text text-anchor="start" x="904.037" y="-122.7" font-family="Arial BoldMT" font-size="11.00" fill="#999999">PrintedBook</text>
</g>
<!-- m_Book&#45;&gt;m_PrintedBook -->
<g id="edge2" class="edge"><title>m_Book&#45;&gt;m_PrintedBook</title>
<path fill="none" stroke="#999999" d="M881.361,-188.262C895.957,-172.031 910.267,-156.117 920.579,-144.649"/>
<polygon fill="none" stroke="#999999" points="878.148,-185.554 873.247,-197.286 884.394,-191.171 878.148,-185.554"/>
</g>
<!-- m_Vote -->
<g id="node12" class="node"><title>m_Vote</title>
<path fill="none" stroke="black" d="M644,-99C644,-99 764,-99 764,-99 770,-99 776,-105 776,-111 776,-111 776,-142 776,-142 776,-148 770,-154 764,-154 764,-154 644,-154 644,-154 638,-154 632,-148 632,-142 632,-142 632,-111 632,-111 632,-105 638,-99 644,-99"/>
<text text-anchor="start" x="690.987" y="-140.7" font-family="Arial BoldMT" font-size="11.00">Vote</text>
<polyline fill="none" stroke="black" points="632,-135 776,-135 "/>
<text text-anchor="start" x="639" y="-122" font-family="ArialMT" font-size="10.00">deleted_at </text>
<text text-anchor="start" x="688.487" y="-122" font-family="Arial ItalicMT" font-size="10.00" fill="#999999">datetime</text>
<text text-anchor="start" x="639" y="-109" font-family="ArialMT" font-size="10.00">type </text>
<text text-anchor="start" x="660.68" y="-109" font-family="Arial ItalicMT" font-size="10.00" fill="#999999">string</text>
</g>
<!-- m_Book&#45;&gt;m_Vote -->
<g id="edge5" class="edge"><title>m_Book&#45;&gt;m_Vote</title>
<path fill="none" stroke="black" d="M763.246,-193.386C753.619,-182.68 743.946,-171.923 735.289,-162.295"/>
<ellipse fill="none" stroke="black" cx="765.148" cy="-195.501" rx="2.40002" ry="2.40002"/>
<ellipse fill="none" stroke="black" cx="729.574" cy="-155.94" rx="2.40001" ry="2.40001"/>
<polygon fill="black" stroke="black" points="736.752,-160.782 731.179,-157.725 733.629,-163.59 736.752,-160.782"/>
</g>
<!-- m_Borrowing -->
<g id="node4" class="node"><title>m_Borrowing</title>
<path fill="none" stroke="black" d="M471,-0.5C471,-0.5 591,-0.5 591,-0.5 597,-0.5 603,-6.5 603,-12.5 603,-12.5 603,-43.5 603,-43.5 603,-49.5 597,-55.5 591,-55.5 591,-55.5 471,-55.5 471,-55.5 465,-55.5 459,-49.5 459,-43.5 459,-43.5 459,-12.5 459,-12.5 459,-6.5 465,-0.5 471,-0.5"/>
<text text-anchor="start" x="504.239" y="-42.2" font-family="Arial BoldMT" font-size="11.00">Borrowing</text>
<polyline fill="none" stroke="black" points="459,-36.5 603,-36.5 "/>
<text text-anchor="start" x="466" y="-23.5" font-family="ArialMT" font-size="10.00">borrowed_at </text>
<text text-anchor="start" x="524.369" y="-23.5" font-family="Arial ItalicMT" font-size="10.00" fill="#999999">datetime</text>
<text text-anchor="start" x="466" y="-10.5" font-family="ArialMT" font-size="10.00">deleted_at </text>
<text text-anchor="start" x="515.487" y="-10.5" font-family="Arial ItalicMT" font-size="10.00" fill="#999999">datetime</text>
</g>
<!-- m_Copy&#45;&gt;m_Borrowing -->
<g id="edge11" class="edge"><title>m_Copy&#45;&gt;m_Borrowing</title>
<path fill="none" stroke="black" d="M531,-87.4463C531,-80.6129 531,-73.4937 531,-66.6712"/>
<ellipse fill="none" stroke="black" cx="531" cy="-89.8902" rx="2.4" ry="2.4"/>
<ellipse fill="black" stroke="black" cx="531" cy="-57.9726" rx="2.4" ry="2.4"/>
<polygon fill="black" stroke="black" points="533.1,-66.3725 531,-60.3726 528.9,-66.3726 533.1,-66.3725"/>
</g>
<!-- m_Location -->
<g id="node9" class="node"><title>m_Location</title>
<path fill="none" stroke="black" d="M587,-236.5C587,-236.5 707,-236.5 707,-236.5 713,-236.5 719,-242.5 719,-248.5 719,-248.5 719,-266.5 719,-266.5 719,-272.5 713,-278.5 707,-278.5 707,-278.5 587,-278.5 587,-278.5 581,-278.5 575,-272.5 575,-266.5 575,-266.5 575,-248.5 575,-248.5 575,-242.5 581,-236.5 587,-236.5"/>
<text text-anchor="start" x="624.206" y="-265.2" font-family="Arial BoldMT" font-size="11.00">Location</text>
<polyline fill="none" stroke="black" points="575,-259.5 719,-259.5 "/>
<text text-anchor="start" x="582" y="-246" font-family="ArialMT" font-size="10.00">city </text>
<text text-anchor="start" x="599.778" y="-246" font-family="Arial ItalicMT" font-size="10.00" fill="#999999">string (255) ∗</text>
</g>
<!-- m_Location&#45;&gt;m_Copy -->
<g id="edge10" class="edge"><title>m_Location&#45;&gt;m_Copy</title>
<path fill="none" stroke="black" d="M625.57,-232.668C609.482,-214.777 587.052,-189.834 568.074,-168.729"/>
<ellipse fill="none" stroke="black" cx="627.27" cy="-234.559" rx="2.40002" ry="2.40002"/>
<ellipse fill="black" stroke="black" cx="562.327" cy="-162.338" rx="2.40001" ry="2.40001"/>
<polygon fill="black" stroke="black" points="569.505,-167.18 563.932,-164.122 566.382,-169.988 569.505,-167.18"/>
</g>
<!-- m_PrintedBook&#45;&gt;m_Borrowing -->
<g id="edge9" class="edge"><title>m_PrintedBook&#45;&gt;m_Borrowing</title>
<path fill="none" stroke="black" stroke-dasharray="1,5" d="M859.729,-107.327C789.667,-90.633 686.072,-65.9492 613.968,-48.7689"/>
<ellipse fill="none" stroke="black" cx="862.192" cy="-107.914" rx="2.40001" ry="2.40001"/>
<ellipse fill="none" stroke="black" cx="605.456" cy="-46.7408" rx="2.4" ry="2.4"/>
<polygon fill="black" stroke="black" points="614.114,-46.645 607.791,-47.2971 613.141,-50.7306 614.114,-46.645"/>
</g>
<!-- m_User -->
<g id="node11" class="node"><title>m_User</title>
<path fill="none" stroke="black" d="M402,-217C402,-217 534,-217 534,-217 540,-217 546,-223 546,-229 546,-229 546,-286 546,-286 546,-292 540,-298 534,-298 534,-298 402,-298 402,-298 396,-298 390,-292 390,-286 390,-286 390,-229 390,-229 390,-223 396,-217 402,-217"/>
<text text-anchor="start" x="454.388" y="-284.7" font-family="Arial BoldMT" font-size="11.00">User</text>
<polyline fill="none" stroke="black" points="390,-279 546,-279 "/>
<text text-anchor="start" x="397" y="-266" font-family="ArialMT" font-size="10.00">email </text>
<text text-anchor="start" x="423.675" y="-266" font-family="Arial ItalicMT" font-size="10.00" fill="#999999">string (255) ∗ U</text>
<text text-anchor="start" x="397" y="-253" font-family="ArialMT" font-size="10.00">login_token </text>
<text text-anchor="start" x="450.931" y="-253" font-family="Arial ItalicMT" font-size="10.00" fill="#999999">string</text>
<text text-anchor="start" x="396.84" y="-240" font-family="ArialMT" font-size="10.00">login_token_valid_until </text>
<text text-anchor="start" x="500.805" y="-240" font-family="Arial ItalicMT" font-size="10.00" fill="#999999">datetime</text>
<text text-anchor="start" x="397" y="-227" font-family="ArialMT" font-size="10.00">name </text>
<text text-anchor="start" x="424.793" y="-227" font-family="Arial ItalicMT" font-size="10.00" fill="#999999">string (100)</text>
</g>
<!-- m_User&#45;&gt;m_Borrowing -->
<g id="edge12" class="edge"><title>m_User&#45;&gt;m_Borrowing</title>
<path fill="none" stroke="black" d="M448.35,-212.247C436.111,-177.74 425.967,-129.537 445,-92 450.82,-80.5223 459.823,-70.6319 469.85,-62.3133"/>
<ellipse fill="none" stroke="black" cx="449.189" cy="-214.554" rx="2.40001" ry="2.40001"/>
<ellipse fill="black" stroke="black" cx="476.563" cy="-57.1569" rx="2.40001" ry="2.40001"/>
<polygon fill="black" stroke="black" points="471.18,-63.9392 474.659,-58.6189 468.622,-60.6084 471.18,-63.9392"/>
</g>
<!-- m_User&#45;&gt;m_Vote -->
<g id="edge13" class="edge"><title>m_User&#45;&gt;m_Vote</title>
<path fill="none" stroke="black" d="M531.785,-214.316C541.463,-208.318 551.417,-202.37 561,-197 584.809,-183.658 611.559,-170.254 635.425,-158.827"/>
<ellipse fill="none" stroke="black" cx="529.694" cy="-215.619" rx="2.40002" ry="2.40002"/>
<ellipse fill="black" stroke="black" cx="643.293" cy="-155.087" rx="2.40001" ry="2.40001"/>
<polygon fill="black" stroke="black" points="636.608,-160.59 641.125,-156.118 634.805,-156.797 636.608,-160.59"/>
</g>
<!-- m_Vote&#45;&gt;m_Dislike -->
<g id="edge3" class="edge"><title>m_Vote&#45;&gt;m_Dislike</title>
<path fill="none" stroke="#999999" d="M787.898,-102.235C850.332,-84.9224 934.14,-61.6825 990.454,-46.0665"/>
<polygon fill="none" stroke="#999999" points="786.547,-98.2512 776.106,-105.505 788.792,-106.346 786.547,-98.2512"/>
</g>
<!-- m_Vote&#45;&gt;m_Like -->
<g id="edge4" class="edge"><title>m_Vote&#45;&gt;m_Like</title>
<path fill="none" stroke="#999999" d="M745.332,-91.116C763.676,-75.8557 784.451,-58.5733 799.421,-46.1194"/>
<polygon fill="none" stroke="#999999" points="742.544,-87.9723 736.005,-98.8755 747.916,-94.4299 742.544,-87.9723"/>
</g>
<!-- m_primary::SchemaMigration -->
<g id="node13" class="node"><title>m_primary::SchemaMigration</title>
<path fill="none" stroke="black" d="M933,-239.5C933,-239.5 1053,-239.5 1053,-239.5 1059,-239.5 1065,-245.5 1065,-251.5 1065,-251.5 1065,-263.5 1065,-263.5 1065,-269.5 1059,-275.5 1053,-275.5 1053,-275.5 933,-275.5 933,-275.5 927,-275.5 921,-269.5 921,-263.5 921,-263.5 921,-251.5 921,-251.5 921,-245.5 927,-239.5 933,-239.5"/>
<text text-anchor="start" x="926.813" y="-253.7" font-family="Arial BoldMT" font-size="11.00">primary::SchemaMigration</text>
</g>
</g>
</svg>
