<?xml version="1.0" encoding="UTF-8" standalone="no"?>
<!DOCTYPE svg PUBLIC "-//W3C//DTD SVG 1.1//EN"
 "http://www.w3.org/Graphics/SVG/1.1/DTD/svg11.dtd">
<!-- Generated by graphviz version 2.38.0 (20140413.2041)
 -->
<!-- Title: Books Pages: 1 -->
<svg width="1442pt" height="412pt"
 viewBox="0.00 0.00 1441.60 411.60" xmlns="http://www.w3.org/2000/svg" xmlns:xlink="http://www.w3.org/1999/xlink">
<g id="graph0" class="graph" transform="scale(1 1) rotate(0) translate(28.8 382.8)">
<title>Books</title>
<polygon fill="white" stroke="none" points="-28.8,28.8 -28.8,-382.8 1412.8,-382.8 1412.8,28.8 -28.8,28.8"/>
<text text-anchor="middle" x="692" y="-339.6" font-family="Arial BoldMT" font-size="13.00">Class Diagram Books</text>
<!-- m_ActiveRecord::InternalMetadata -->
<g id="node1" class="node"><title>m_ActiveRecord::InternalMetadata</title>
<path fill="none" stroke="black" d="M12,-236.5C12,-236.5 152,-236.5 152,-236.5 158,-236.5 164,-242.5 164,-248.5 164,-248.5 164,-266.5 164,-266.5 164,-272.5 158,-278.5 152,-278.5 152,-278.5 12,-278.5 12,-278.5 6,-278.5 0,-272.5 0,-266.5 0,-266.5 0,-248.5 0,-248.5 0,-242.5 6,-236.5 12,-236.5"/>
<text text-anchor="start" x="4.95972" y="-265.2" font-family="Arial BoldMT" font-size="11.00">ActiveRecord::InternalMetadata</text>
<polyline fill="none" stroke="black" points="0,-259.5 164,-259.5 "/>
<text text-anchor="start" x="17" y="-246" font-family="ArialMT" font-size="10.00">value </text>
<text text-anchor="start" x="43.6846" y="-246" font-family="Arial ItalicMT" font-size="10.00" fill="#999999">string</text>
</g>
<!-- m_ActiveRecord::SchemaMigration -->
<g id="node2" class="node"><title>m_ActiveRecord::SchemaMigration</title>
<path fill="none" stroke="black" d="M205.5,-239.5C205.5,-239.5 348.5,-239.5 348.5,-239.5 354.5,-239.5 360.5,-245.5 360.5,-251.5 360.5,-251.5 360.5,-263.5 360.5,-263.5 360.5,-269.5 354.5,-275.5 348.5,-275.5 348.5,-275.5 205.5,-275.5 205.5,-275.5 199.5,-275.5 193.5,-269.5 193.5,-263.5 193.5,-263.5 193.5,-251.5 193.5,-251.5 193.5,-245.5 199.5,-239.5 205.5,-239.5"/>
<text text-anchor="start" x="198.94" y="-253.7" font-family="Arial BoldMT" font-size="11.00">ActiveRecord::SchemaMigration</text>
</g>
<!-- m_ActsAsTaggableOn::Tag -->
<g id="node3" class="node"><title>m_ActsAsTaggableOn::Tag</title>
<path fill="none" stroke="black" d="M760,-230C760,-230 880,-230 880,-230 886,-230 892,-236 892,-242 892,-242 892,-273 892,-273 892,-279 886,-285 880,-285 880,-285 760,-285 760,-285 754,-285 748,-279 748,-273 748,-273 748,-242 748,-242 748,-236 754,-230 760,-230"/>
<text text-anchor="start" x="759.299" y="-271.7" font-family="Arial BoldMT" font-size="11.00">ActsAsTaggableOn::Tag</text>
<polyline fill="none" stroke="black" points="748,-266 892,-266 "/>
<text text-anchor="start" x="755" y="-253" font-family="ArialMT" font-size="10.00">name </text>
<text text-anchor="start" x="782.793" y="-253" font-family="Arial ItalicMT" font-size="10.00" fill="#999999">string ∗ U</text>
<text text-anchor="start" x="755" y="-240" font-family="ArialMT" font-size="10.00">taggings_count </text>
<text text-anchor="start" x="825.61" y="-240" font-family="Arial ItalicMT" font-size="10.00" fill="#999999">integer</text>
</g>
<!-- m_Book -->
<g id="node4" class="node"><title>m_Book</title>
<path fill="none" stroke="black" d="M933,-197.5C933,-197.5 1053,-197.5 1053,-197.5 1059,-197.5 1065,-203.5 1065,-209.5 1065,-209.5 1065,-305.5 1065,-305.5 1065,-311.5 1059,-317.5 1053,-317.5 1053,-317.5 933,-317.5 933,-317.5 927,-317.5 921,-311.5 921,-305.5 921,-305.5 921,-209.5 921,-209.5 921,-203.5 927,-197.5 933,-197.5"/>
<text text-anchor="start" x="978.464" y="-304.2" font-family="Arial BoldMT" font-size="11.00">Book</text>
<polyline fill="none" stroke="black" points="921,-298.5 1065,-298.5 "/>
<text text-anchor="start" x="928" y="-285" font-family="ArialMT" font-size="10.00">deleted_at </text>
<text text-anchor="start" x="977.487" y="-285" font-family="Arial ItalicMT" font-size="10.00" fill="#999999">datetime</text>
<text text-anchor="start" x="928" y="-272" font-family="ArialMT" font-size="10.00">dislikes_count </text>
<text text-anchor="start" x="993.591" y="-272" font-family="Arial ItalicMT" font-size="10.00" fill="#999999">integer</text>
<text text-anchor="start" x="928" y="-259" font-family="ArialMT" font-size="10.00">likes_count </text>
<text text-anchor="start" x="980.808" y="-259" font-family="Arial ItalicMT" font-size="10.00" fill="#999999">integer</text>
<text text-anchor="start" x="928" y="-246" font-family="ArialMT" font-size="10.00">link </text>
<text text-anchor="start" x="945.783" y="-246" font-family="Arial ItalicMT" font-size="10.00" fill="#999999">string (2048)</text>
<text text-anchor="start" x="928" y="-233" font-family="ArialMT" font-size="10.00">summary </text>
<text text-anchor="start" x="971.892" y="-233" font-family="Arial ItalicMT" font-size="10.00" fill="#999999">string (2048)</text>
<text text-anchor="start" x="928" y="-220" font-family="ArialMT" font-size="10.00">title </text>
<text text-anchor="start" x="946.34" y="-220" font-family="Arial ItalicMT" font-size="10.00" fill="#999999">string (255) ∗</text>
<text text-anchor="start" x="928" y="-207" font-family="ArialMT" font-size="10.00">type </text>
<text text-anchor="start" x="949.68" y="-207" font-family="Arial ItalicMT" font-size="10.00" fill="#999999">string</text>
</g>
<!-- m_Book&#45;&gt;m_ActsAsTaggableOn::Tag -->
<g id="edge9" class="edge"><title>m_Book&#45;&gt;m_ActsAsTaggableOn::Tag</title>
<path fill="none" stroke="black" stroke-dasharray="1,5" d="M915.774,-257.5C911.64,-257.5 907.505,-257.5 903.371,-257.5"/>
<ellipse fill="none" stroke="black" cx="918.228" cy="-257.5" rx="2.4" ry="2.4"/>
<ellipse fill="none" stroke="black" cx="894.709" cy="-257.5" rx="2.4" ry="2.4"/>
<polygon fill="black" stroke="black" points="903.109,-255.4 897.109,-257.5 903.109,-259.6 903.109,-255.4"/>
</g>
<!-- m_Copy -->
<g id="node6" class="node"><title>m_Copy</title>
<path fill="none" stroke="black" d="M615,-92.5C615,-92.5 735,-92.5 735,-92.5 741,-92.5 747,-98.5 747,-104.5 747,-104.5 747,-148.5 747,-148.5 747,-154.5 741,-160.5 735,-160.5 735,-160.5 615,-160.5 615,-160.5 609,-160.5 603,-154.5 603,-148.5 603,-148.5 603,-104.5 603,-104.5 603,-98.5 609,-92.5 615,-92.5"/>
<text text-anchor="start" x="660.16" y="-147.2" font-family="Arial BoldMT" font-size="11.00">Copy</text>
<polyline fill="none" stroke="black" points="603,-141.5 747,-141.5 "/>
<text text-anchor="start" x="610" y="-128" font-family="ArialMT" font-size="10.00">borrowings_count </text>
<text text-anchor="start" x="691.714" y="-128" font-family="Arial ItalicMT" font-size="10.00" fill="#999999">integer</text>
<text text-anchor="start" x="610" y="-115" font-family="ArialMT" font-size="10.00">deleted_at </text>
<text text-anchor="start" x="659.487" y="-115" font-family="Arial ItalicMT" font-size="10.00" fill="#999999">datetime</text>
<text text-anchor="start" x="610" y="-102" font-family="ArialMT" font-size="10.00">number </text>
<text text-anchor="start" x="646.685" y="-102" font-family="Arial ItalicMT" font-size="10.00" fill="#999999">integer</text>
</g>
<!-- m_Book&#45;&gt;m_Copy -->
<g id="edge8" class="edge"><title>m_Book&#45;&gt;m_Copy</title>
<path fill="none" stroke="black" d="M916.558,-201.65C913.377,-199.998 910.185,-198.439 907,-197 846.487,-169.664 825.327,-180.969 762,-161 760.654,-160.576 759.299,-160.141 757.937,-159.698"/>
<ellipse fill="none" stroke="black" cx="918.768" cy="-202.83" rx="2.40002" ry="2.40002"/>
<ellipse fill="black" stroke="black" cx="749.667" cy="-156.914" rx="2.40001" ry="2.40001"/>
<polygon fill="black" stroke="black" points="758.298,-157.604 751.942,-157.68 756.958,-161.585 758.298,-157.604"/>
</g>
<!-- m_Dislike -->
<g id="node7" class="node"><title>m_Dislike</title>
<path fill="none" stroke="#999999" d="M1136,-10C1136,-10 1256,-10 1256,-10 1262,-10 1268,-16 1268,-22 1268,-22 1268,-34 1268,-34 1268,-40 1262,-46 1256,-46 1256,-46 1136,-46 1136,-46 1130,-46 1124,-40 1124,-34 1124,-34 1124,-22 1124,-22 1124,-16 1130,-10 1136,-10"/>
<text text-anchor="start" x="1177.8" y="-24.2" font-family="Arial BoldMT" font-size="11.00" fill="#999999">Dislike</text>
</g>
<!-- m_Book&#45;&gt;m_Dislike -->
<g id="edge7" class="edge"><title>m_Book&#45;&gt;m_Dislike</title>
<path fill="none" stroke="black" d="M1069.98,-202.652C1073.33,-200.69 1076.68,-198.796 1080,-197 1116.8,-177.081 1140.13,-193.077 1167,-161 1191.5,-131.756 1196.58,-86.4101 1197.02,-57.2139"/>
<ellipse fill="none" stroke="black" cx="1067.47" cy="-204.143" rx="2.40002" ry="2.40002"/>
<ellipse fill="black" stroke="black" cx="1196.99" cy="-48.5501" rx="2.4" ry="2.4"/>
<polygon fill="black" stroke="black" points="1199.12,-56.942 1197,-50.9501 1194.92,-56.958 1199.12,-56.942"/>
</g>
<!-- m_Ebook -->
<g id="node8" class="node"><title>m_Ebook</title>
<path fill="none" stroke="#999999" d="M1252,-108.5C1252,-108.5 1372,-108.5 1372,-108.5 1378,-108.5 1384,-114.5 1384,-120.5 1384,-120.5 1384,-132.5 1384,-132.5 1384,-138.5 1378,-144.5 1372,-144.5 1372,-144.5 1252,-144.5 1252,-144.5 1246,-144.5 1240,-138.5 1240,-132.5 1240,-132.5 1240,-120.5 1240,-120.5 1240,-114.5 1246,-108.5 1252,-108.5"/>
<text text-anchor="start" x="1294.41" y="-122.7" font-family="Arial BoldMT" font-size="11.00" fill="#999999">Ebook</text>
</g>
<!-- m_Book&#45;&gt;m_Ebook -->
<g id="edge1" class="edge"><title>m_Book&#45;&gt;m_Ebook</title>
<path fill="none" stroke="#999999" d="M1075.78,-198.986C1077.19,-198.303 1078.6,-197.64 1080,-197 1137.68,-170.72 1157.42,-179.657 1218,-161 1233.9,-156.105 1251.09,-150.17 1266.37,-144.664"/>
<polygon fill="none" stroke="#999999" points="1073.73,-195.32 1065.02,-204.581 1077.6,-202.773 1073.73,-195.32"/>
</g>
<!-- m_Like -->
<g id="node9" class="node"><title>m_Like</title>
<path fill="none" stroke="#999999" d="M904,-10C904,-10 1024,-10 1024,-10 1030,-10 1036,-16 1036,-22 1036,-22 1036,-34 1036,-34 1036,-40 1030,-46 1024,-46 1024,-46 904,-46 904,-46 898,-46 892,-40 892,-34 892,-34 892,-22 892,-22 892,-16 898,-10 904,-10"/>
<text text-anchor="start" x="951.91" y="-24.2" font-family="Arial BoldMT" font-size="11.00" fill="#999999">Like</text>
</g>
<!-- m_Book&#45;&gt;m_Like -->
<g id="edge6" class="edge"><title>m_Book&#45;&gt;m_Like</title>
<path fill="none" stroke="black" d="M984.847,-192.54C979.153,-147.877 971.834,-90.4531 967.555,-56.8862"/>
<ellipse fill="none" stroke="black" cx="985.153" cy="-194.94" rx="2.40001" ry="2.40001"/>
<ellipse fill="black" stroke="black" cx="966.479" cy="-48.4489" rx="2.4" ry="2.4"/>
<polygon fill="black" stroke="black" points="969.625,-56.5159 966.783,-50.8297 965.458,-57.0471 969.625,-56.5159"/>
</g>
<!-- m_PrintedBook -->
<g id="node11" class="node"><title>m_PrintedBook</title>
<path fill="none" stroke="#999999" d="M1020,-108.5C1020,-108.5 1140,-108.5 1140,-108.5 1146,-108.5 1152,-114.5 1152,-120.5 1152,-120.5 1152,-132.5 1152,-132.5 1152,-138.5 1146,-144.5 1140,-144.5 1140,-144.5 1020,-144.5 1020,-144.5 1014,-144.5 1008,-138.5 1008,-132.5 1008,-132.5 1008,-120.5 1008,-120.5 1008,-114.5 1014,-108.5 1020,-108.5"/>
<text text-anchor="start" x="1048.04" y="-122.7" font-family="Arial BoldMT" font-size="11.00" fill="#999999">PrintedBook</text>
</g>
<!-- m_Book&#45;&gt;m_PrintedBook -->
<g id="edge2" class="edge"><title>m_Book&#45;&gt;m_PrintedBook</title>
<path fill="none" stroke="#999999" d="M1039.93,-186.91C1050.56,-171.15 1060.92,-155.798 1068.43,-144.649"/>
<polygon fill="none" stroke="#999999" points="1036.16,-184.988 1032.94,-197.286 1043.13,-189.685 1036.16,-184.988"/>
</g>
<!-- m_Vote -->
<g id="node13" class="node"><title>m_Vote</title>
<path fill="none" stroke="black" d="M788,-99C788,-99 908,-99 908,-99 914,-99 920,-105 920,-111 920,-111 920,-142 920,-142 920,-148 914,-154 908,-154 908,-154 788,-154 788,-154 782,-154 776,-148 776,-142 776,-142 776,-111 776,-111 776,-105 782,-99 788,-99"/>
<text text-anchor="start" x="834.987" y="-140.7" font-family="Arial BoldMT" font-size="11.00">Vote</text>
<polyline fill="none" stroke="black" points="776,-135 920,-135 "/>
<text text-anchor="start" x="783" y="-122" font-family="ArialMT" font-size="10.00">deleted_at </text>
<text text-anchor="start" x="832.487" y="-122" font-family="Arial ItalicMT" font-size="10.00" fill="#999999">datetime</text>
<text text-anchor="start" x="783" y="-109" font-family="ArialMT" font-size="10.00">type </text>
<text text-anchor="start" x="804.68" y="-109" font-family="Arial ItalicMT" font-size="10.00" fill="#999999">string</text>
</g>
<!-- m_Book&#45;&gt;m_Vote -->
<g id="edge5" class="edge"><title>m_Book&#45;&gt;m_Vote</title>
<path fill="none" stroke="black" d="M922.457,-193.741C909.954,-182.617 897.373,-171.425 886.203,-161.488"/>
<ellipse fill="none" stroke="black" cx="924.648" cy="-195.69" rx="2.40002" ry="2.40002"/>
<ellipse fill="none" stroke="black" cx="879.755" cy="-155.751" rx="2.40001" ry="2.40001"/>
<polygon fill="black" stroke="black" points="887.426,-159.765 881.548,-157.346 884.635,-162.903 887.426,-159.765"/>
</g>
<!-- m_Borrowing -->
<g id="node5" class="node"><title>m_Borrowing</title>
<path fill="none" stroke="black" d="M615,-0.5C615,-0.5 735,-0.5 735,-0.5 741,-0.5 747,-6.5 747,-12.5 747,-12.5 747,-43.5 747,-43.5 747,-49.5 741,-55.5 735,-55.5 735,-55.5 615,-55.5 615,-55.5 609,-55.5 603,-49.5 603,-43.5 603,-43.5 603,-12.5 603,-12.5 603,-6.5 609,-0.5 615,-0.5"/>
<text text-anchor="start" x="648.239" y="-42.2" font-family="Arial BoldMT" font-size="11.00">Borrowing</text>
<polyline fill="none" stroke="black" points="603,-36.5 747,-36.5 "/>
<text text-anchor="start" x="610" y="-23.5" font-family="ArialMT" font-size="10.00">borrowed_at </text>
<text text-anchor="start" x="668.369" y="-23.5" font-family="Arial ItalicMT" font-size="10.00" fill="#999999">datetime</text>
<text text-anchor="start" x="610" y="-10.5" font-family="ArialMT" font-size="10.00">deleted_at </text>
<text text-anchor="start" x="659.487" y="-10.5" font-family="Arial ItalicMT" font-size="10.00" fill="#999999">datetime</text>
</g>
<!-- m_Copy&#45;&gt;m_Borrowing -->
<g id="edge13" class="edge"><title>m_Copy&#45;&gt;m_Borrowing</title>
<path fill="none" stroke="black" d="M675,-87.4463C675,-80.6129 675,-73.4937 675,-66.6712"/>
<ellipse fill="none" stroke="black" cx="675" cy="-89.8902" rx="2.4" ry="2.4"/>
<ellipse fill="black" stroke="black" cx="675" cy="-57.9726" rx="2.4" ry="2.4"/>
<polygon fill="black" stroke="black" points="677.1,-66.3725 675,-60.3726 672.9,-66.3726 677.1,-66.3725"/>
</g>
<!-- m_Location -->
<g id="node10" class="node"><title>m_Location</title>
<path fill="none" stroke="black" d="M587,-236.5C587,-236.5 707,-236.5 707,-236.5 713,-236.5 719,-242.5 719,-248.5 719,-248.5 719,-266.5 719,-266.5 719,-272.5 713,-278.5 707,-278.5 707,-278.5 587,-278.5 587,-278.5 581,-278.5 575,-272.5 575,-266.5 575,-266.5 575,-248.5 575,-248.5 575,-242.5 581,-236.5 587,-236.5"/>
<text text-anchor="start" x="624.206" y="-265.2" font-family="Arial BoldMT" font-size="11.00">Location</text>
<polyline fill="none" stroke="black" points="575,-259.5 719,-259.5 "/>
<text text-anchor="start" x="582" y="-246" font-family="ArialMT" font-size="10.00">city </text>
<text text-anchor="start" x="599.778" y="-246" font-family="Arial ItalicMT" font-size="10.00" fill="#999999">string (255) ∗</text>
</g>
<!-- m_Location&#45;&gt;m_Copy -->
<g id="edge12" class="edge"><title>m_Location&#45;&gt;m_Copy</title>
<path fill="none" stroke="black" d="M652.393,-231.652C656.097,-214.59 661.113,-191.48 665.479,-171.364"/>
<ellipse fill="none" stroke="black" cx="651.884" cy="-233.998" rx="2.40001" ry="2.40001"/>
<ellipse fill="black" stroke="black" cx="667.317" cy="-162.899" rx="2.4" ry="2.4"/>
<polygon fill="black" stroke="black" points="667.587,-171.553 666.807,-165.244 663.483,-170.662 667.587,-171.553"/>
</g>
<!-- m_PrintedBook&#45;&gt;m_Borrowing -->
<g id="edge10" class="edge"><title>m_PrintedBook&#45;&gt;m_Borrowing</title>
<path fill="none" stroke="black" stroke-dasharray="1,5" d="M1003.73,-107.327C933.667,-90.633 830.072,-65.9492 757.968,-48.7689"/>
<ellipse fill="none" stroke="black" cx="1006.19" cy="-107.914" rx="2.40001" ry="2.40001"/>
<ellipse fill="none" stroke="black" cx="749.456" cy="-46.7408" rx="2.4" ry="2.4"/>
<polygon fill="black" stroke="black" points="758.114,-46.645 751.791,-47.2971 757.141,-50.7306 758.114,-46.645"/>
</g>
<!-- m_User -->
<g id="node12" class="node"><title>m_User</title>
<path fill="none" stroke="black" d="M402,-217C402,-217 534,-217 534,-217 540,-217 546,-223 546,-229 546,-229 546,-286 546,-286 546,-292 540,-298 534,-298 534,-298 402,-298 402,-298 396,-298 390,-292 390,-286 390,-286 390,-229 390,-229 390,-223 396,-217 402,-217"/>
<text text-anchor="start" x="454.388" y="-284.7" font-family="Arial BoldMT" font-size="11.00">User</text>
<polyline fill="none" stroke="black" points="390,-279 546,-279 "/>
<text text-anchor="start" x="397" y="-266" font-family="ArialMT" font-size="10.00">email </text>
<text text-anchor="start" x="423.675" y="-266" font-family="Arial ItalicMT" font-size="10.00" fill="#999999">string (255) ∗ U</text>
<text text-anchor="start" x="397" y="-253" font-family="ArialMT" font-size="10.00">login_token </text>
<text text-anchor="start" x="450.931" y="-253" font-family="Arial ItalicMT" font-size="10.00" fill="#999999">string</text>
<text text-anchor="start" x="396.84" y="-240" font-family="ArialMT" font-size="10.00">login_token_valid_until </text>
<text text-anchor="start" x="500.805" y="-240" font-family="Arial ItalicMT" font-size="10.00" fill="#999999">datetime</text>
<text text-anchor="start" x="397" y="-227" font-family="ArialMT" font-size="10.00">name </text>
<text text-anchor="start" x="424.793" y="-227" font-family="Arial ItalicMT" font-size="10.00" fill="#999999">string (100)</text>
</g>
<!-- m_User&#45;&gt;m_Borrowing -->
<g id="edge14" class="edge"><title>m_User&#45;&gt;m_Borrowing</title>
<path fill="none" stroke="black" d="M494.834,-212.81C517.455,-177.925 551.986,-128.942 589,-92 599.647,-81.374 612.201,-71.1451 624.379,-62.1323"/>
<ellipse fill="none" stroke="black" cx="493.436" cy="-214.976" rx="2.40002" ry="2.40002"/>
<ellipse fill="black" stroke="black" cx="631.202" cy="-57.2019" rx="2.40001" ry="2.40001"/>
<polygon fill="black" stroke="black" points="625.624,-63.824 629.257,-58.6076 623.164,-60.4198 625.624,-63.824"/>
</g>
<!-- m_User&#45;&gt;m_Vote -->
<g id="edge11" class="edge"><title>m_User&#45;&gt;m_Vote</title>
<path fill="none" stroke="black" d="M526.517,-214.244C537.575,-207.675 549.34,-201.565 561,-197 645.508,-163.912 674.639,-185.586 762,-161 765.658,-159.97 769.377,-158.844 773.114,-157.648"/>
<ellipse fill="none" stroke="black" cx="524.207" cy="-215.641" rx="2.40002" ry="2.40002"/>
<ellipse fill="black" stroke="black" cx="781.38" cy="-154.876" rx="2.40001" ry="2.40001"/>
<polygon fill="black" stroke="black" points="774.083,-159.537 779.104,-155.639 772.748,-155.555 774.083,-159.537"/>
</g>
<!-- m_Vote&#45;&gt;m_Dislike -->
<g id="edge3" class="edge"><title>m_Vote&#45;&gt;m_Dislike</title>
<path fill="none" stroke="#999999" d="M931.898,-102.235C994.332,-84.9224 1078.14,-61.6825 1134.45,-46.0665"/>
<polygon fill="none" stroke="#999999" points="930.547,-98.2512 920.106,-105.505 932.792,-106.346 930.547,-98.2512"/>
</g>
<!-- m_Vote&#45;&gt;m_Like -->
<g id="edge4" class="edge"><title>m_Vote&#45;&gt;m_Like</title>
<path fill="none" stroke="#999999" d="M889.332,-91.116C907.676,-75.8557 928.451,-58.5733 943.421,-46.1194"/>
<polygon fill="none" stroke="#999999" points="886.544,-87.9723 880.005,-98.8755 891.916,-94.4299 886.544,-87.9723"/>
</g>
<!-- m_primary::SchemaMigration -->
<g id="node14" class="node"><title>m_primary::SchemaMigration</title>
<path fill="none" stroke="black" d="M1106,-239.5C1106,-239.5 1226,-239.5 1226,-239.5 1232,-239.5 1238,-245.5 1238,-251.5 1238,-251.5 1238,-263.5 1238,-263.5 1238,-269.5 1232,-275.5 1226,-275.5 1226,-275.5 1106,-275.5 1106,-275.5 1100,-275.5 1094,-269.5 1094,-263.5 1094,-263.5 1094,-251.5 1094,-251.5 1094,-245.5 1100,-239.5 1106,-239.5"/>
<text text-anchor="start" x="1099.81" y="-253.7" font-family="Arial BoldMT" font-size="11.00">primary::SchemaMigration</text>
</g>
</g>
</svg>
