<?xml version="1.0" encoding="UTF-8" standalone="no"?>
<!DOCTYPE svg PUBLIC "-//W3C//DTD SVG 1.1//EN"
 "http://www.w3.org/Graphics/SVG/1.1/DTD/svg11.dtd">
<!-- Generated by graphviz version 2.43.0 (0)
 -->
<!-- Title: Books Pages: 1 -->
<svg width="1295pt" height="451pt"
 viewBox="0.00 0.00 1294.60 450.60" xmlns="http://www.w3.org/2000/svg" xmlns:xlink="http://www.w3.org/1999/xlink">
<g id="graph0" class="graph" transform="scale(1 1) rotate(0) translate(28.8 421.8)">
<title>Books</title>
<polygon fill="white" stroke="transparent" points="-28.8,28.8 -28.8,-421.8 1265.8,-421.8 1265.8,28.8 -28.8,28.8"/>
<text text-anchor="middle" x="618.5" y="-378.6" font-family="Arial BoldMT" font-size="13.00">Class Diagram Books</text>
<!-- m_ActiveRecord::InternalMetadata -->
<g id="node1" class="node">
<title>m_ActiveRecord::InternalMetadata</title>
<path fill="none" stroke="black" d="M12,-256C12,-256 152,-256 152,-256 158,-256 164,-262 164,-268 164,-268 164,-286 164,-286 164,-292 158,-298 152,-298 152,-298 12,-298 12,-298 6,-298 0,-292 0,-286 0,-286 0,-268 0,-268 0,-262 6,-256 12,-256"/>
<text text-anchor="start" x="4.96" y="-284.7" font-family="Arial BoldMT" font-size="11.00">ActiveRecord::InternalMetadata</text>
<polyline fill="none" stroke="black" points="0,-279 164,-279 "/>
<text text-anchor="start" x="17" y="-265.5" font-family="ArialMT" font-size="10.00">value </text>
<text text-anchor="start" x="43.68" y="-265.5" font-family="Arial ItalicMT" font-size="10.00" fill="#999999">string</text>
</g>
<!-- m_ActiveRecord::SchemaMigration -->
<g id="node2" class="node">
<title>m_ActiveRecord::SchemaMigration</title>
<path fill="none" stroke="black" d="M205.5,-259C205.5,-259 348.5,-259 348.5,-259 354.5,-259 360.5,-265 360.5,-271 360.5,-271 360.5,-283 360.5,-283 360.5,-289 354.5,-295 348.5,-295 348.5,-295 205.5,-295 205.5,-295 199.5,-295 193.5,-289 193.5,-283 193.5,-283 193.5,-271 193.5,-271 193.5,-265 199.5,-259 205.5,-259"/>
<text text-anchor="start" x="198.94" y="-273.2" font-family="Arial BoldMT" font-size="11.00">ActiveRecord::SchemaMigration</text>
</g>
<!-- m_Book -->
<g id="node3" class="node">
<title>m_Book</title>
<path fill="none" stroke="black" d="M873,-197.5C873,-197.5 993,-197.5 993,-197.5 999,-197.5 1005,-203.5 1005,-209.5 1005,-209.5 1005,-344.5 1005,-344.5 1005,-350.5 999,-356.5 993,-356.5 993,-356.5 873,-356.5 873,-356.5 867,-356.5 861,-350.5 861,-344.5 861,-344.5 861,-209.5 861,-209.5 861,-203.5 867,-197.5 873,-197.5"/>
<text text-anchor="start" x="918.46" y="-343.2" font-family="Arial BoldMT" font-size="11.00">Book</text>
<polyline fill="none" stroke="black" points="861,-337.5 1005,-337.5 "/>
<text text-anchor="start" x="868" y="-324.5" font-family="ArialMT" font-size="10.00">comments_count </text>
<text text-anchor="start" x="946.93" y="-324.5" font-family="Arial ItalicMT" font-size="10.00" fill="#999999">integer</text>
<text text-anchor="start" x="868" y="-311.5" font-family="ArialMT" font-size="10.00">cover </text>
<text text-anchor="start" x="895.23" y="-311.5" font-family="Arial ItalicMT" font-size="10.00" fill="#999999">string</text>
<text text-anchor="start" x="868" y="-298.5" font-family="ArialMT" font-size="10.00">deleted_at </text>
<text text-anchor="start" x="917.49" y="-298.5" font-family="Arial ItalicMT" font-size="10.00" fill="#999999">datetime</text>
<text text-anchor="start" x="868" y="-285.5" font-family="ArialMT" font-size="10.00">dislikes_count </text>
<text text-anchor="start" x="933.59" y="-285.5" font-family="Arial ItalicMT" font-size="10.00" fill="#999999">integer</text>
<text text-anchor="start" x="868" y="-272.5" font-family="ArialMT" font-size="10.00">likes_count </text>
<text text-anchor="start" x="920.81" y="-272.5" font-family="Arial ItalicMT" font-size="10.00" fill="#999999">integer</text>
<text text-anchor="start" x="868" y="-259.5" font-family="ArialMT" font-size="10.00">link </text>
<text text-anchor="start" x="885.78" y="-259.5" font-family="Arial ItalicMT" font-size="10.00" fill="#999999">string (2048)</text>
<text text-anchor="start" x="868" y="-246.5" font-family="ArialMT" font-size="10.00">num_of_pages </text>
<text text-anchor="start" x="936.94" y="-246.5" font-family="Arial ItalicMT" font-size="10.00" fill="#999999">integer (2)</text>
<text text-anchor="start" x="868" y="-233.5" font-family="ArialMT" font-size="10.00">published_on </text>
<text text-anchor="start" x="930.28" y="-233.5" font-family="Arial ItalicMT" font-size="10.00" fill="#999999">date</text>
<text text-anchor="start" x="868" y="-220.5" font-family="ArialMT" font-size="10.00">summary </text>
<text text-anchor="start" x="911.89" y="-220.5" font-family="Arial ItalicMT" font-size="10.00" fill="#999999">string (2048)</text>
<text text-anchor="start" x="868" y="-207.5" font-family="ArialMT" font-size="10.00">title </text>
<text text-anchor="start" x="886.34" y="-207.5" font-family="Arial ItalicMT" font-size="10.00" fill="#999999">string (255) ∗</text>
</g>
<!-- m_Book&#45;&gt;m_Book -->
<g id="edge9" class="edge">
<title>m_Book&#45;&gt;m_Book</title>
<path fill="none" stroke="black" d="M1010.09,-303.57C1024.15,-300.2 1034,-291.35 1034,-277 1034,-264.65 1026.7,-256.37 1015.7,-252.15"/>
<ellipse fill="none" stroke="black" cx="1007.53" cy="-304.06" rx="2.4" ry="2.4"/>
<ellipse fill="none" stroke="black" cx="1007.5" cy="-250.08" rx="2.4" ry="2.4"/>
<polygon fill="black" stroke="black" points="1016.16,-250.1 1009.83,-250.67 1015.13,-254.18 1016.16,-250.1"/>
</g>
<!-- m_Borrowing -->
<g id="node4" class="node">
<title>m_Borrowing</title>
<path fill="none" stroke="black" d="M411,-0.5C411,-0.5 531,-0.5 531,-0.5 537,-0.5 543,-6.5 543,-12.5 543,-12.5 543,-43.5 543,-43.5 543,-49.5 537,-55.5 531,-55.5 531,-55.5 411,-55.5 411,-55.5 405,-55.5 399,-49.5 399,-43.5 399,-43.5 399,-12.5 399,-12.5 399,-6.5 405,-0.5 411,-0.5"/>
<text text-anchor="start" x="444.24" y="-42.2" font-family="Arial BoldMT" font-size="11.00">Borrowing</text>
<polyline fill="none" stroke="black" points="399,-36.5 543,-36.5 "/>
<text text-anchor="start" x="406" y="-23.5" font-family="ArialMT" font-size="10.00">borrowed_at </text>
<text text-anchor="start" x="464.37" y="-23.5" font-family="Arial ItalicMT" font-size="10.00" fill="#999999">datetime</text>
<text text-anchor="start" x="406" y="-10.5" font-family="ArialMT" font-size="10.00">deleted_at </text>
<text text-anchor="start" x="455.49" y="-10.5" font-family="Arial ItalicMT" font-size="10.00" fill="#999999">datetime</text>
</g>
<!-- m_Book&#45;&gt;m_Borrowing -->
<g id="edge8" class="edge">
<title>m_Book&#45;&gt;m_Borrowing</title>
<path fill="none" stroke="black" stroke-dasharray="1,5" d="M856.29,-238.85C821.3,-223.46 778.85,-206.92 739,-197 654.85,-176.06 370.94,-212.74 355,-127.5"/>
<ellipse fill="none" stroke="black" cx="858.76" cy="-239.94" rx="2.4" ry="2.4"/>
<path fill="none" stroke="black" stroke-dasharray="1,5" d="M355,-125.5C349.87,-98.1 369.05,-76.81 393.21,-61.28"/>
<ellipse fill="none" stroke="black" cx="400.62" cy="-56.84" rx="2.4" ry="2.4"/>
<polygon fill="black" stroke="black" points="394.49,-62.96 398.56,-58.07 392.33,-59.36 394.49,-62.96"/>
</g>
<!-- m_Comment -->
<g id="node5" class="node">
<title>m_Comment</title>
<path fill="none" stroke="black" d="M757,-99C757,-99 877,-99 877,-99 883,-99 889,-105 889,-111 889,-111 889,-142 889,-142 889,-148 883,-154 877,-154 877,-154 757,-154 757,-154 751,-154 745,-148 745,-142 745,-142 745,-111 745,-111 745,-105 751,-99 757,-99"/>
<text text-anchor="start" x="791.16" y="-140.7" font-family="Arial BoldMT" font-size="11.00">Comment</text>
<polyline fill="none" stroke="black" points="745,-135 889,-135 "/>
<text text-anchor="start" x="752" y="-122" font-family="ArialMT" font-size="10.00">body </text>
<text text-anchor="start" x="776.46" y="-122" font-family="Arial ItalicMT" font-size="10.00" fill="#999999">string (1024) ∗</text>
<text text-anchor="start" x="752" y="-109" font-family="ArialMT" font-size="10.00">deleted_at </text>
<text text-anchor="start" x="801.49" y="-109" font-family="Arial ItalicMT" font-size="10.00" fill="#999999">datetime</text>
</g>
<!-- m_Book&#45;&gt;m_Comment -->
<g id="edge6" class="edge">
<title>m_Book&#45;&gt;m_Comment</title>
<path fill="none" stroke="black" d="M868.47,-193.39C860.07,-182.64 851.86,-172.13 844.55,-162.77"/>
<ellipse fill="none" stroke="black" cx="870.13" cy="-195.51" rx="2.4" ry="2.4"/>
<ellipse fill="black" stroke="black" cx="839.32" cy="-156.07" rx="2.4" ry="2.4"/>
<polygon fill="black" stroke="black" points="846.14,-161.4 840.79,-157.96 842.83,-163.98 846.14,-161.4"/>
</g>
<!-- m_Copy -->
<g id="node6" class="node">
<title>m_Copy</title>
<path fill="none" stroke="black" d="M411,-92.5C411,-92.5 531,-92.5 531,-92.5 537,-92.5 543,-98.5 543,-104.5 543,-104.5 543,-148.5 543,-148.5 543,-154.5 537,-160.5 531,-160.5 531,-160.5 411,-160.5 411,-160.5 405,-160.5 399,-154.5 399,-148.5 399,-148.5 399,-104.5 399,-104.5 399,-98.5 405,-92.5 411,-92.5"/>
<text text-anchor="start" x="456.16" y="-147.2" font-family="Arial BoldMT" font-size="11.00">Copy</text>
<polyline fill="none" stroke="black" points="399,-141.5 543,-141.5 "/>
<text text-anchor="start" x="406" y="-128" font-family="ArialMT" font-size="10.00">borrowings_count </text>
<text text-anchor="start" x="487.71" y="-128" font-family="Arial ItalicMT" font-size="10.00" fill="#999999">integer</text>
<text text-anchor="start" x="406" y="-115" font-family="ArialMT" font-size="10.00">deleted_at </text>
<text text-anchor="start" x="455.49" y="-115" font-family="Arial ItalicMT" font-size="10.00" fill="#999999">datetime</text>
<text text-anchor="start" x="406" y="-102" font-family="ArialMT" font-size="10.00">number </text>
<text text-anchor="start" x="442.68" y="-102" font-family="Arial ItalicMT" font-size="10.00" fill="#999999">integer</text>
</g>
<!-- m_Book&#45;&gt;m_Copy -->
<g id="edge7" class="edge">
<title>m_Book&#45;&gt;m_Copy</title>
<path fill="none" stroke="black" d="M856.26,-240.79C821.08,-225.69 778.51,-208.83 739,-197 660.01,-173.34 636.17,-184.05 557,-161 556.02,-160.72 555.04,-160.43 554.06,-160.13"/>
<ellipse fill="none" stroke="black" cx="858.75" cy="-241.86" rx="2.4" ry="2.4"/>
<ellipse fill="black" stroke="black" cx="545.7" cy="-157.47" rx="2.4" ry="2.4"/>
<polygon fill="black" stroke="black" points="554.34,-158.02 547.99,-158.2 553.07,-162.02 554.34,-158.02"/>
</g>
<!-- m_Dislike -->
<g id="node7" class="node">
<title>m_Dislike</title>
<path fill="none" stroke="#999999" d="M1105,-10C1105,-10 1225,-10 1225,-10 1231,-10 1237,-16 1237,-22 1237,-22 1237,-34 1237,-34 1237,-40 1231,-46 1225,-46 1225,-46 1105,-46 1105,-46 1099,-46 1093,-40 1093,-34 1093,-34 1093,-22 1093,-22 1093,-16 1099,-10 1105,-10"/>
<text text-anchor="start" x="1146.8" y="-24.2" font-family="Arial BoldMT" font-size="11.00" fill="#999999">Dislike</text>
</g>
<!-- m_Book&#45;&gt;m_Dislike -->
<g id="edge5" class="edge">
<title>m_Book&#45;&gt;m_Dislike</title>
<path fill="none" stroke="black" d="M1009.85,-250.45C1053.23,-232.16 1104.84,-203.22 1136,-161 1158.53,-130.47 1164.17,-85.84 1165.27,-57.1"/>
<ellipse fill="none" stroke="black" cx="1007.62" cy="-251.37" rx="2.4" ry="2.4"/>
<ellipse fill="black" stroke="black" cx="1165.44" cy="-48.61" rx="2.4" ry="2.4"/>
<polygon fill="black" stroke="black" points="1167.37,-57.05 1165.39,-51.01 1163.17,-56.96 1167.37,-57.05"/>
</g>
<!-- m_Like -->
<g id="node8" class="node">
<title>m_Like</title>
<path fill="none" stroke="#999999" d="M873,-10C873,-10 993,-10 993,-10 999,-10 1005,-16 1005,-22 1005,-22 1005,-34 1005,-34 1005,-40 999,-46 993,-46 993,-46 873,-46 873,-46 867,-46 861,-40 861,-34 861,-34 861,-22 861,-22 861,-16 867,-10 873,-10"/>
<text text-anchor="start" x="920.91" y="-24.2" font-family="Arial BoldMT" font-size="11.00" fill="#999999">Like</text>
</g>
<!-- m_Book&#45;&gt;m_Like -->
<g id="edge4" class="edge">
<title>m_Book&#45;&gt;m_Like</title>
<path fill="none" stroke="black" d="M933,-192.1C933,-145.15 933,-89.67 933,-57.01"/>
<ellipse fill="none" stroke="black" cx="933" cy="-194.77" rx="2.4" ry="2.4"/>
<ellipse fill="black" stroke="black" cx="933" cy="-48.47" rx="2.4" ry="2.4"/>
<polygon fill="black" stroke="black" points="935.1,-56.87 933,-50.87 930.9,-56.87 935.1,-56.87"/>
</g>
<!-- m_Vote -->
<g id="node11" class="node">
<title>m_Vote</title>
<path fill="none" stroke="black" d="M584,-99C584,-99 704,-99 704,-99 710,-99 716,-105 716,-111 716,-111 716,-142 716,-142 716,-148 710,-154 704,-154 704,-154 584,-154 584,-154 578,-154 572,-148 572,-142 572,-142 572,-111 572,-111 572,-105 578,-99 584,-99"/>
<text text-anchor="start" x="630.99" y="-140.7" font-family="Arial BoldMT" font-size="11.00">Vote</text>
<polyline fill="none" stroke="black" points="572,-135 716,-135 "/>
<text text-anchor="start" x="579" y="-122" font-family="ArialMT" font-size="10.00">deleted_at </text>
<text text-anchor="start" x="628.49" y="-122" font-family="Arial ItalicMT" font-size="10.00" fill="#999999">datetime</text>
<text text-anchor="start" x="579" y="-109" font-family="ArialMT" font-size="10.00">type </text>
<text text-anchor="start" x="600.68" y="-109" font-family="Arial ItalicMT" font-size="10.00" fill="#999999">string</text>
</g>
<!-- m_Book&#45;&gt;m_Vote -->
<g id="edge3" class="edge">
<title>m_Book&#45;&gt;m_Vote</title>
<path fill="none" stroke="black" d="M856.27,-236.57C809.11,-212.34 749.5,-181.71 705.47,-159.09"/>
<ellipse fill="none" stroke="black" cx="858.68" cy="-237.81" rx="2.4" ry="2.4"/>
<ellipse fill="none" stroke="black" cx="697.89" cy="-155.19" rx="2.4" ry="2.4"/>
<polygon fill="black" stroke="black" points="706.32,-157.16 700.03,-156.29 704.4,-160.9 706.32,-157.16"/>
</g>
<!-- m_Writer -->
<g id="node12" class="node">
<title>m_Writer</title>
<path fill="none" stroke="black" d="M989,-105.5C989,-105.5 1109,-105.5 1109,-105.5 1115,-105.5 1121,-111.5 1121,-117.5 1121,-117.5 1121,-135.5 1121,-135.5 1121,-141.5 1115,-147.5 1109,-147.5 1109,-147.5 989,-147.5 989,-147.5 983,-147.5 977,-141.5 977,-135.5 977,-135.5 977,-117.5 977,-117.5 977,-111.5 983,-105.5 989,-105.5"/>
<text text-anchor="start" x="1032.43" y="-134.2" font-family="Arial BoldMT" font-size="11.00">Writer</text>
<polyline fill="none" stroke="black" points="977,-128.5 1121,-128.5 "/>
<text text-anchor="start" x="984" y="-115" font-family="ArialMT" font-size="10.00">name </text>
<text text-anchor="start" x="1011.79" y="-115" font-family="Arial ItalicMT" font-size="10.00" fill="#999999">string ∗ U</text>
</g>
<!-- m_Book&#45;&gt;m_Writer -->
<g id="edge10" class="edge">
<title>m_Book&#45;&gt;m_Writer</title>
<path fill="none" stroke="black" d="M1001.14,-188.77C1010.27,-177.08 1019.05,-165.84 1026.55,-156.24"/>
<ellipse fill="none" stroke="black" cx="995.87" cy="-195.51" rx="2.4" ry="2.4"/>
<polygon fill="black" stroke="black" points="999.39,-187.6 997.35,-193.62 1002.7,-190.18 999.39,-187.6"/>
<ellipse fill="none" stroke="black" cx="1031.83" cy="-149.48" rx="2.4" ry="2.4"/>
<polygon fill="black" stroke="black" points="1028.32,-157.39 1030.35,-151.37 1025.01,-154.81 1028.32,-157.39"/>
</g>
<!-- m_Copy&#45;&gt;m_Borrowing -->
<g id="edge14" class="edge">
<title>m_Copy&#45;&gt;m_Borrowing</title>
<path fill="none" stroke="black" d="M471,-87.45C471,-80.61 471,-73.49 471,-66.67"/>
<ellipse fill="none" stroke="black" cx="471" cy="-89.89" rx="2.4" ry="2.4"/>
<ellipse fill="black" stroke="black" cx="471" cy="-57.97" rx="2.4" ry="2.4"/>
<polygon fill="black" stroke="black" points="473.1,-66.37 471,-60.37 468.9,-66.37 473.1,-66.37"/>
</g>
<!-- m_Location -->
<g id="node9" class="node">
<title>m_Location</title>
<path fill="none" stroke="black" d="M402,-256C402,-256 522,-256 522,-256 528,-256 534,-262 534,-268 534,-268 534,-286 534,-286 534,-292 528,-298 522,-298 522,-298 402,-298 402,-298 396,-298 390,-292 390,-286 390,-286 390,-268 390,-268 390,-262 396,-256 402,-256"/>
<text text-anchor="start" x="439.21" y="-284.7" font-family="Arial BoldMT" font-size="11.00">Location</text>
<polyline fill="none" stroke="black" points="390,-279 534,-279 "/>
<text text-anchor="start" x="397" y="-265.5" font-family="ArialMT" font-size="10.00">city </text>
<text text-anchor="start" x="414.78" y="-265.5" font-family="Arial ItalicMT" font-size="10.00" fill="#999999">string (255) ∗</text>
</g>
<!-- m_Location&#45;&gt;m_Copy -->
<g id="edge13" class="edge">
<title>m_Location&#45;&gt;m_Copy</title>
<path fill="none" stroke="black" d="M463.52,-250.88C464.83,-229.23 466.76,-197.46 468.33,-171.59"/>
<ellipse fill="none" stroke="black" cx="463.36" cy="-253.58" rx="2.4" ry="2.4"/>
<ellipse fill="black" stroke="black" cx="468.85" cy="-162.93" rx="2.4" ry="2.4"/>
<polygon fill="black" stroke="black" points="470.44,-171.44 468.71,-165.33 466.25,-171.19 470.44,-171.44"/>
</g>
<!-- m_User -->
<g id="node10" class="node">
<title>m_User</title>
<path fill="none" stroke="black" d="M575,-230C575,-230 713,-230 713,-230 719,-230 725,-236 725,-242 725,-242 725,-312 725,-312 725,-318 719,-324 713,-324 713,-324 575,-324 575,-324 569,-324 563,-318 563,-312 563,-312 563,-242 563,-242 563,-236 569,-230 575,-230"/>
<text text-anchor="start" x="630.39" y="-310.7" font-family="Arial BoldMT" font-size="11.00">User</text>
<polyline fill="none" stroke="black" points="563,-305 725,-305 "/>
<text text-anchor="start" x="569.51" y="-291.5" font-family="ArialMT" font-size="10.00">comments_anonymously </text>
<text text-anchor="start" x="682.9" y="-291.5" font-family="Arial ItalicMT" font-size="10.00" fill="#999999">boolean</text>
<text text-anchor="start" x="570" y="-278.5" font-family="ArialMT" font-size="10.00">email </text>
<text text-anchor="start" x="596.67" y="-278.5" font-family="Arial ItalicMT" font-size="10.00" fill="#999999">string (255) ∗ U</text>
<text text-anchor="start" x="570" y="-265.5" font-family="ArialMT" font-size="10.00">login_token </text>
<text text-anchor="start" x="623.93" y="-265.5" font-family="Arial ItalicMT" font-size="10.00" fill="#999999">string</text>
<text text-anchor="start" x="570" y="-252.5" font-family="ArialMT" font-size="10.00">login_token_valid_until </text>
<text text-anchor="start" x="673.96" y="-252.5" font-family="Arial ItalicMT" font-size="10.00" fill="#999999">datetime</text>
<text text-anchor="start" x="570" y="-239.5" font-family="ArialMT" font-size="10.00">name </text>
<text text-anchor="start" x="597.79" y="-239.5" font-family="Arial ItalicMT" font-size="10.00" fill="#999999">string (100)</text>
</g>
<!-- m_User&#45;&gt;m_Borrowing -->
<g id="edge15" class="edge">
<title>m_User&#45;&gt;m_Borrowing</title>
<path fill="none" stroke="black" d="M592.97,-226.58C579.24,-215.45 563.79,-204.67 548,-197 466,-157.15 371.76,-217.12 355,-127.5"/>
<ellipse fill="none" stroke="black" cx="594.95" cy="-228.2" rx="2.4" ry="2.4"/>
</g>
<!-- m_User&#45;&gt;m_Comment -->
<g id="edge11" class="edge">
<title>m_User&#45;&gt;m_Comment</title>
<path fill="none" stroke="black" d="M701.55,-226.6C726.53,-205.16 755.14,-180.6 777.63,-161.3"/>
<ellipse fill="none" stroke="black" cx="699.61" cy="-228.26" rx="2.4" ry="2.4"/>
<ellipse fill="black" stroke="black" cx="784.11" cy="-155.74" rx="2.4" ry="2.4"/>
<polygon fill="black" stroke="black" points="779.1,-162.8 782.29,-157.3 776.36,-159.61 779.1,-162.8"/>
</g>
<!-- m_User&#45;&gt;m_Vote -->
<g id="edge12" class="edge">
<title>m_User&#45;&gt;m_Vote</title>
<path fill="none" stroke="black" d="M644,-224.81C644,-205.23 644,-183.26 644,-165.16"/>
<ellipse fill="none" stroke="black" cx="644" cy="-227.43" rx="2.4" ry="2.4"/>
<ellipse fill="black" stroke="black" cx="644" cy="-156.57" rx="2.4" ry="2.4"/>
<polygon fill="black" stroke="black" points="646.1,-164.97 644,-158.97 641.9,-164.97 646.1,-164.97"/>
</g>
<!-- m_Vote&#45;&gt;m_Dislike -->
<g id="edge1" class="edge">
<title>m_Vote&#45;&gt;m_Dislike</title>
<path fill="none" stroke="#999999" d="M718.45,-95.22C722.33,-94.05 726.19,-92.96 730,-92 855.49,-60.27 891.08,-75.78 1019,-56 1043.07,-52.28 1069.27,-47.62 1092.74,-43.23"/>
<polygon fill="none" stroke="#999999" points="716.95,-91.3 706.82,-98.99 719.53,-99.29 716.95,-91.3"/>
</g>
<!-- m_Vote&#45;&gt;m_Like -->
<g id="edge2" class="edge">
<title>m_Vote&#45;&gt;m_Like</title>
<path fill="none" stroke="#999999" d="M722.35,-94.72C724.92,-93.79 727.48,-92.88 730,-92 778.07,-75.2 833.31,-58.21 874.01,-46.11"/>
<polygon fill="none" stroke="#999999" points="720.79,-90.81 710.97,-98.89 723.68,-98.7 720.79,-90.81"/>
</g>
</g>
</svg>
